<?xml version="1.0" standalone="no"?>
<!DOCTYPE svg PUBLIC "-//W3C//DTD SVG 1.1//EN" "http://www.w3.org/Graphics/SVG/1.1/DTD/svg11.dtd" >
<svg>
<metadata>
Created by FontForge 20090914 at Wed Sep 22 19:20:30 2021
 By www-data
&#194;&#169; 2014, Sirwan Yassin, All Rights Reserved.
</metadata>
<defs>
<font id="SiRWAN_014" horiz-adv-x="891" >
  <font-face 
    font-family="SiRWAN_014"
    font-weight="400"
    font-stretch="normal"
    units-per-em="2048"
    panose-1="2 11 6 4 3 5 4 4 2 4"
    ascent="1638"
    descent="-410"
    x-height="997"
    cap-height="1413"
    bbox="-152.601 -1182.01 4022 1933"
    underline-thickness="128"
    underline-position="-416"
    unicode-range="U+0020-U+FEFC"
  />
<missing-glyph horiz-adv-x="999" 
d="M60 0v1242h879v-1242h-879zM161 101h672v1040h-672v-1040z" />
    <glyph glyph-name="uniE002" unicode="&#xe009;&#xfe8e;" horiz-adv-x="1099" 
d="M1151 221v-221.003h-184c-22 0 -38.333 4.66699 -49 14c-13.333 8.66699 -24.333 19.667 -33 33c-9.33301 10.667 -16 25 -20 43c-5.33301 22 -8.66602 38.333 -9.99902 49c-27.333 -35.333 -59.666 -66.666 -96.999 -93.999c-34 -27.333 -81.667 -53.333 -143 -78
c-57.333 -20 -123 -36.333 -197 -49c-76 -12 -162.667 -18 -260 -18l-145 213c155.333 -10 287.666 -2.66699 396.999 22c20.667 168 -40.666 405.667 -183.999 713l-113 252l199 164c23.333 -57.333 43.666 -111.333 60.999 -162c54.667 -154.667 95 -280.334 121 -377.001
c68 -254 74 -438.333 18 -553c53.333 20.667 95.666 44.667 126.999 72c33.333 28.667 57.5 58 72.5 88s25.833 64.667 32.5 104c5.33301 32.667 8 70.334 8 113.001v633l211 129l-2 -781c0 -43.333 0.666992 -76.666 2 -99.999c1.33301 -35.333 5.33301 -68.666 12 -99.999
c7.33301 -34 17 -60 29 -78c13.333 -20.667 32.333 -31 57 -31h90zM394 1593c-10.667 -4 -21.668 -11.3359 -33.001 -22.0029l-9 -9l-12 -11l-12 -14l-56 -95l-28 -65l-20 -48l-17 -48l-11 -37c-2.66699 -10 -7.66699 -15 -15 -15l-4 3l-10 10
c-6 20.667 -19 52.334 -39 95.001c-22.667 57.333 -45.667 100 -69 128c-30 52 -56.333 85 -79 99c-5.33301 4.66699 -11.333 9.33398 -18 14.001c-7.33301 4.66699 -13.666 8.33398 -18.999 11.001c0 11.333 4.5 36.666 13.5 75.999s16.833 62.333 23.5 69
c12.667 -4 33.667 -14.667 63 -32c10.667 -10.667 21 -21.667 31 -33l26 -34l39 -74l32 -81l21 66l16 41l6 13l5 12l8 12c14 20.667 34 46.667 60 78c8.66699 8.66699 19 15.334 31 20.001l34 14l17 -43z" />
    <glyph glyph-name="uniE003" unicode="&#xe008;&#xfe8e;" horiz-adv-x="1060" 
d="M962 1311l0.000976562 -759.999c0 -44 -2 -90.333 -6 -139c-6.66699 -53.333 -17.667 -102 -33 -146c-20 -53.333 -46 -99 -78 -137c-35.333 -45.333 -81.666 -85 -138.999 -119c-56 -32.667 -130.333 -60 -223 -82c-91.333 -18.667 -199.333 -28 -324 -28l-145 213
c151.333 -10 283.666 -2.66699 396.999 22c18 172 -43.333 409.667 -184 713l-113 252l197 164c14.667 -44 35 -98 61 -162c45.333 -114.667 86.333 -240.334 123 -377.001c70 -255.333 77 -440.333 21 -555c53.333 20.667 95.666 44.667 126.999 72
c28.667 24.667 51.667 54.667 69 90c15.333 30 26.333 64.667 33 104c4 37.333 6 75 6 113v633zM394.001 1593c-10.667 -4 -21.668 -11.3359 -33.001 -22.0029l-9 -9l-12 -11l-12 -14l-56 -95l-28 -65l-20 -48l-17 -48l-11 -37c-2.66699 -10 -7.66699 -15 -15 -15l-4 3
l-10 10c-6 20.667 -19 52.334 -39 95.001c-22.667 57.333 -45.667 100 -69 128c-30 52 -56.333 85 -79 99c-5.33301 4.66699 -11.333 9.33398 -18 14.001c-7.33301 4.66699 -13.666 8.33398 -18.999 11.001c0 11.333 4.5 36.666 13.5 75.999s16.833 62.333 23.5 69
c12.667 -4 33.667 -14.667 63 -32c10.667 -10.667 21 -21.667 31 -33l26 -34l39 -74l32 -81l21 66l16 41l6 13l5 12l8 12c14 20.667 34 46.667 60 78c8.66699 8.66699 19 15.334 31 20.001l34 14l17 -43z" />
    <glyph glyph-name="uniFEF5" unicode="&#xfedf;&#xfe82;" horiz-adv-x="1060" arabic-form="isolated" 
d="M963 1311l0.00292969 -759.999c0 -44 -2 -90.333 -6 -139c-6.66699 -53.333 -17.667 -102 -33 -146c-20 -53.333 -45.667 -99 -77 -137c-36 -45.333 -82.667 -85 -140 -119c-56 -32.667 -130.333 -60 -223 -82c-91.333 -18.667 -199.333 -28 -324 -28l-145 213
c151.333 -10 283.666 -2.66699 396.999 22c18 172 -43.333 409.667 -184 713l-113 252l197 164c15.333 -44 35.666 -98 60.999 -162c45.333 -114.667 86.333 -240.334 123 -377.001c70 -255.333 77 -440.333 21 -555c53.333 20.667 95.666 44.667 126.999 72
c28.667 24.667 51.667 54.667 69 90c15.333 30 26.333 64.667 33 104c4 37.333 6 75 6 113v633zM691.003 1753c-9.33301 -52 -15.001 -84.002 -17.001 -96.002c-5.33301 -30 -14 -56 -26 -78c-16.667 -26 -36.667 -45 -60 -57c-28.667 -15.333 -66 -27 -112 -35l-422 -64
c-52 -8 -88.833 -19.5 -110.5 -34.5s-35.5 -38.167 -41.5 -69.5c-4 -18 -7.33301 -18.667 -10 -2c-4 16 -4.66699 36.333 -2 61c2.66699 31.333 6.66699 59.333 12 84c6 23.333 17 45.333 33 66c18 20.667 39.333 36.334 64 47.001c28.667 13.333 61.334 23 98.001 29
l414 65c57.333 12.667 96.5 25.334 117.5 38.001s32.833 35 35.5 67z" />
    <glyph glyph-name="uniFEF6" unicode="&#xfee0;&#xfe82;" horiz-adv-x="1099" arabic-form="final" 
d="M1152 221v-221.003h-185c-21.333 0 -37.666 4.66699 -48.999 14c-13.333 8.66699 -24.333 19.667 -33 33c-9.33301 10.667 -16 25 -20 43c-5.33301 22 -8.66602 38.333 -9.99902 49c-27.333 -35.333 -59.666 -66.666 -96.999 -93.999
c-34 -27.333 -81.667 -53.333 -143 -78c-57.333 -20 -123 -36.333 -197 -49c-76 -12 -162.667 -18 -260 -18l-145 213c155.333 -10 287.666 -2.66699 396.999 22c20.667 168 -40.666 405.667 -183.999 713l-113 252l199 164c23.333 -57.333 43.666 -111.333 60.999 -162
c54.667 -154.667 95 -280.334 121 -377.001c68.667 -254 75 -438.333 19 -553c53.333 20.667 95.666 44.667 126.999 72c32.667 28.667 56.5 58 71.5 88s25.833 64.667 32.5 104c5.33301 32.667 8 70.334 8 113.001v633l211 129l-2 -781
c0 -43.333 0.666992 -76.666 2 -99.999c1.33301 -35.333 5.66602 -68.666 12.999 -99.999c6.66699 -34 16 -60 28 -78c14 -20.667 33.333 -31 58 -31h90zM691 1753c-9.33301 -52 -15.001 -84.002 -17.001 -96.002c-5.33301 -30 -14 -56 -26 -78
c-16.667 -26 -36.667 -45 -60 -57c-28.667 -15.333 -66 -27 -112 -35l-422 -64c-52 -8 -88.833 -19.5 -110.5 -34.5s-35.5 -38.167 -41.5 -69.5c-4 -18 -7.33301 -18.667 -10 -2c-4 16 -4.66699 36.333 -2 61c2.66699 31.333 6.66699 59.333 12 84c6 23.333 17 45.333 33 66
c18 20.667 39.333 36.334 64 47.001c28.667 13.333 61.334 23 98.001 29l414 65c57.333 12.667 96.5 25.334 117.5 38.001s32.833 35 35.5 67z" />
    <glyph glyph-name="uniFEF7" unicode="&#xfedf;&#xfe84;" horiz-adv-x="1060" arabic-form="isolated" 
d="M963 1311v-759.999c0 -44 -2 -90.333 -6 -139c-6.66699 -53.333 -17.667 -102 -33 -146c-20.667 -53.333 -46.667 -99 -78 -137c-35.333 -45.333 -81.666 -85 -138.999 -119c-56 -32.667 -130.333 -60 -223 -82c-91.333 -18.667 -199.333 -28 -324 -28l-145 213
c151.333 -10 283.666 -2.66699 396.999 22c18 172 -43.333 409.667 -184 713l-113 252l197 164c14.667 -44 35 -98 61 -162c45.333 -114.667 86.333 -240.334 123 -377.001c70 -255.333 77 -440.333 21 -555c52.667 20.667 95 44.667 127 72
c28.667 24.667 51.667 54.667 69 90c15.333 30 26.333 64.667 33 104c4 37.333 6 75 6 113v633zM92 1567c22 -18 51.335 -29.001 88.002 -33.001c83.333 -8 185.666 19.333 306.999 82l-59 -182c-132.667 -35.333 -240 -84.666 -322 -147.999
c-35.333 -27.333 -64.666 -56 -87.999 -86l-2 39c1.33301 78 30.666 142.333 87.999 193c-69.333 13.333 -104 55.666 -104 126.999c0 32.667 8.33301 68 25 106c16 38.667 38.333 73.667 67 105c26 30 57.333 56 94 78c36 20 73 29.333 111 28
c35.333 -2.66699 64.666 -10.667 87.999 -24l-16 -162c-26 10.667 -51.333 16 -76 16s-50 -5.33301 -76 -16c-22 -10 -45.333 -25.667 -70 -47c-22.667 -23.333 -41 -48.666 -55 -75.999z" />
    <glyph glyph-name="uniFEF8" unicode="&#xfee0;&#xfe84;" horiz-adv-x="1099" arabic-form="final" 
d="M1151 221v-221.003h-184c-22 0 -38.333 4.66699 -49 14c-13.333 8.66699 -24.333 19.667 -33 33c-9.33301 10.667 -16 25 -20 43c-5.33301 22 -8.66602 38.333 -9.99902 49c-27.333 -35.333 -59.666 -66.666 -96.999 -93.999c-34 -27.333 -81.667 -53.333 -143 -78
c-57.333 -20 -123 -36.333 -197 -49c-76 -12 -162.667 -18 -260 -18l-145 213c155.333 -10 287.666 -2.66699 396.999 22c20.667 168 -40.666 405.667 -183.999 713l-113 252l199 164c23.333 -57.333 43.666 -111.333 60.999 -162c54.667 -154.667 95 -280.334 121 -377.001
c68 -254 74 -438.333 18 -553c53.333 20.667 95.666 44.667 126.999 72c33.333 28.667 57.5 58 72.5 88s25.833 64.667 32.5 104c5.33301 32.667 8 70.334 8 113.001v633l211 129l-2 -781c0 -43.333 0.666992 -76.666 2 -99.999c1.33301 -35.333 5.33301 -68.666 12 -99.999
c7.33301 -34 17 -60 29 -78c13.333 -20.667 32.333 -31 57 -31h90zM92 1567c22 -18 51.335 -29.001 88.002 -33.001c83.333 -8 185.666 19.333 306.999 82l-59 -182c-132.667 -35.333 -240 -84.666 -322 -147.999c-35.333 -27.333 -64.666 -56 -87.999 -86l-2 39
c1.33301 78 30.666 142.333 87.999 193c-69.333 13.333 -104 55.666 -104 126.999c0 32.667 8.33301 68 25 106c16 38.667 38.333 73.667 67 105c26 30 57.333 56 94 78c36 20 73 29.333 111 28c35.333 -2.66699 64.666 -10.667 87.999 -24l-16 -162
c-26 10.667 -51.333 16 -76 16s-50 -5.33301 -76 -16c-22 -10 -45.333 -25.667 -70 -47c-22.667 -23.333 -41 -48.666 -55 -75.999z" />
    <glyph glyph-name="uniFEF9" unicode="&#xfedf;&#xfe88;" horiz-adv-x="1060" arabic-form="isolated" 
d="M962 1311l0.000976562 -759.999c0 -44 -2 -90.333 -6 -139c-6.66699 -53.333 -17.667 -102 -33 -146c-20 -53.333 -46 -99 -78 -137c-35.333 -45.333 -81.666 -85 -138.999 -119c-56 -32.667 -130.333 -60 -223 -82c-91.333 -18.667 -199.333 -28 -324 -28l-145 213
c151.333 -10 283.666 -2.66699 396.999 22c18 172 -43.333 409.667 -184 713l-113 252l197 164c14.667 -44 35 -98 61 -162c45.333 -114.667 86.333 -240.334 123 -377.001c70 -255.333 77 -440.333 21 -555c53.333 20.667 95.666 44.667 126.999 72
c28.667 24.667 51.667 54.667 69 90c15.333 30 26.333 64.667 33 104c4 37.333 6 75 6 113v633zM284.001 -513.999c22 -18 51.335 -29.001 88.002 -33.001c83.333 -8 186 19.333 308 82l-60 -182c-132 -35.333 -239 -84.666 -321 -147.999c-36 -27.333 -65.333 -56 -88 -86
l-2 39c1.33301 78 30.666 142.333 87.999 193c-70 13.333 -105 55.666 -105 126.999c0 32.667 8.33301 68 25 106c16 38.667 38.333 73.667 67 105c26 30 57.667 56 95 78c35.333 20 72 29.333 110 28c35.333 -2.66699 64.666 -10.667 87.999 -24l-16 -162
c-26 10.667 -51.333 16 -76 16s-50 -5.33301 -76 -16c-22 -10 -45 -25.667 -69 -47c-23.333 -23.333 -42 -48.666 -56 -75.999z" />
    <glyph glyph-name="uniFEFA" unicode="&#xfee0;&#xfe88;" horiz-adv-x="1099" arabic-form="final" 
d="M1151 221l-0.000976562 -221.003h-185c-21.333 0 -37.666 4.66699 -48.999 14c-13.333 8.66699 -24.333 19.667 -33 33c-9.33301 10.667 -16 25 -20 43c-5.33301 22 -8.66602 38.333 -9.99902 49c-27.333 -35.333 -59.666 -66.666 -96.999 -93.999
c-34 -27.333 -81.667 -53.333 -143 -78c-57.333 -20 -122.666 -36.333 -195.999 -49c-76.667 -12 -163.667 -18 -261 -18l-145 213c155.333 -10 287.666 -2.66699 396.999 22c20.667 168 -40.666 405.667 -183.999 713l-113 252l199 164
c23.333 -57.333 43.666 -111.333 60.999 -162c54.667 -154.667 95 -280.334 121 -377.001c68.667 -254 75 -438.333 19 -553c53.333 20.667 95.666 44.667 126.999 72c32.667 28.667 56.5 58 71.5 88s25.833 64.667 32.5 104c5.33301 32.667 8 70.334 8 113.001v633l211 129
l-2 -781c0 -43.333 0.666992 -76.666 2 -99.999c1.33301 -35.333 5.66602 -68.666 12.999 -99.999c6.66699 -34 16 -60 28 -78c14 -20.667 33.333 -31 58 -31h90zM283.999 -514.003c22 -18 51.335 -29.001 88.002 -33.001c83.333 -8 186 19.333 308 82l-60 -182
c-132 -35.333 -239 -84.666 -321 -147.999c-36 -27.333 -65.333 -56 -88 -86l-2 39c1.33301 78 30.666 142.333 87.999 193c-70 13.333 -105 55.666 -105 126.999c0 32.667 8.33301 68 25 106c16 38.667 38.333 73.667 67 105c26 30 57.667 56 95 78
c35.333 20 72 29.333 110 28c35.333 -2.66699 64.666 -10.667 87.999 -24l-16 -162c-26 10.667 -51.333 16 -76 16s-50 -5.33301 -76 -16c-21.333 -10 -44.333 -25.667 -69 -47c-23.333 -23.333 -42 -48.666 -56 -75.999z" />
    <glyph glyph-name="uniFEFB" unicode="&#xfedf;&#xfe8e;" horiz-adv-x="1060" arabic-form="isolated" 
d="M962 1311l0.000976562 -759.999c0 -44 -2 -90.333 -6 -139c-6.66699 -53.333 -17.667 -102 -33 -146c-20 -53.333 -46 -99 -78 -137c-35.333 -45.333 -81.666 -85 -138.999 -119c-56 -32.667 -130.333 -60 -223 -82c-91.333 -18.667 -199.333 -28 -324 -28l-145 213
c151.333 -10 283.666 -2.66699 396.999 22c18 172 -43.333 409.667 -184 713l-113 252l197 164c14.667 -44 35 -98 61 -162c45.333 -114.667 86.333 -240.334 123 -377.001c70 -255.333 77 -440.333 21 -555c53.333 20.667 95.666 44.667 126.999 72
c28.667 24.667 51.667 54.667 69 90c15.333 30 26.333 64.667 33 104c4 37.333 6 75 6 113v633z" />
    <glyph glyph-name="uniFEFC" unicode="&#xfee0;&#xfe8e;" horiz-adv-x="1099" arabic-form="final" 
d="M1151 221l-0.000976562 -221.003h-185c-21.333 0 -37.666 4.66699 -48.999 14c-13.333 8.66699 -24.333 19.667 -33 33c-9.33301 10.667 -16 25 -20 43c-5.33301 22 -8.66602 38.333 -9.99902 49c-27.333 -35.333 -59.666 -66.666 -96.999 -93.999
c-34 -27.333 -81.667 -53.333 -143 -78c-57.333 -20 -122.666 -36.333 -195.999 -49c-76.667 -12 -163.667 -18 -261 -18l-145 213c155.333 -10 287.666 -2.66699 396.999 22c20.667 168 -40.666 405.667 -183.999 713l-113 252l199 164
c23.333 -57.333 43.666 -111.333 60.999 -162c54.667 -154.667 95 -280.334 121 -377.001c68.667 -254 75 -438.333 19 -553c53.333 20.667 95.666 44.667 126.999 72c32.667 28.667 56.5 58 71.5 88s25.833 64.667 32.5 104c5.33301 32.667 8 70.334 8 113.001v633l211 129
l-2 -781c0 -43.333 0.666992 -76.666 2 -99.999c1.33301 -35.333 5.66602 -68.666 12.999 -99.999c6.66699 -34 16 -60 28 -78c14 -20.667 33.333 -31 58 -31h90z" />
    <glyph glyph-name="uniFB57" unicode="&#x67e;" horiz-adv-x="1673" arabic-form="final" 
d="M1746 221v-221h-1393c-102 0 -180.667 23.5 -236 70.5s-83 114.833 -83 203.5c0 82 20.5 162.333 61.5 241s94.833 148.667 161.5 210l76 -78c-30 -34 -58.667 -76.333 -86 -127c-26 -49.333 -40.333 -95.666 -43 -138.999c-2.66699 -45.333 10.333 -83 39 -113
c27.333 -31.333 78.333 -47 153 -47h1043c-10.667 38.667 -21.667 70 -33 94c-20.667 45.333 -33.667 72.666 -39 81.999l-47 84c-22 34 -39.667 64.667 -53 92l172 199c98 -194 148.333 -377.667 151 -551h156zM528 -326l143 144l146 -144l-146 -145zM700 -574l145 146
l146 -146l-146 -145zM1021 -471l-145 145l145 144l144 -144z" />
    <glyph glyph-name="uniFB58" unicode="&#x67e;" horiz-adv-x="821" arabic-form="initial" 
d="M623 772c101.333 -203.333 152 -389.666 152 -558.999c0 -68 -5.33301 -139 -16 -213h-791v221h653c-9.33301 32.667 -19.333 63.334 -30 92.001c-20.667 45.333 -33.667 72.666 -39 81.999l-47 84c-30 53.333 -48 84.666 -54 93.999zM115 -317l143 144l146 -144
l-146 -145zM287 -565l145 146l146 -146l-146 -145zM608 -462l-145 145l145 144l144 -144z" />
    <glyph glyph-name="uniFB59" unicode="&#x67e;" horiz-adv-x="688" arabic-form="medial" 
d="M751 221l0.000976562 -221.002h-791v221h498c-12.667 38.667 -23.667 69.334 -33 92.001c-16.667 38.667 -29.667 67.334 -39 86.001l-47 84c-32.667 57.333 -50.334 88 -53.001 92l172 199c98 -194 148.333 -378.333 151 -553h142zM87.001 -317.002l143 144l146 -144
l-146 -145zM259.001 -565.002l145 146l146 -146l-146 -145zM580.001 -462.002l-145 145l145 144l144 -144z" />
    <glyph glyph-name="uniFB6B" unicode="&#x6a4;" horiz-adv-x="1882" arabic-form="final" 
d="M1941 221l0.00195312 -221.002h-1584c-30 0 -64.667 5.33301 -104 16c-38 10 -72.833 28 -104.5 54s-57.5 58.667 -77.5 98c-20.667 38 -31 87 -31 147c0 60.667 8.33301 117.334 25 170.001c13.333 53.333 33.666 102.666 60.999 147.999
c27.333 48 56.666 89 87.999 123c31.333 36.667 64 67.334 98 92.001l74 -72c-22 -22 -46 -54 -72 -96c-22.667 -39.333 -41 -79 -55 -119c-14.667 -43.333 -24.334 -84.333 -29.001 -123c-4 -39.333 -0.5 -75.333 10.5 -108s30.833 -58.667 59.5 -78
c28.667 -20.667 68.334 -31 119.001 -31h1225c-11.333 72.667 -21 123.334 -29 152.001c-127.333 -28.667 -226.333 -42.334 -297 -41.001c-74 1.33301 -130.667 9.33301 -170 24c-39.333 14 -64 32.667 -74 56c-12 20 -18 35.667 -18 47c-2.66699 90 6 167.667 26 233
c22 70 48.667 128 80 174c34.667 49.333 71 87 109 113s74 41 108 45c63.333 8 120 -9 170 -51c49.333 -41.333 93 -101.333 131 -180c36 -74 65.667 -162.333 89 -265c20 -91.333 33.333 -193.666 40 -306.999h132zM1201 581.998c52 -48 172.334 -53 361.001 -15
c-54.667 157.333 -116.334 236 -185.001 236c-31.333 0 -58 -11 -80 -33c-26.667 -27.333 -45.667 -51.333 -57 -72c-16 -27.333 -27.667 -52.333 -35 -75c-6.66699 -26 -8 -39.667 -4 -41zM1204 1427l146 -145l-146 -144l-143 144zM1378 1675l146 -145l-146 -146l-145 146z
M1698 1282l-144 -144l-145 144l145 145z" />
    <glyph glyph-name="uniFB6C" unicode="&#x6a4;" horiz-adv-x="1011" arabic-form="initial" 
d="M922 178c0 -86 -1.99805 -145.333 -5.99805 -178h-961v221h799c-4 32.667 -13.667 83.334 -29 152.001c-126.667 -28.667 -225.667 -42.334 -297 -41.001c-74 1.33301 -130.667 9.33301 -170 24c-38 14 -62.667 32.667 -74 56c-12 20 -18 35.667 -18 47
c-2.66699 88.667 6.33301 165.667 27 231c20 67.333 46.333 125.333 79 174c34.667 49.333 71 87 109 113c40.667 27.333 77 43 109 47c66.667 8 125.167 -11.167 175.5 -57.5s94.166 -109.833 131.499 -190.5c35.333 -79.333 64.666 -172 87.999 -278
c20.667 -105.333 33 -212 37 -320zM311.002 582c10 -10 24.9971 -18.333 44.9971 -25c19.333 -6.66699 42.666 -10.667 69.999 -12c32.667 -2.66699 67.334 -2 104.001 2c30.667 1.33301 77.334 8 140.001 20c-53.333 157.333 -114.333 236 -183 236
c-31.333 0 -57.666 -11 -78.999 -33c-27.333 -27.333 -46.666 -51.333 -57.999 -72c-16 -27.333 -27.667 -52.333 -35 -75c-6.66699 -26 -8 -39.667 -4 -41zM303.999 1446l146 -145l-146 -144l-143 144zM477.999 1694l146 -145l-146 -146l-145 146zM797.999 1301l-144 -144
l-145 144l145 145z" />
    <glyph glyph-name="uniFB6D" unicode="&#x6a4;" horiz-adv-x="1009" arabic-form="medial" 
d="M1055 221l0.000976562 -221.001h-1102v221h793c-4.66699 32.667 -14.334 83.334 -29.001 152.001c-127.333 -28.667 -226.333 -42.334 -297 -41.001c-74 1.33301 -130.667 9.33301 -170 24c-38 14 -62.667 32.667 -74 56c-12 20 -18 35.667 -18 47
c-2.66699 88.667 6 165.667 26 231c22 70 48.667 128 80 174c34 49.333 70.333 87 109 113c40.667 27.333 76.667 43 108 47c63.333 8 120 -9 170 -51c49.333 -41.333 93 -101.333 131 -180c36 -74 65.667 -162.333 89 -265c20 -91.333 33.333 -193.666 40 -306.999h144z
M303.001 581.999c10 -10 25.001 -18.333 45.001 -25c19.333 -6.66699 42.666 -10.667 69.999 -12c32.667 -2.66699 67.334 -2 104.001 2c28.667 1.33301 76 8 142 20c-54.667 157.333 -116.334 236 -185.001 236c-31.333 0 -58 -11 -80 -33
c-26.667 -27.333 -45.667 -51.333 -57 -72c-16 -27.333 -27.667 -52.333 -35 -75c-6.66699 -26 -8 -39.667 -4 -41zM304.002 1447l146 -145l-146 -144l-143 144zM478.002 1695l146 -145l-146 -146l-145 146zM798.002 1302l-144 -144l-145 144l145 145z" />
    <glyph glyph-name="uniFB7B" unicode="&#x686;" horiz-adv-x="1187" arabic-form="final" 
d="M632 375c-48 -38.667 -95.833 -87.335 -143.5 -146.002s-84.5 -118.667 -110.5 -180c-30 -65.333 -45.667 -128 -47 -188c-2.66699 -64.667 14.333 -122.667 51 -174c27.333 -40 64.333 -71.667 111 -95c42 -21.333 89.667 -35.666 143 -42.999c30 -4 82.667 -6 158 -6
c53.333 4 102.333 10.333 147 19c64.667 14.667 103 24 115 28c35.333 12.667 55 20.334 59 23.001l-86 -277c-28.667 -9.33301 -57.334 -16.666 -86.001 -21.999c-48.667 -8 -82.667 -13.333 -102 -16c-48 -6 -80.667 -9.66699 -98 -11c-41.333 -2.66699 -67.333 -4 -78 -4
c-104 -2.66699 -190 10.333 -258 39c-70 28.667 -126 66.334 -168 113.001c-41.333 43.333 -71.333 97.333 -90 162c-18 58.667 -28.333 120 -31 184c-1.33301 46 5.33398 100 20.001 162c14 53.333 39.333 112.666 76 177.999c34 61.333 81.333 122.666 142 183.999
c54 57.333 125 117.333 213 180c-104 23.333 -169 37 -195 41c-102.667 10 -175 -5 -217 -45l-47 -45l-35 27l88 143c32.667 53.333 65 89.833 97 109.5s74 29.5 126 29.5c20.667 0 56.334 -3.33301 107.001 -10l143 -28c78 -15.333 130.667 -26.333 158 -33
c61.333 -14 111 -23.667 149 -29c40 -6.66699 79.667 -11.334 119 -14.001c32.667 -2.66699 54.667 1.33301 66 12l-64 -166c-6.66699 -18.667 -20.334 -32.334 -41.001 -41.001c-20 -9.33301 -46 -14 -78 -14c-31.333 -1.33301 -64 0.666992 -98 6
c-38 4 -76.333 10 -115 18l2 -2l-2 -2c4.66699 -27.333 13 -54.666 25 -81.999s29.667 -51.166 53 -71.499s50.666 -36.5 81.999 -48.5c30 -12.667 67.667 -19 113 -19h244v-221h-308c-57.333 0 -103.666 9 -138.999 27c-39.333 18.667 -70 43.667 -92 75
c-26 34.667 -43.667 74.334 -53 119.001c-12.667 45.333 -21 96.666 -25 153.999zM433 -124.001l101 102l104 -102l-104 -103zM555 -300.001l103 103l103 -103l-103 -103zM783 -227.001l-103 103l103 102l102 -102z" />
    <glyph glyph-name="uniFB7C" unicode="&#x686;" horiz-adv-x="1333" arabic-form="initial" 
d="M1266 221l-65.998 -221h-1245l-2 221h965c-67.333 116 -139 208.333 -215 277c-20.667 17.333 -47.334 35.666 -80.001 54.999c-36 19.333 -73 31.666 -111 36.999c-40.667 6.66699 -83 4.66699 -127 -6c-48 -11.333 -91 -33.333 -129 -66l-45 45
c40.667 41.333 77.667 76.333 111 105c30 27.333 59.333 51 88 71c24.667 16.667 50.667 30.334 78 41.001c24 8.66699 50.333 13 79 13c127.333 0 236.666 -67 327.999 -201c56 -83.333 115.333 -183.666 178 -300.999c24.667 -46.667 61 -70 109 -70h84zM303.002 -354
l143 144l146 -144l-146 -145zM475.002 -602l145 146l146 -146l-146 -145zM796.002 -499l-145 145l145 144l144 -144z" />
    <glyph glyph-name="uniFB7D" unicode="&#x686;" horiz-adv-x="1124" arabic-form="medial" 
d="M1182 221v-221h-1241v221h877c-72.667 124.667 -144.334 219 -215.001 283c-20.667 18.667 -47.334 37 -80.001 55c-34.667 18 -71.667 30.333 -111 37c-40.667 6.66699 -83 4.66699 -127 -6c-46.667 -11.333 -89 -33.333 -127 -66l-47 39
c40.667 41.333 77.667 76.333 111 105c30 27.333 59.333 51 88 71c20 14 45.667 27.667 77 41c24.667 8.66699 51.334 13 80.001 13c127.333 0 237.333 -67 330 -201c50.667 -74 109.334 -174.333 176.001 -301c24.667 -46.667 61 -70 109 -70h100zM152 -344l143 144
l146 -144l-146 -145zM324 -592l145 146l146 -146l-146 -145zM645 -489l-145 145l145 144l144 -144z" />
    <glyph glyph-name="uniFB8B" unicode="&#x698;" horiz-adv-x="673" arabic-form="final" 
d="M719 0l-186.998 -0.00292969c-4 -46.667 -12 -95.667 -24 -147c-11.333 -46.667 -29 -98.667 -53 -156c-22 -49.333 -52.333 -104.666 -91 -165.999c-36.667 -57.333 -81.667 -116.666 -135 -177.999l-227 192c65.333 42.667 118.666 86.334 159.999 131.001
c44.667 49.333 81.334 98 110.001 146c26 46 49.333 98.667 70 158c14.667 46 28.334 101 41.001 165c-6.66699 36 -16.334 74.333 -29.001 115c-10.667 30 -24.334 64 -41.001 102c-5.33301 14 -22.333 47.667 -51 101c-14.667 26 -36.334 60.667 -65.001 104l163 217
c98.667 -192 156.667 -379.667 174 -563h185v-221zM13.002 1174l146 -145l-146 -144l-143 144zM187.002 1422l146 -145l-146 -146l-145 146zM507.002 1029l-144 -144l-145 144l145 145z" />
    <glyph glyph-name="uniFB8F" unicode="&#x6a9;" horiz-adv-x="1765" arabic-form="final" 
d="M355 0c-31.333 0 -66.667 5.33008 -106 15.9971c-34 10 -67.333 28 -100 54c-32 26 -58 58.667 -78 98c-20.667 40.667 -31 90.334 -31 149.001c0 62 8.33301 118 25 168c14.667 50.667 35 98 61 142c24.667 43.333 53.334 82 86.001 116
c28.667 33.333 61.334 62.666 98.001 87.999l19 -71c-27.333 -27.333 -50 -58.666 -68 -93.999c-18.667 -37.333 -33.667 -76.333 -45 -117c-10.667 -44 -15.334 -83 -14.001 -117c0 -38 7.33301 -73.333 22 -106c15.333 -31.333 38.666 -56.666 69.999 -75.999
s72.333 -29 123 -29h1047c-32.667 98.667 -89 173.834 -169 225.501s-191 85.167 -333 100.5c-60 5.33301 -111.667 8 -155 8v211c0 34 4.66699 63.333 14 88c8 24.667 19.667 46.667 35 66c12 16 29 32.333 51 49l55 41l467 290c57.333 34.667 102.833 46.5 136.5 35.5
s50.5 -39.833 50.5 -86.5v-178c-22 46.667 -74.667 44.667 -158 -6l-473 -297c110.667 -12 209 -34 295 -66c82 -32.667 153.667 -72.667 215 -120c57.333 -46.667 104.333 -100.667 141 -162c37.333 -64 63.333 -130.333 78 -199h92v-221h-1451z" />
    <glyph glyph-name="uniFB90" unicode="&#x6a9;" horiz-adv-x="1093" arabic-form="initial" 
d="M310 768c138 -13.333 256.333 -43.332 355 -89.999c95.333 -46.667 172.333 -103.334 231 -170.001c57.333 -64 99.666 -141.333 126.999 -232c26 -86 39 -178 39 -276h-1102v221h827c-32.667 98.667 -88.5 173.834 -167.5 225.501s-190.167 85.167 -333.5 100.5
c-58.667 5.33301 -110.667 8 -156 8v211c0 34 4.66699 63.333 14 88c8.66699 24.667 20.334 46.667 35.001 66c12.667 16 29.667 32.333 51 49l58 41l465 290c57.333 36 103 48.167 137 36.5s51 -40.834 51 -87.501v-178c-26 45.333 -78.667 43.333 -158 -6z" />
    <glyph glyph-name="uniFB91" unicode="&#x6a9;" horiz-adv-x="1069" arabic-form="medial" 
d="M1116 221v-221.001h-1161v221h819c-32.667 98.667 -89 173.834 -169 225.501s-191 85.167 -333 100.5c-60 5.33301 -111.667 8 -155 8v211c0 34 4.66699 63.333 14 88c8 24.667 19.667 46.667 35 66c12 16 29 32.333 51 49l55 41l467 290
c57.333 34.667 102.833 46.5 136.5 35.5s50.5 -39.833 50.5 -86.5v-178c-22 46.667 -74.667 44.667 -158 -6l-473 -297c110.667 -12 209 -34 295 -66c82 -32.667 153.667 -72.667 215 -120c57.333 -46.667 104.333 -100.667 141 -162c37.333 -64 63.333 -130.333 78 -199h92
z" />
    <glyph glyph-name="uniFB93" unicode="&#x6af;" horiz-adv-x="1765" arabic-form="final" 
d="M355 0c-31.333 0 -66.667 5.33008 -106 15.9971c-34 10 -67.333 28 -100 54c-32 26 -58 58.667 -78 98c-20.667 40.667 -31 90.334 -31 149.001c0 62 8.33301 118 25 168c14.667 50.667 35 98 61 142c24.667 43.333 53.334 82 86.001 116
c28.667 33.333 61.334 62.666 98.001 87.999l19 -71c-27.333 -27.333 -50 -58.666 -68 -93.999c-18.667 -37.333 -33.667 -76.333 -45 -117c-10.667 -44 -15.334 -83 -14.001 -117c0 -38 7.33301 -73.333 22 -106c15.333 -31.333 38.666 -56.666 69.999 -75.999
s72.333 -29 123 -29h1047c-32.667 98.667 -89 173.834 -169 225.501s-191 85.167 -333 100.5c-60 5.33301 -111.667 8 -155 8v211c0 34 4.66699 63.333 14 88c8 24.667 19.667 46.667 35 66c12 16 29 32.333 51 49l55 41l467 290c57.333 34.667 102.833 46.5 136.5 35.5
s50.5 -39.833 50.5 -86.5v-178c-22 46.667 -74.667 44.667 -158 -6l-473 -297c110.667 -12 209 -34 295 -66c82 -32.667 153.667 -72.667 215 -120c57.333 -46.667 104.333 -100.667 141 -162c37.333 -64 63.333 -130.333 78 -199h92v-221h-1451zM1482 1455l-31 54l-42 8
l-645 -381l11 -57l12 -27z" />
    <glyph glyph-name="uniFB94" unicode="&#x6af;" horiz-adv-x="1093" arabic-form="initial" 
d="M310 768c138 -13.333 256.333 -43.332 355 -89.999c95.333 -46.667 172.333 -103.334 231 -170.001c57.333 -64 99.666 -141.333 126.999 -232c26 -86 39 -178 39 -276h-1102v221h827c-32.667 98.667 -88.5 173.834 -167.5 225.501s-190.167 85.167 -333.5 100.5
c-58.667 5.33301 -110.667 8 -156 8v211c0 34 4.66699 63.333 14 88c8.66699 24.667 20.334 46.667 35.001 66c12.667 16 29.667 32.333 51 49l58 41l465 290c57.333 36 103 48.167 137 36.5s51 -40.834 51 -87.501v-178c-26 45.333 -78.667 43.333 -158 -6zM788 1436
l-31 54l-42 8l-645 -381l11 -57l12 -27z" />
    <glyph glyph-name="uniFB95" unicode="&#x6af;" horiz-adv-x="1069" arabic-form="medial" 
d="M1116 221v-221.001h-1161v221h819c-32.667 98.667 -89 173.834 -169 225.501s-191 85.167 -333 100.5c-60 5.33301 -111.667 8 -155 8v211c0 34 4.66699 63.333 14 88c8 24.667 19.667 46.667 35 66c12 16 29 32.333 51 49l55 41l467 290
c57.333 34.667 102.833 46.5 136.5 35.5s50.5 -39.833 50.5 -86.5v-178c-22 46.667 -74.667 44.667 -158 -6l-473 -297c110.667 -12 209 -34 295 -66c82 -32.667 153.667 -72.667 215 -120c57.333 -46.667 104.333 -100.667 141 -162c37.333 -64 63.333 -130.333 78 -199h92
zM788 1436l-31 54l-42 8l-645 -381l11 -57l12 -27z" />
    <glyph glyph-name="uniFBAB" unicode="&#x6be;" horiz-adv-x="1349" arabic-form="final" 
d="M1416 0h-196.999c-16 -52 -41.667 -116.333 -77 -193c-1.33301 2 -3.66602 3 -6.99902 3c2 0 3.66699 -1 5 -3c-16.667 16.667 -30.334 32.667 -41.001 48c-15.333 17.333 -41.333 39 -78 65c-35.333 23.333 -78.333 41.666 -129 54.999
c-53.333 16.667 -120.333 25 -201 25h-727v221h297c-42.667 40 -64 92.667 -64 158c0 31.333 5.66699 65.333 17 102c10.667 32.667 27 63.334 49 92.001c22 27.333 48.667 52.666 80 75.999c28.667 19.333 64.667 34.333 108 45c-74.667 50.667 -117 120.334 -127 209.001
l111 47c0 -34 15.667 -60.667 47 -80c31.333 -20 71 -38.333 119 -55c48 -16 101.333 -32.333 160 -49c57.333 -18 115.333 -40.667 174 -68c56 -27.333 109 -63.333 159 -108c49.333 -44 87.666 -100 114.999 -168c26 -64 39 -131 39 -201h168v-221zM636.001 455
l-0.00195312 26.001c0 14 -2 29 -6 45c-7.33301 16.667 -15.666 30.334 -24.999 41.001c-10.667 11.333 -26.334 17 -47.001 17c-27.333 0 -50.666 -5 -69.999 -15c-21.333 -9.33301 -39.666 -23 -54.999 -41c-18 -18.667 -30.333 -38.334 -37 -59.001
c-8 -23.333 -12 -46.5 -12 -69.5s3.33301 -44.833 10 -65.5c5.33301 -16.667 14.333 -32.334 27 -47.001c9.33301 -12.667 20 -21.667 32 -27c12.667 -6.66699 23.667 -10.667 33 -12c38.667 -2.66699 71.667 13 99 47s44.333 87.333 51 160zM1027 135.001
c9.33301 52 9.33301 101.332 0 147.999c-9.33301 43.333 -27 87 -53 131c-23.333 39.333 -53.333 76 -90 110c-34.667 32.667 -71.667 59.334 -111 80.001c45.333 -60 61 -127.667 47 -203c-18 -86 -48 -146 -90 -180c121.333 0 220.333 -28.667 297 -86z" />
    <glyph glyph-name="uniFBDA" unicode="&#x6c6;" horiz-adv-x="813" arabic-form="final" 
d="M868 0h-152.002c-10.667 -116 -35 -217.667 -73 -305c-45.333 -102.667 -120.666 -216.667 -225.999 -342l-229 192c177.333 117.333 294 268.333 350 453c-64 2.66699 -111.667 5.33398 -143 8.00098c-52 1.33301 -103.333 9 -154 23
c-44.667 9.33301 -85.667 25 -123 47c-35.333 20 -53.666 47.333 -54.999 82l-2 43c0 56 6.66699 116 20 180c15.333 69.333 36.666 132.666 63.999 189.999c26 58.667 60 110 102 154c40 40.667 86.667 61 140 61c44.667 0 86.334 -15 125.001 -45
c35.333 -30 68 -71.667 98 -125c27.333 -50 50.333 -110.667 69 -182c18 -66.667 30.333 -137.667 37 -213h152v-221zM193.998 309c0 -17.333 11.667 -31.6709 35 -43.0039c22 -9.33301 52 -17.333 90 -24c45.333 -8.66699 85 -13.667 119 -15c40.667 -4 83 -6 127 -6
c-6.66699 50.667 -15.667 93 -27 127c-14.667 42.667 -30.334 76.334 -47.001 101.001c-19.333 28.667 -39.666 50.334 -60.999 65.001c-22 16.667 -45.333 25 -70 25c-26 0 -48.667 -9 -68 -27c-20 -18 -37 -39 -51 -63c-16 -27.333 -27.667 -52.666 -35 -75.999
c-8 -27.333 -12 -48.666 -12 -63.999zM609.998 1292c-10.667 -4 -21.668 -11.3359 -33.001 -22.0029l-9 -9l-12 -11l-13 -14l-56 -95l-27 -65l-20 -48l-17 -48l-11 -37c-2.66699 -10 -7.66699 -15 -15 -15l-4 3l-10 10c-6 20.667 -19 52.334 -39 95.001
c-23.333 57.333 -46.333 100 -69 128c-30 52 -56.333 85 -79 99c-5.33301 4.66699 -11.666 9.33398 -18.999 14.001c-6.66699 4.66699 -12.667 8.33398 -18 11.001c0 11.333 4.5 36.666 13.5 75.999s16.833 62.333 23.5 69c12.667 -4 33.667 -14.667 63 -32
c10.667 -10.667 21 -21.667 31 -33l26 -34l39 -74l32 -81l21 66l16 41l5 13l6 12l8 12c14 20.667 34 46.667 60 78c8.66699 8.66699 19 15.334 31 20.001l34 14l17 -43z" />
    <glyph glyph-name="uniFBFD" unicode="&#x6cc;" horiz-adv-x="1409" arabic-form="final" 
d="M1460 221l0.000976562 -221.001h-182c22 -22 33 -47.333 33 -76c0 -30 -15.667 -69 -47 -117c-30 -46 -76.667 -91 -140 -135c-61.333 -40.667 -138.333 -76.667 -231 -108c-91.333 -28.667 -197.333 -41 -318 -37c-94 4 -175 18.333 -243 43
c-67.333 24.667 -122.666 56.667 -165.999 96c-42.667 38.667 -73.334 84.334 -92.001 137.001c-19.333 54.667 -28.333 110 -27 166c2.66699 160 64.667 318.333 186 475l33 -41c-23.333 -47.333 -39.666 -95.666 -48.999 -144.999
c-9.33301 -50.667 -13.333 -100.334 -12 -149.001c2.66699 -52 12 -98.667 28 -140c19.333 -43.333 45.333 -80.666 78 -111.999c75.333 -75.333 193.666 -114.333 354.999 -117c60 0 118 6 174 18c61.333 16.667 108.333 32.334 141 47.001
c40.667 18 73.334 38.667 98.001 62c23.333 23.333 35 43.666 35 60.999c0 26 -12 50 -36 72s-60.333 46.667 -109 74c-62 34 -105.833 68 -131.5 102s-42.167 70.333 -49.5 109c-6.66699 36.667 -4.33398 72.667 6.99902 108c13.333 46.667 24.666 80.334 33.999 101.001
c11.333 -22 24.333 -43.333 39 -64c37.333 -46.667 86 -86.334 146 -119.001c14.667 -8 46 -23 94 -45c22 -10.667 49.333 -19.334 82 -26.001c34 -8.66699 64 -13.667 90 -15c40.667 -2.66699 79 -4 115 -4h65z" />
    <glyph glyph-name="uniFBFE" unicode="&#x6cc;" horiz-adv-x="839" arabic-form="initial" 
d="M220 -172l145 -145l-145 -146l-143 146zM687 -317l-146 -146l-143 146l143 145zM615 772c101.333 -203.333 151.999 -389.667 151.999 -559c0 -68 -5.66699 -139 -17 -213h-782v221h645c-9.33301 32.667 -19.666 63.334 -30.999 92.001c-20 45.333 -33 72.666 -39 81.999
l-47 84l-53 94z" />
    <glyph glyph-name="uniFBFF" unicode="&#x6cc;" horiz-adv-x="694" arabic-form="medial" 
d="M566 -172l146 -145l-146 -146l-145 146zM253 -172l145 -145l-145 -146l-146 146zM734 221v-221.002h-774v221h516c-12 38.667 -23 69.334 -33 92.001c-16 38.667 -29 67.334 -39 86.001l-47 84c-32.667 57.333 -50.334 88 -53.001 92l172 199
c98.667 -194 149.334 -378.333 152.001 -553h106z" />
    <glyph glyph-name="uniFE80" unicode="&#x621;" horiz-adv-x="737" arabic-form="isolated" 
d="M143 240c28.667 -20.667 67.3359 -34.3311 116.003 -40.998c109.333 -11.333 244.666 24.667 405.999 108l-78 -239c-170.667 -46.667 -311.334 -111.667 -422.001 -195c-50.667 -38 -88.667 -75 -114 -111l-5 48c2 99.333 40.333 183.666 115 252.999
c-90 15.333 -135 71.333 -135 168c0 45.333 11 92.666 33 141.999c23.333 48.667 52.666 94.167 87.999 136.5s76.333 76.5 123 102.5c44.667 26 93 37.667 145 35c48 -2.66699 87.667 -13 119 -31l-23 -213c-34 15.333 -68 23 -102 23
c-35.333 0 -68.666 -6.66699 -99.999 -20c-31.333 -12.667 -63 -34 -95 -64c-28.667 -28.667 -52.334 -62.667 -71.001 -102z" />
    <glyph glyph-name="uniFE82" unicode="&#x622;" horiz-adv-x="493" arabic-form="final" 
d="M315 221h238v-221h-449v1180l211 131v-1090zM650 1733c-9.33301 -52 -15.001 -84.002 -17.001 -96.002c-5.33301 -30 -14 -56 -26 -78c-16.667 -26 -36.667 -45 -60 -57c-28.667 -15.333 -66 -27 -112 -35l-422 -64c-52 -8 -88.833 -19.5 -110.5 -34.5
s-35.5 -38.167 -41.5 -69.5c-4 -18 -7.33301 -18.667 -10 -2c-4 16 -4.66699 36.333 -2 61c2.66699 31.333 6.66699 59.333 12 84c6 23.333 17 45.333 33 66c18 20.667 39.333 36.334 64 47.001c28.667 13.333 61.334 23 98.001 29l414 65
c57.333 12.667 96.5 25.334 117.5 38.001s32.833 35 35.5 67z" />
    <glyph glyph-name="uniFE84" unicode="&#x623;" horiz-adv-x="493" arabic-form="final" 
d="M316 221h237v-221h-448v1180l211 131v-1090zM25 1567c22 -18 51.335 -29.001 88.002 -33.001c83.333 -8 185.666 19.333 306.999 82l-59 -182c-132.667 -35.333 -240 -84.666 -322 -147.999c-35.333 -27.333 -64.666 -56 -87.999 -86l-2 39
c1.33301 78 30.666 142.333 87.999 193c-69.333 13.333 -104 55.666 -104 126.999c0 32.667 8.33301 68 25 106c16 38.667 38.333 73.667 67 105c26 30 57.333 56 94 78c36 20 73 29.333 111 28c35.333 -2.66699 64.666 -10.667 87.999 -24l-16 -162
c-26 10.667 -51.333 16 -76 16s-50 -5.33301 -76 -16c-22 -10 -45.333 -25.667 -70 -47c-22.667 -23.333 -41 -48.666 -55 -75.999z" />
    <glyph glyph-name="uniFE86" unicode="&#x624;" horiz-adv-x="813" arabic-form="final" 
d="M868 0h-152.002c-10.667 -116 -35 -217.667 -73 -305c-45.333 -102.667 -120.666 -216.667 -225.999 -342l-229 192c177.333 117.333 294 268.333 350 453c-64 2.66699 -111.667 5.33398 -143 8.00098c-52 1.33301 -103.333 9 -154 23
c-44.667 9.33301 -85.667 25 -123 47c-35.333 20 -53.666 47.333 -54.999 82l-2 43c0 56 6.66699 116 20 180c15.333 69.333 36.666 132.666 63.999 189.999c26 58.667 60 110 102 154c40 40.667 86.667 61 140 61c44.667 0 86.334 -15 125.001 -45
c35.333 -30 68 -71.667 98 -125c27.333 -50 50.333 -110.667 69 -182c18 -66.667 30.333 -137.667 37 -213h152v-221zM193.998 309c0 -17.333 11.667 -31.6709 35 -43.0039c22 -9.33301 52 -17.333 90 -24c45.333 -8.66699 85 -13.667 119 -15c40.667 -4 83 -6 127 -6
c-6.66699 50.667 -15.667 93 -27 127c-14.667 42.667 -30.334 76.334 -47.001 101.001c-19.333 28.667 -39.666 50.334 -60.999 65.001c-22 16.667 -45.333 25 -70 25c-26 0 -48.667 -9 -68 -27c-20 -18 -37 -39 -51 -63c-16 -27.333 -27.667 -52.666 -35 -75.999
c-8 -27.333 -12 -48.666 -12 -63.999zM193.998 1167c22 -18 51.335 -29.001 88.002 -33.001c83.333 -8 185.666 19.333 306.999 82l-59 -182c-132.667 -35.333 -239.667 -84.666 -321 -147.999c-36 -27.333 -65.333 -56 -88 -86l-3 39c2 78 31.667 142.333 89 193
c-70 13.333 -105 55.666 -105 126.999c0 32.667 8.33301 68 25 106c16 38.667 38.333 73.667 67 105c26 30 57.333 56 94 78c36 20 73 29.333 111 28c35.333 -2.66699 64.666 -10.667 87.999 -24l-16 -162c-26 10.667 -51.333 16 -76 16s-50 -5.33301 -76 -16
c-22 -10 -45 -25.667 -69 -47c-23.333 -23.333 -42 -48.666 -56 -75.999z" />
    <glyph glyph-name="uniFE88" unicode="&#x625;" horiz-adv-x="493" arabic-form="final" 
d="M316 221h237v-221h-448v1180l211 131v-1090zM115 -514c22 -18 51.335 -29.001 88.002 -33.001c83.333 -8 185.666 19.333 306.999 82l-59 -182c-132.667 -35.333 -240 -84.666 -322 -147.999c-35.333 -27.333 -64.666 -56 -87.999 -86l-2 39
c1.33301 78 30.666 142.333 87.999 193c-69.333 13.333 -104 55.666 -104 126.999c0 32.667 8.33301 68 25 106c16 38.667 38.333 73.667 67 105c26 30 57.333 56 94 78c36 20 73 29.333 111 28c35.333 -2.66699 64.666 -10.667 87.999 -24l-16 -162
c-26 10.667 -51.333 16 -76 16s-50 -5.33301 -76 -16c-22 -10 -45.333 -25.667 -70 -47c-22.667 -23.333 -41 -48.666 -55 -75.999z" />
    <glyph glyph-name="uniFE8A" unicode="&#x626;" horiz-adv-x="1409" arabic-form="final" 
d="M1460 221v-221.001h-182c22 -22 33 -47.333 33 -76c0 -30 -15.667 -69 -47 -117c-30 -46 -76.667 -91 -140 -135c-61.333 -40.667 -138.333 -76.667 -231 -108c-91.333 -28.667 -197 -41 -317 -37c-94.667 4 -176 18.333 -244 43c-66.667 24.667 -122 56.667 -166 96
c-42.667 38.667 -73.334 84.334 -92.001 137.001c-19.333 54.667 -28.333 110 -27 166c2.66699 160 65 318.333 187 475l32 -41c-22.667 -47.333 -39 -95.666 -49 -144.999c-9.33301 -50.667 -13.333 -100.334 -12 -149.001c2.66699 -52 12.334 -98.667 29.001 -140
c18.667 -43.333 44.334 -80.666 77.001 -111.999c75.333 -75.333 193.666 -114.333 354.999 -117c60 0 118 6 174 18c61.333 16.667 108.333 32.334 141 47.001c41.333 18 74 38.667 98 62c23.333 23.333 35 43.666 35 60.999c0 26 -11.833 50 -35.5 72
s-60.167 46.667 -109.5 74c-61.333 34 -105 68 -131 102s-42.333 70.333 -49 109c-7.33301 36.667 -5.33301 72.667 6 108c13.333 46.667 25 80.334 35 101.001c10.667 -22 23.334 -43.333 38.001 -64c37.333 -46.667 86 -86.334 146 -119.001c14.667 -8 46 -23 94 -45
c22 -10.667 49.333 -19.334 82 -26.001c34 -8.66699 64 -13.667 90 -15c41.333 -2.66699 79.666 -4 114.999 -4h65zM131 966.999c22 -18 51.335 -29.001 88.002 -33.001c83.333 -8 185.666 19.333 306.999 82l-59 -182c-132.667 -36 -240 -85.333 -322 -148
c-35.333 -27.333 -64.666 -56 -87.999 -86l-2 39c1.33301 78 30.666 142 87.999 192c-69.333 14 -104 56.333 -104 127c0 33.333 8.33301 69 25 107c16 38 38.333 72.667 67 104c26 30 57.333 56 94 78c36 20.667 73 30.334 111 29.001
c35.333 -2.66699 64.666 -11 87.999 -25l-16 -161c-26 10.667 -51.333 16 -76 16s-50 -5.33301 -76 -16c-22 -10 -45.333 -26 -70 -48c-22.667 -22.667 -41 -47.667 -55 -75z" />
    <glyph glyph-name="uniFE8B" unicode="&#x626;" horiz-adv-x="897" arabic-form="initial" 
d="M292 1083c21.333 -17.333 50.667 -28 88 -32c83.333 -8.66699 185.666 18.666 306.999 81.999l-60 -183c-129.333 -34 -236.333 -82.333 -321 -145c-35.333 -26 -64.666 -54.667 -87.999 -86l-2 37c1.33301 73.333 30 138 86 194c-68.667 10 -103 51.667 -103 125
c0 34 8.33301 70.333 25 109c16.667 38 39.334 72.667 68.001 104c25.333 30 56.666 56 93.999 78c34 20.667 70.667 29.667 110 27c31.333 0 60.666 -7.66699 87.999 -23l-16 -164c-24.667 12.667 -50 19 -76 19c-26 -1.33301 -51 -7.66602 -75 -18.999
c-22 -9.33301 -45.333 -25 -70 -47c-23.333 -20.667 -41.666 -46 -54.999 -76zM677.001 772c100.667 -203.333 151 -389.667 151 -559c0 -68 -5.33301 -139 -16 -213h-844v221h707c-10 32.667 -20.333 63.334 -31 92.001c-20.667 45.333 -33.667 72.666 -39 81.999l-47 84
l-53 94z" />
    <glyph glyph-name="uniFE8C" unicode="&#x626;" horiz-adv-x="835" arabic-form="medial" 
d="M263 1122c22 -17.333 50.668 -28.002 86.001 -32.002c84.667 -8.66699 187.667 18.333 309 81l-59 -182c-132.667 -35.333 -240 -84.333 -322 -147c-35.333 -27.333 -64.666 -56 -87.999 -86l-2 39c1.33301 77.333 30.666 142 87.999 194
c-69.333 10 -104 51.667 -104 125c0 32.667 8.33301 69 25 109c16 36.667 38.333 71.334 67 104.001c26 30 57.333 56 94 78c37.333 19.333 74.333 28.333 111 27c35.333 -3.33301 64.666 -11.666 87.999 -24.999l-16 -162c-26 11.333 -51.333 17 -76 17
s-50 -5.66699 -76 -17c-22 -9.33301 -45.333 -25 -70 -47c-22.667 -20.667 -41 -46 -55 -76zM890.001 220.998l0.000976562 -221.002h-930v221h672c-12.667 38.667 -23.667 69.334 -33 92.001c-16.667 38.667 -29.667 67.334 -39 86.001l-47 84
c-32.667 57.333 -50.334 88 -53.001 92l172 199c98 -194 148.333 -378.333 151 -553h107z" />
    <glyph glyph-name="uniFE8E" unicode="&#x627;" horiz-adv-x="493" arabic-form="final" 
d="M315 221h238v-221h-449v1180l211 131v-1090z" />
    <glyph glyph-name="uniFE90" unicode="&#x628;" horiz-adv-x="1673" arabic-form="final" 
d="M845 -172l143 -145l-143 -146l-145 146zM1746 221v-221h-1393c-102 0 -180.667 23.5 -236 70.5s-83 114.833 -83 203.5c0 82 20.5 162.333 61.5 241s94.833 148.667 161.5 210l76 -78c-30 -34 -58.667 -76.333 -86 -127c-26 -49.333 -40.333 -95.666 -43 -138.999
c-2.66699 -45.333 10.333 -83 39 -113c27.333 -31.333 78.333 -47 153 -47h1043c-10.667 38.667 -21.667 70 -33 94c-20.667 45.333 -33.667 72.666 -39 81.999l-47 84c-22 34 -39.667 64.667 -53 92l172 199c98 -194 148.333 -377.667 151 -551h156z" />
    <glyph glyph-name="uniFE91" unicode="&#x628;" horiz-adv-x="821" arabic-form="initial" 
d="M435 -172l145 -145l-145 -146l-143 146zM623 772c101.333 -203.333 152 -389.666 152 -558.999c0 -68 -5.33301 -139 -16 -213h-791v221h653c-9.33301 32.667 -19.333 63.334 -30 92.001c-20.667 45.333 -33.667 72.666 -39 81.999l-47 84
c-30 53.333 -48 84.666 -54 93.999z" />
    <glyph glyph-name="uniFE92" unicode="&#x628;" horiz-adv-x="688" arabic-form="medial" 
d="M751 221l0.000976562 -221.002h-791v221h498c-12.667 38.667 -23.667 69.334 -33 92.001c-16.667 38.667 -29.667 67.334 -39 86.001l-47 84c-32.667 57.333 -50.334 88 -53.001 92l172 199c98 -194 148.333 -378.333 151 -553h142zM398.001 -172.002l146 -145l-146 -146
l-143 146z" />
    <glyph glyph-name="uniFE94" unicode="&#x629;" horiz-adv-x="991" arabic-form="final" 
d="M1073 221l0.000976562 -221.002h-383c-5.33301 44 -13.333 90.333 -24 139l-82 -155c-12.667 8 -31.334 15.333 -56.001 22c-31.333 5.33301 -53 8.66602 -65 9.99902c-30 2.66699 -53.333 4 -70 4h-63h-279c-4 36 0 100.333 12 193
c7.33301 40.667 18.333 80.334 33 119.001c18 46 39.333 89 64 129c20 36.667 48 78.334 84 125.001c30 39.333 63.333 75.333 100 108c34 31.333 68.667 56 104 74c36 19.333 70.333 29 103 29c36.667 0 69.334 -19.333 98.001 -58
c27.333 -35.333 52.666 -83.666 75.999 -144.999c22 -57.333 41 -120 57 -188c24.667 -119.333 37.667 -181 39 -185h252zM393.001 249.998c91.333 0 158.333 -7.66992 201 -23.0029c23.333 -5.33301 43 -12.666 59 -21.999c-12 50.667 -23 92.334 -33 125.001
c-22.667 62.667 -36 98.667 -40 108c-14 30 -30 56 -48 78c-18.667 19.333 -37 29 -55 29c-22 0 -43.667 -6.33301 -65 -19c-26 -14.667 -50.667 -33.667 -74 -57c-26 -26 -50 -56.667 -72 -92s-42.333 -77.666 -61 -126.999h188zM299.001 1202l143 -145l-143 -144l-145 144
zM793.001 1057l-146 -144l-145 144l145 145z" />
    <glyph glyph-name="uniFE96" unicode="&#x62a;" horiz-adv-x="1673" arabic-form="final" 
d="M671 1118l145 -145l-145 -144l-143 144zM1164 973l-143 -144l-145 144l145 145zM1746 221v-221h-1393c-102 0 -180.667 23.5 -236 70.5s-83 114.833 -83 203.5c0 82 20.5 162.333 61.5 241s94.833 148.667 161.5 210l76 -78c-30 -34 -58.667 -76.333 -86 -127
c-26 -49.333 -40.333 -95.666 -43 -138.999c-2.66699 -45.333 10.333 -83 39 -113c27.333 -31.333 78.333 -47 153 -47h1043c-10.667 38.667 -21.667 70 -33 94c-20.667 45.333 -33.667 72.666 -39 81.999l-47 84c-22 34 -39.667 64.667 -53 92l172 199
c98 -194 148.333 -377.667 151 -551h156z" />
    <glyph glyph-name="uniFE97" unicode="&#x62a;" horiz-adv-x="888" arabic-form="initial" 
d="M197 1118l146 -145l-146 -144l-143 144zM691 973l-143 -144l-146 144l146 145zM677 772c100.667 -203.333 151 -389.667 151 -559c0 -68 -5.33301 -139 -16 -213h-844v221h707c-10 32.667 -20.333 63.334 -31 92.001c-20.667 45.333 -33.667 72.666 -39 81.999l-47 84
l-53 94z" />
    <glyph glyph-name="uniFE98" unicode="&#x62a;" horiz-adv-x="888" arabic-form="medial" 
d="M275 1178l144 -146l-144 -143l-145 143zM769 1032l-145 -143l-146 143l146 146zM925 221v-221.002h-965v221h686c-12 38.667 -23 69.334 -33 92.001c-16 38.667 -29 67.334 -39 86.001l-47 84c-32.667 57.333 -50.334 88 -53.001 92l172 199
c98.667 -194 149.334 -378.333 152.001 -553h127z" />
    <glyph glyph-name="uniFE9A" unicode="&#x62b;" horiz-adv-x="1679" arabic-form="final" 
d="M642 1118l146 -145l-146 -144l-143 144zM816 1366l146 -145l-146 -146l-145 146zM1136 973l-144 -144l-145 144l145 145zM1752 221v-221h-1393c-102 0 -180.667 23.5 -236 70.5s-83 114.833 -83 203.5c0 82 20.5 162.333 61.5 241s94.833 148.667 161.5 210l76 -78
c-30 -34 -58.667 -76.333 -86 -127c-26 -49.333 -40.333 -95.666 -43 -138.999c-2.66699 -45.333 10.333 -83 39 -113c27.333 -31.333 78.333 -47 153 -47h1043c-10.667 38.667 -21.667 70 -33 94c-20.667 45.333 -33.667 72.666 -39 81.999l-47 84
c-22 34 -39.667 64.667 -53 92l172 199c98 -194 148.333 -377.667 151 -551h156z" />
    <glyph glyph-name="uniFE9B" unicode="&#x62b;" horiz-adv-x="935" arabic-form="initial" 
d="M204 1118l145 -145l-145 -144l-144 144zM378 1366l145 -145l-145 -146l-146 146zM697 973l-143 -144l-146 144l146 145zM709 772c101.333 -203.333 152 -389.666 152 -558.999c0 -68 -5.33301 -139 -16 -213h-877v221h739c-9.33301 32.667 -19.333 63.334 -30 92.001
c-20.667 45.333 -33.667 72.666 -39 81.999l-47 84c-30 53.333 -48 84.666 -54 93.999z" />
    <glyph glyph-name="uniFE9C" unicode="&#x62b;" horiz-adv-x="882" arabic-form="medial" 
d="M228 1133l144 -146l-144 -143l-145 143zM400 1380l146 -145l-146 -145l-145 145zM722 987l-146 -143l-145 143l145 146zM935 221l-0.000976562 -221.002h-975v221h696c-12 38.667 -22.667 69.334 -32 92.001c-16.667 38.667 -29.667 67.334 -39 86.001l-47 84
c-33.333 57.333 -51.333 88 -54 92l172 199c98.667 -194 149.334 -378.333 152.001 -553h127z" />
    <glyph glyph-name="uniFE9E" unicode="&#x62c;" horiz-adv-x="1187" arabic-form="final" 
d="M810 -160l-145 -145l-146 145l146 144zM632 375c-48 -38.667 -95.833 -87.335 -143.5 -146.002s-84.5 -118.667 -110.5 -180c-30 -65.333 -45.667 -128 -47 -188c-2.66699 -64.667 14.333 -122.667 51 -174c27.333 -40 64.333 -71.667 111 -95
c42 -21.333 89.667 -35.666 143 -42.999c30 -4 82.667 -6 158 -6c53.333 4 102.333 10.333 147 19c64.667 14.667 103 24 115 28c35.333 12.667 55 20.334 59 23.001l-86 -277c-28.667 -9.33301 -57.334 -16.666 -86.001 -21.999c-48.667 -8 -82.667 -13.333 -102 -16
c-48 -6 -80.667 -9.66699 -98 -11c-41.333 -2.66699 -67.333 -4 -78 -4c-104 -2.66699 -190 10.333 -258 39c-70 28.667 -126 66.334 -168 113.001c-41.333 43.333 -71.333 97.333 -90 162c-18 58.667 -28.333 120 -31 184c-1.33301 46 5.33398 100 20.001 162
c14 53.333 39.333 112.666 76 177.999c34 61.333 81.333 122.666 142 183.999c54 57.333 125 117.333 213 180c-104 23.333 -169 37 -195 41c-102.667 10 -175 -5 -217 -45l-47 -45l-35 27l88 143c32.667 53.333 65 89.833 97 109.5s74 29.5 126 29.5
c20.667 0 56.334 -3.33301 107.001 -10l143 -28c78 -15.333 130.667 -26.333 158 -33c61.333 -14 111 -23.667 149 -29c40 -6.66699 79.667 -11.334 119 -14.001c32.667 -2.66699 54.667 1.33301 66 12l-64 -166c-6.66699 -18.667 -20.334 -32.334 -41.001 -41.001
c-20 -9.33301 -46 -14 -78 -14c-31.333 -1.33301 -64 0.666992 -98 6c-38 4 -76.333 10 -115 18l2 -2l-2 -2c4.66699 -27.333 13 -54.666 25 -81.999s29.667 -51.166 53 -71.499s50.666 -36.5 81.999 -48.5c30 -12.667 67.667 -19 113 -19h244v-221h-308
c-57.333 0 -103.666 9 -138.999 27c-39.333 18.667 -70 43.667 -92 75c-26 34.667 -43.667 74.334 -53 119.001c-12.667 45.333 -21 96.666 -25 153.999z" />
    <glyph glyph-name="uniFE9F" unicode="&#x62c;" horiz-adv-x="1333" arabic-form="initial" 
d="M598 -203l146 -145l-146 -146l-143 146zM1266 221l-65.998 -221h-1245l-2 221h965c-67.333 116 -139 208.333 -215 277c-20.667 17.333 -47.334 35.666 -80.001 54.999c-36 19.333 -73 31.666 -111 36.999c-40.667 6.66699 -83 4.66699 -127 -6
c-48 -11.333 -91 -33.333 -129 -66l-45 45c40.667 41.333 77.667 76.333 111 105c30 27.333 59.333 51 88 71c24.667 16.667 50.667 30.334 78 41.001c24 8.66699 50.333 13 79 13c127.333 0 236.666 -67 327.999 -201c56 -83.333 115.333 -183.666 178 -300.999
c24.667 -46.667 61 -70 109 -70h84z" />
    <glyph glyph-name="uniFEA0" unicode="&#x62c;" horiz-adv-x="1124" arabic-form="medial" 
d="M467 -199l144 -145l-144 -145l-145 145zM1182 221v-221h-1241v221h877c-72.667 124.667 -144.334 219 -215.001 283c-20.667 18.667 -47.334 37 -80.001 55c-34.667 18 -71.667 30.333 -111 37c-40.667 6.66699 -83 4.66699 -127 -6
c-46.667 -11.333 -89 -33.333 -127 -66l-47 39c40.667 41.333 77.667 76.333 111 105c30 27.333 59.333 51 88 71c20 14 45.667 27.667 77 41c24.667 8.66699 51.334 13 80.001 13c127.333 0 237.333 -67 330 -201c50.667 -74 109.334 -174.333 176.001 -301
c24.667 -46.667 61 -70 109 -70h100z" />
    <glyph glyph-name="uniFEA2" unicode="&#x62d;" horiz-adv-x="1179" arabic-form="final" 
d="M632 375c-48 -38.667 -95.833 -87.335 -143.5 -146.002s-84.5 -118.667 -110.5 -180c-30 -65.333 -45.667 -128 -47 -188c-2.66699 -64.667 14.333 -122.667 51 -174c27.333 -40 64.333 -71.667 111 -95c42 -21.333 89.667 -35.666 143 -42.999c30 -4 82.667 -6 158 -6
c53.333 4 102.333 10.333 147 19c64.667 14.667 103 24 115 28c35.333 12.667 55 20.334 59 23.001l-86 -277c-28.667 -9.33301 -57.334 -16.666 -86.001 -21.999c-48.667 -8 -82.667 -13.333 -102 -16c-48 -6 -80.667 -9.66699 -98 -11c-41.333 -2.66699 -67.333 -4 -78 -4
c-104 -2.66699 -190 10.333 -258 39c-70 28.667 -126 66.334 -168 113.001c-41.333 43.333 -71.333 97.333 -90 162c-18 58.667 -28.333 120 -31 184c-1.33301 46 5.33398 100 20.001 162c14 53.333 39.333 112.666 76 177.999c34 61.333 81.333 122.666 142 183.999
c54 57.333 125 117.333 213 180c-104 23.333 -169 37 -195 41c-102.667 10 -175 -5 -217 -45l-47 -45l-35 27l88 143c32.667 53.333 65 89.833 97 109.5s74 29.5 126 29.5c20.667 0 56.334 -3.33301 107.001 -10l143 -28c78 -15.333 130.667 -26.333 158 -33
c61.333 -14 111 -23.667 149 -29c40 -6.66699 79.667 -11.334 119 -14.001c32.667 -2.66699 54.667 1.33301 66 12l-64 -166c-6.66699 -18.667 -20.334 -32.334 -41.001 -41.001c-20 -9.33301 -46 -14 -78 -14c-31.333 -1.33301 -64 0.666992 -98 6
c-38 4 -76.333 10 -115 18l2 -2l-2 -2c4.66699 -27.333 13 -54.666 25 -81.999s29.667 -51.166 53 -71.499s50.666 -36.5 81.999 -48.5c30 -12.667 67.667 -19 113 -19h244v-221h-308c-57.333 0 -103.666 9 -138.999 27c-39.333 18.667 -70 43.667 -92 75
c-26 34.667 -43.667 74.334 -53 119.001c-12.667 45.333 -21 96.666 -25 153.999z" />
    <glyph glyph-name="uniFEA3" unicode="&#x62d;" horiz-adv-x="1333" arabic-form="initial" 
d="M1266 221l-65.998 -221h-1245l-2 221h965c-67.333 116 -139 208.333 -215 277c-20.667 17.333 -47.334 35.666 -80.001 54.999c-36 19.333 -73 31.666 -111 36.999c-40.667 6.66699 -83 4.66699 -127 -6c-48 -11.333 -91 -33.333 -129 -66l-45 45
c40.667 41.333 77.667 76.333 111 105c30 27.333 59.333 51 88 71c24.667 16.667 50.667 30.334 78 41.001c24 8.66699 50.333 13 79 13c127.333 0 236.666 -67 327.999 -201c56 -83.333 115.333 -183.666 178 -300.999c24.667 -46.667 61 -70 109 -70h84z" />
    <glyph glyph-name="uniFEA4" unicode="&#x62d;" horiz-adv-x="1124" arabic-form="medial" 
d="M1182 221v-221h-1241v221h877c-72.667 124.667 -144.334 219 -215.001 283c-20.667 18.667 -47.334 37 -80.001 55c-34.667 18 -71.667 30.333 -111 37c-40.667 6.66699 -83 4.66699 -127 -6c-46.667 -11.333 -89 -33.333 -127 -66l-47 39
c40.667 41.333 77.667 76.333 111 105c30 27.333 59.333 51 88 71c20 14 45.667 27.667 77 41c24.667 8.66699 51.334 13 80.001 13c127.333 0 237.333 -67 330 -201c50.667 -74 109.334 -174.333 176.001 -301c24.667 -46.667 61 -70 109 -70h100z" />
    <glyph glyph-name="uniFEA6" unicode="&#x62e;" horiz-adv-x="1187" arabic-form="final" 
d="M632 375c-48 -38.667 -95.833 -87.335 -143.5 -146.002s-84.5 -118.667 -110.5 -180c-30 -65.333 -45.667 -128 -47 -188c-2.66699 -64.667 14.333 -122.667 51 -174c27.333 -40 64.333 -71.667 111 -95c42 -21.333 89.667 -35.666 143 -42.999c30 -4 82.667 -6 158 -6
c53.333 4 102.333 10.333 147 19c64.667 14.667 103 24 115 28c35.333 12.667 55 20.334 59 23.001l-86 -277c-28.667 -9.33301 -57.334 -16.666 -86.001 -21.999c-48.667 -8 -82.667 -13.333 -102 -16c-48 -6 -80.667 -9.66699 -98 -11c-41.333 -2.66699 -67.333 -4 -78 -4
c-104 -2.66699 -190 10.333 -258 39c-70 28.667 -126 66.334 -168 113.001c-41.333 43.333 -71.333 97.333 -90 162c-18 58.667 -28.333 120 -31 184c-1.33301 46 5.33398 100 20.001 162c14 53.333 39.333 112.666 76 177.999c34 61.333 81.333 122.666 142 183.999
c54 57.333 125 117.333 213 180c-104 23.333 -169 37 -195 41c-102.667 10 -175 -5 -217 -45l-47 -45l-35 27l88 143c32.667 53.333 65 89.833 97 109.5s74 29.5 126 29.5c20.667 0 56.334 -3.33301 107.001 -10l143 -28c78 -15.333 130.667 -26.333 158 -33
c61.333 -14 111 -23.667 149 -29c40 -6.66699 79.667 -11.334 119 -14.001c32.667 -2.66699 54.667 1.33301 66 12l-64 -166c-6.66699 -18.667 -20.334 -32.334 -41.001 -41.001c-20 -9.33301 -46 -14 -78 -14c-31.333 -1.33301 -64 0.666992 -98 6
c-38 4 -76.333 10 -115 18l2 -2l-2 -2c4.66699 -27.333 13 -54.666 25 -81.999s29.667 -51.166 53 -71.499s50.666 -36.5 81.999 -48.5c30 -12.667 67.667 -19 113 -19h244v-221h-308c-57.333 0 -103.666 9 -138.999 27c-39.333 18.667 -70 43.667 -92 75
c-26 34.667 -43.667 74.334 -53 119.001c-12.667 45.333 -21 96.666 -25 153.999zM712 1233l145 -146l-145 -145l-143 145z" />
    <glyph glyph-name="uniFEA7" unicode="&#x62e;" horiz-adv-x="1333" arabic-form="initial" 
d="M598 1266l146 -146l-146 -145l-143 145zM1266 221l-65.998 -221h-1245l-2 221h965c-67.333 116 -139 208.333 -215 277c-20.667 17.333 -47.334 35.666 -80.001 54.999c-36 19.333 -73 31.666 -111 36.999c-40.667 6.66699 -83 4.66699 -127 -6
c-48 -11.333 -91 -33.333 -129 -66l-45 45c40.667 41.333 77.667 76.333 111 105c30 27.333 59.333 51 88 71c24.667 16.667 50.667 30.334 78 41.001c24 8.66699 50.333 13 79 13c127.333 0 236.666 -67 327.999 -201c56 -83.333 115.333 -183.666 178 -300.999
c24.667 -46.667 61 -70 109 -70h84z" />
    <glyph glyph-name="uniFEA8" unicode="&#x62e;" horiz-adv-x="1124" arabic-form="medial" 
d="M467 1294l144 -145l-144 -145l-145 145zM1182 221v-221h-1241v221h877c-72.667 124.667 -144.334 219 -215.001 283c-20.667 18.667 -47.334 37 -80.001 55c-34.667 18 -71.667 30.333 -111 37c-40.667 6.66699 -83 4.66699 -127 -6
c-46.667 -11.333 -89 -33.333 -127 -66l-47 39c40.667 41.333 77.667 76.333 111 105c30 27.333 59.333 51 88 71c20 14 45.667 27.667 77 41c24.667 8.66699 51.334 13 80.001 13c127.333 0 237.333 -67 330 -201c50.667 -74 109.334 -174.333 176.001 -301
c24.667 -46.667 61 -70 109 -70h100z" />
    <glyph glyph-name="uniFEAA" unicode="&#x62f;" horiz-adv-x="933" arabic-form="final" 
d="M972 221l0.00195312 -220.999h-764c-54.667 0 -93.667 11 -117 33c-26 22 -41.667 50 -47 84c-5.33301 31.333 -2 68 10 110c14 41.333 31.333 80.333 52 117c-23.333 -82 6 -123 88 -123h465c-4.66699 53.333 -13.834 99.166 -27.501 137.499s-33.167 76.5 -58.5 114.5
c-24.667 34 -52.667 70.333 -84 109c-34.667 40.667 -70.334 79.334 -107.001 116.001l133 228l99 -131c28.667 -38.667 60.667 -91.334 96 -158.001c28.667 -56 53.167 -118.833 73.5 -188.5s32.5 -145.5 36.5 -227.5h152z" />
    <glyph glyph-name="uniFEAC" unicode="&#x630;" horiz-adv-x="929" arabic-form="final" 
d="M321 1284l145 -145l-145 -146l-146 146zM972 221l0.00195312 -220.999h-764c-54.667 0 -93.667 11 -117 33c-26 22 -41.667 50 -47 84c-5.33301 31.333 -2 68 10 110c14 41.333 31.333 80.333 52 117c-23.333 -82 6 -123 88 -123h465
c-4.66699 53.333 -13.834 99.166 -27.501 137.499s-33.167 76.5 -58.5 114.5c-24.667 34 -52.667 70.333 -84 109c-34.667 40.667 -70.334 79.334 -107.001 116.001l133 228l99 -131c28.667 -38.667 60.667 -91.334 96 -158.001c28.667 -56 53.167 -118.833 73.5 -188.5
s32.5 -145.5 36.5 -227.5h152z" />
    <glyph glyph-name="uniFEAE" unicode="&#x631;" horiz-adv-x="673" arabic-form="final" 
d="M719 0l-186.998 -0.00292969c-4 -46.667 -12 -95.667 -24 -147c-11.333 -46.667 -29 -98.667 -53 -156c-22 -49.333 -52.333 -104.666 -91 -165.999c-36.667 -57.333 -81.667 -116.666 -135 -177.999l-227 192c65.333 42.667 118.666 86.334 159.999 131.001
c44.667 49.333 81.334 98 110.001 146c26 46 49.333 98.667 70 158c14.667 46 28.334 101 41.001 165c-6.66699 36 -16.334 74.333 -29.001 115c-10.667 30 -24.334 64 -41.001 102c-5.33301 14 -22.333 47.667 -51 101c-14.667 26 -36.334 60.667 -65.001 104l163 217
c98.667 -192 156.667 -379.667 174 -563h185v-221z" />
    <glyph glyph-name="uniFEB0" unicode="&#x632;" horiz-adv-x="673" arabic-form="final" 
d="M170 874l-145 144l145 145l143 -145zM719 0l-186.998 -0.00292969c-4 -46.667 -12 -95.667 -24 -147c-11.333 -46.667 -29 -98.667 -53 -156c-22 -49.333 -52.333 -104.666 -91 -165.999c-36.667 -57.333 -81.667 -116.666 -135 -177.999l-227 192
c65.333 42.667 118.666 86.334 159.999 131.001c44.667 49.333 81.334 98 110.001 146c26 46 49.333 98.667 70 158c14.667 46 28.334 101 41.001 165c-6.66699 36 -16.334 74.333 -29.001 115c-10.667 30 -24.334 64 -41.001 102c-5.33301 14 -22.333 47.667 -51 101
c-14.667 26 -36.334 60.667 -65.001 104l163 217c98.667 -192 156.667 -379.667 174 -563h185v-221z" />
    <glyph glyph-name="uniFEB2" unicode="&#x633;" horiz-adv-x="2252" arabic-form="final" 
d="M1259 221l290.997 0.00195312c-27.333 78 -80.666 185.333 -159.999 322l151 196c90.667 -176 140.667 -348.667 150 -518h278c-9.33301 32.667 -19.333 63.334 -30 92.001c-16.667 38.667 -29.667 66.667 -39 84l-47 84c-30 53.333 -48 84.666 -54 93.999l152 197
c99.333 -195.333 149 -379 149 -551h248v-221h-1077c-8.66699 -58 -29.667 -119.333 -63 -184c-33.333 -63.333 -80 -126.333 -140 -189c-57.333 -60 -124.666 -109 -201.999 -147c-82 -40 -169 -60 -261 -60c-88.667 0 -165 18.667 -229 56c-64 38 -115.333 87 -154 147
c-40.667 62.667 -67.667 130.334 -81 203.001c-15.333 78 -19 154.333 -11 229c5.33301 75.333 24 147.666 56 216.999c28.667 67.333 67.334 124.666 116.001 171.999l70 -82c-35.333 -52.667 -60.666 -107.667 -75.999 -165c-13.333 -53.333 -18 -105.333 -14 -156
s17 -97 39 -139c20 -44 47.333 -81 82 -111c32.667 -30 70.667 -54.667 114 -74c41.333 -17.333 87.333 -26 138 -26c57.333 0 114.666 12.333 171.999 37c58.667 26 109 57.333 151 94c44 36.667 81.667 77.667 113 123c27.333 43.333 42.333 85.666 45 126.999
c-8 38 -18.333 72 -31 102l-43 92c-26 45.333 -43.667 74.666 -53 87.999c-2.66699 4 -22.667 35.667 -60 95l148 196c80.667 -139.333 134.667 -280.666 162 -423.999z" />
    <glyph glyph-name="uniFEB3" unicode="&#x633;" horiz-adv-x="1462" arabic-form="initial" 
d="M838 221c-26 78 -78.668 184.666 -158.001 319.999l152 198c91.333 -178.667 140.333 -351.334 147 -518.001h281c-9.33301 32.667 -19.666 63.334 -30.999 92.001c-16 38.667 -29 66.667 -39 84l-47 84c-18.667 28.667 -37 59.334 -55 92.001l154 199
c99.333 -198 149 -383.667 149 -557c0 -69.333 -5.33301 -141 -16 -215h-1483v221h455c-7.33301 22 -14.333 42 -21 60c-39.333 98 -68 165.333 -86 202l158 166c2.66699 -6.66699 34.667 -111 96 -313c9.33301 -34 18.333 -72.333 27 -115h317z" />
    <glyph glyph-name="uniFEB4" unicode="&#x633;" horiz-adv-x="1464" arabic-form="medial" 
d="M762 221c-27.333 78 -80.334 185.332 -159.001 321.999l151 196c90 -176 140 -348.667 150 -518h278c-9.33301 32.667 -19.666 63.334 -30.999 92.001c-16 38.667 -28.667 66.667 -38 84l-48 84l-53 94l152 197c99.333 -195.333 149 -379 149 -551h248v-221h-1708v221
h455c-7.33301 22 -14.333 42 -21 60c-39.333 98 -68 165.333 -86 202l158 166c2.66699 -6.66699 34.667 -111 96 -313c9.33301 -34 18.333 -72.333 27 -115h280z" />
    <glyph glyph-name="uniFEB6" unicode="&#x634;" horiz-adv-x="2252" arabic-form="final" 
d="M1324 1151l146 -145l-146 -146l-143 146zM1498 1399l146 -146l-146 -145l-145 145zM1818 1006l-146 -146l-143 146l143 145zM1259 221l290.997 0.00195312c-27.333 78 -80.666 185.333 -159.999 322l151 196c90.667 -176 140.667 -348.667 150 -518h278
c-9.33301 32.667 -19.333 63.334 -30 92.001c-16.667 38.667 -29.667 66.667 -39 84l-47 84c-30 53.333 -48 84.666 -54 93.999l152 197c99.333 -195.333 149 -379 149 -551h248v-221h-1077c-8.66699 -58 -29.667 -119.333 -63 -184c-33.333 -63.333 -80 -126.333 -140 -189
c-57.333 -60 -124.666 -109 -201.999 -147c-82 -40 -169 -60 -261 -60c-88.667 0 -165 18.667 -229 56c-64 38 -115.333 87 -154 147c-40.667 62.667 -67.667 130.334 -81 203.001c-15.333 78 -19 154.333 -11 229c5.33301 75.333 24 147.666 56 216.999
c28.667 67.333 67.334 124.666 116.001 171.999l70 -82c-35.333 -52.667 -60.666 -107.667 -75.999 -165c-13.333 -53.333 -18 -105.333 -14 -156s17 -97 39 -139c20 -44 47.333 -81 82 -111c32.667 -30 70.667 -54.667 114 -74c41.333 -17.333 87.333 -26 138 -26
c57.333 0 114.666 12.333 171.999 37c58.667 26 109 57.333 151 94c44 36.667 81.667 77.667 113 123c27.333 43.333 42.333 85.666 45 126.999c-8 38 -18.333 72 -31 102l-43 92c-26 45.333 -43.667 74.666 -53 87.999c-2.66699 4 -22.667 35.667 -60 95l148 196
c80.667 -139.333 134.667 -280.666 162 -423.999z" />
    <glyph glyph-name="uniFEB7" unicode="&#x634;" horiz-adv-x="1462" arabic-form="initial" 
d="M615 1151l145 -145l-145 -146l-145 146zM789 1397l143 -144l-143 -145l-145 145zM1109 1006l-146 -146l-145 146l145 145zM838 221c-26 78 -78.668 184.666 -158.001 319.999l152 198c91.333 -178.667 140.333 -351.334 147 -518.001h281
c-9.33301 32.667 -19.666 63.334 -30.999 92.001c-16 38.667 -29 66.667 -39 84l-47 84c-18.667 28.667 -37 59.334 -55 92.001l154 199c99.333 -198 149 -383.667 149 -557c0 -69.333 -5.33301 -141 -16 -215h-1483v221h455c-7.33301 22 -14.333 42 -21 60
c-39.333 98 -68 165.333 -86 202l158 166c2.66699 -6.66699 34.667 -111 96 -313c9.33301 -34 18.333 -72.333 27 -115h317z" />
    <glyph glyph-name="uniFEB8" unicode="&#x634;" horiz-adv-x="1464" arabic-form="medial" 
d="M537 1151l145 -145l-145 -146l-143 146zM711 1399l146 -146l-146 -145l-145 145zM1031 1006l-146 -146l-143 146l143 145zM762 221c-27.333 78 -80.334 185.332 -159.001 321.999l151 196c90 -176 140 -348.667 150 -518h278
c-9.33301 32.667 -19.666 63.334 -30.999 92.001c-16 38.667 -28.667 66.667 -38 84l-48 84l-53 94l152 197c99.333 -195.333 149 -379 149 -551h248v-221h-1708v221h455c-7.33301 22 -14.333 42 -21 60c-39.333 98 -68 165.333 -86 202l158 166
c2.66699 -6.66699 34.667 -111 96 -313c9.33301 -34 18.333 -72.333 27 -115h280z" />
    <glyph glyph-name="uniFEBA" unicode="&#x635;" horiz-adv-x="2586" arabic-form="final" 
d="M2357 221c0 64 -9 114.669 -27 152.002c-20.667 42 -42.667 74 -66 96c-27.333 23.333 -55.333 39.666 -84 48.999c-31.333 8 -59.333 12 -84 12c-31.333 0 -61.333 -4 -90 -12c-34 -10.667 -67.333 -26.334 -100 -47.001c-28.667 -18 -71.667 -49.333 -129 -94
l-186 -156h766zM1257 221.002l107.996 -0.00195312l144 135c34 33.333 87.667 82.666 161 147.999c40 35.333 96 81 168 137c53.333 39.333 106 72 158 98c46.667 22 97.334 33.333 152.001 34s105 -11.333 151 -36c26 -13.333 52.667 -33.666 80 -60.999
s51.333 -61.666 72 -102.999c22 -43.333 37.667 -92.333 47 -147c9.33301 -58.667 11.333 -127 6 -205h125v-221h-1365c-9.33301 -54 -29.333 -110.667 -60 -170c-33.333 -62.667 -80 -125.334 -140 -188.001c-57.333 -60.667 -124.666 -110 -201.999 -148
c-82 -39.333 -169 -59 -261 -59c-88.667 0 -165 18.333 -229 55c-64 38 -115.333 87.333 -154 148c-40.667 62.667 -67.667 130 -81 202c-15.333 78 -19 154.667 -11 230c5.33301 74.667 24 147 56 217c28.667 66.667 67.334 124 116.001 172l70 -82
c-35.333 -53.333 -60.666 -108.666 -75.999 -165.999c-13.333 -53.333 -18 -105.166 -14 -155.499s17 -96.833 39 -139.5c20 -44 47.333 -81 82 -111c32.667 -30 70.667 -54.333 114 -73c41.333 -18 87.333 -27 138 -27c57.333 0 114.666 12.333 171.999 37
c58.667 26 109 57.333 151 94c44 36.667 81.667 77.667 113 123c27.333 44 42.333 86.333 45 127c-8 38 -18.333 72 -31 102l-43 93c-26 44.667 -43.667 74 -53 88l-60 94l148 196c80.667 -138.667 134.667 -279.667 162 -423
c0.666992 -5.33301 1.33398 -10.333 2.00098 -15z" />
    <glyph glyph-name="uniFEBB" unicode="&#x635;" horiz-adv-x="1722" arabic-form="initial" 
d="M1492 221c0 64 -8.99902 114.667 -26.999 152c-20.667 42 -42.667 74 -66 96c-26.667 23.333 -54.334 39.666 -83.001 48.999c-30.667 8 -58.667 12 -84 12c-32 0 -61.667 -4 -89 -12c-35.333 -12 -67.333 -27.667 -96 -47s-71 -50.666 -127 -93.999l-184 -156h756z
M519.001 221l136.999 139c58.667 59.333 111.334 108.666 158.001 147.999c61.333 54.667 115.333 99 162 133c57.333 42.667 109 75.334 155 98.001c46.667 22 97.334 33.333 152.001 34s105 -11.333 151 -36c32.667 -18.667 65 -45.334 97 -80.001
c31.333 -35.333 57 -81.666 77 -138.999c19.333 -57.333 30.333 -129 33 -215c1.33301 -83.333 -12.334 -184.333 -41.001 -303h-1714v221h455c-7.33301 22 -14.333 42 -21 60c-39.333 98 -68 165.333 -86 202l158 166c2.66699 -6.66699 34.667 -111 96 -313
c9.33301 -34 18.333 -72.333 27 -115h4z" />
    <glyph glyph-name="uniFEBC" unicode="&#x635;" horiz-adv-x="1722" arabic-form="medial" 
d="M1494 221c0 64 -8.99805 114.669 -26.998 152.002c-20.667 42 -42.334 74 -65.001 96c-27.333 23.333 -55.333 39.666 -84 48.999c-31.333 8 -59.333 12 -84 12c-31.333 0 -61.333 -4 -90 -12c-34.667 -10.667 -68.334 -26.334 -101.001 -47.001
c-28.667 -18 -71.667 -49.333 -129 -94l-186 -156h766zM509.002 227.002c54.667 49.333 100.334 92.332 137.001 128.999c34 33.333 88 82.666 162 147.999c39.333 35.333 95.333 81 168 137c53.333 39.333 105.666 72 156.999 98c46.667 22 97.334 33.333 152.001 34
s105 -11.333 151 -36c26 -13.333 52.667 -33.666 80 -60.999s51.333 -61.666 72 -102.999c22 -43.333 37.667 -92.333 47 -147c9.33301 -58.667 11.333 -127 6 -205h125v-221h-1884v221h455c-7.33301 22 -14.333 42 -21 60c-39.333 98 -68 165.333 -86 202l158 166
c2.66699 -6.66699 34.667 -111 96 -313c9.33301 -32.667 17.666 -69 24.999 -109z" />
    <glyph glyph-name="uniFEBE" unicode="&#x636;" horiz-adv-x="2586" arabic-form="final" 
d="M2029 1243l145 -145l-145 -146l-143 146zM2357 221c0 64 -9 114.669 -27 152.002c-20.667 42 -42.667 74 -66 96c-27.333 23.333 -55.333 39.666 -84 48.999c-31.333 8 -59.333 12 -84 12c-31.333 0 -61.333 -4 -90 -12c-34 -10.667 -67.333 -26.334 -100 -47.001
c-28.667 -18 -71.667 -49.333 -129 -94l-186 -156h766zM1257 221.002l107.996 -0.00195312l144 135c34 33.333 87.667 82.666 161 147.999c40 35.333 96 81 168 137c53.333 39.333 106 72 158 98c46.667 22 97.334 33.333 152.001 34s105 -11.333 151 -36
c26 -13.333 52.667 -33.666 80 -60.999s51.333 -61.666 72 -102.999c22 -43.333 37.667 -92.333 47 -147c9.33301 -58.667 11.333 -127 6 -205h125v-221h-1365c-9.33301 -54 -29.333 -110.667 -60 -170c-33.333 -62.667 -80 -125.334 -140 -188.001
c-57.333 -60.667 -124.666 -110 -201.999 -148c-82 -39.333 -169 -59 -261 -59c-88.667 0 -165 18.333 -229 55c-64 38 -115.333 87.333 -154 148c-40.667 62.667 -67.667 130 -81 202c-15.333 78 -19 154.667 -11 230c5.33301 74.667 24 147 56 217
c28.667 66.667 67.334 124 116.001 172l70 -82c-35.333 -53.333 -60.666 -108.666 -75.999 -165.999c-13.333 -53.333 -18 -105.166 -14 -155.499s17 -96.833 39 -139.5c20 -44 47.333 -81 82 -111c32.667 -30 70.667 -54.333 114 -73c41.333 -18 87.333 -27 138 -27
c57.333 0 114.666 12.333 171.999 37c58.667 26 109 57.333 151 94c44 36.667 81.667 77.667 113 123c27.333 44 42.333 86.333 45 127c-8 38 -18.333 72 -31 102l-43 93c-26 44.667 -43.667 74 -53 88l-60 94l148 196c80.667 -138.667 134.667 -279.667 162 -423
c0.666992 -5.33301 1.33398 -10.333 2.00098 -15z" />
    <glyph glyph-name="uniFEBF" unicode="&#x636;" horiz-adv-x="1722" arabic-form="initial" 
d="M1492 221c0 64 -8.99902 114.667 -26.999 152c-20.667 42 -42.667 74 -66 96c-26.667 23.333 -54.334 39.666 -83.001 48.999c-30.667 8 -58.667 12 -84 12c-32 0 -61.667 -4 -89 -12c-35.333 -12 -67.333 -27.667 -96 -47s-71 -50.666 -127 -93.999l-184 -156h756z
M1115 1225l145 -146l-145 -145l-146 145zM519.001 221l136.999 139c58.667 59.333 111.334 108.666 158.001 147.999c61.333 54.667 115.333 99 162 133c57.333 42.667 109 75.334 155 98.001c46.667 22 97.334 33.333 152.001 34s105 -11.333 151 -36
c32.667 -18.667 65 -45.334 97 -80.001c31.333 -35.333 57 -81.666 77 -138.999c19.333 -57.333 30.333 -129 33 -215c1.33301 -83.333 -12.334 -184.333 -41.001 -303h-1714v221h455c-7.33301 22 -14.333 42 -21 60c-39.333 98 -68 165.333 -86 202l158 166
c2.66699 -6.66699 34.667 -111 96 -313c9.33301 -34 18.333 -72.333 27 -115h4z" />
    <glyph glyph-name="uniFEC0" unicode="&#x636;" horiz-adv-x="1722" arabic-form="medial" 
d="M1166 1243l146 -145l-146 -146l-143 146zM1494 221c0 64 -8.99805 114.669 -26.998 152.002c-20.667 42 -42.334 74 -65.001 96c-27.333 23.333 -55.333 39.666 -84 48.999c-31.333 8 -59.333 12 -84 12c-31.333 0 -61.333 -4 -90 -12
c-34.667 -10.667 -68.334 -26.334 -101.001 -47.001c-28.667 -18 -71.667 -49.333 -129 -94l-186 -156h766zM509.002 227.002c54.667 49.333 100.334 92.332 137.001 128.999c34 33.333 88 82.666 162 147.999c39.333 35.333 95.333 81 168 137
c53.333 39.333 105.666 72 156.999 98c46.667 22 97.334 33.333 152.001 34s105 -11.333 151 -36c26 -13.333 52.667 -33.666 80 -60.999s51.333 -61.666 72 -102.999c22 -43.333 37.667 -92.333 47 -147c9.33301 -58.667 11.333 -127 6 -205h125v-221h-1884v221h455
c-7.33301 22 -14.333 42 -21 60c-39.333 98 -68 165.333 -86 202l158 166c2.66699 -6.66699 34.667 -111 96 -313c9.33301 -32.667 17.666 -69 24.999 -109z" />
    <glyph glyph-name="uniFEC2" unicode="&#x637;" horiz-adv-x="1531" arabic-form="final" 
d="M1569 221l0.00390625 -221h-1497l-72 221h389c12.667 12.667 32.167 33.667 58.5 63s47.166 51.333 62.499 66l-18 836l204 125v-779c101.333 97.333 193 165.666 275 204.999c43.333 23.333 91.666 35 144.999 35s101.333 -12.333 144 -37
c25.333 -14.667 51.666 -35 78.999 -61c27.333 -27.333 52 -61 74 -101c22 -43.333 37.667 -92.333 47 -147c11.333 -61.333 12.666 -129.666 3.99902 -204.999h105zM1317 221c0 64 -9 114.669 -27 152.002c-20 43.333 -41.667 74.666 -65 93.999
c-27.333 23.333 -55.333 39.666 -84 48.999s-56.667 14 -84 14c-32.667 0 -62 -4 -88 -12c-36 -12 -68.333 -27.667 -97 -47c-34 -22 -75.333 -53.333 -124 -94l-185 -156h754z" />
    <glyph glyph-name="uniFEC3" unicode="&#x637;" horiz-adv-x="1327" arabic-form="initial" 
d="M1067 735c36 -20 68.335 -45.999 97.002 -77.999c31.333 -35.333 57 -82.333 77 -141c19.333 -57.333 30.333 -128.333 33 -213c1.33301 -83.333 -12.334 -184.333 -41.001 -303h-1286v221h166c9.33301 8 33.166 29.833 71.499 65.5s65.5 62.5 81.5 80.5l-18 819l205 125
v-779c17.333 19.333 43.333 40.666 78 63.999l88 55c30 19.333 58.667 35.833 86 49.5l73 36.5c44 23.333 92.667 35 146 35s101 -12.333 143 -37zM1125 221.001c0 64 -8.99902 114.669 -26.999 152.002c-20.667 43.333 -42.667 74.666 -66 93.999
c-27.333 23.333 -55.333 39.666 -84 48.999s-56.334 14 -83.001 14c-32 0 -64.333 -4 -97 -12c-38 -12 -74.667 -27.667 -110 -47c-34.667 -18 -82.667 -49.333 -144 -94c-56 -41.333 -120 -93.333 -192 -156h803z" />
    <glyph glyph-name="uniFEC4" unicode="&#x637;" horiz-adv-x="1331" arabic-form="medial" 
d="M1127 221c0 64 -8.99902 114.669 -26.999 152.002c-20.667 43.333 -42.667 74.666 -66 93.999c-27.333 23.333 -55.333 39.666 -84 48.999s-56.334 14 -83.001 14c-32 0 -64.333 -4 -97 -12c-38 -12 -74.667 -27.667 -110 -47c-34.667 -18 -82.667 -49.333 -144 -94
c-56 -41.333 -120 -93.333 -192 -156h803zM-50.999 0.00195312v221h166c8 8 31.5 29.833 70.5 65.5s66.5 62.5 82.5 80.5l-18 819l205 125v-779c19.333 19.333 45.333 40.666 78 63.999l88 55c31.333 19.333 60 35.833 86 49.5s50.333 25.834 73 36.501
c44 23.333 92.667 35 146 35c52 0 99.667 -12.333 143 -37c27.333 -14.667 54 -35 80 -61s49.333 -59.667 70 -101c22 -43.333 37.667 -92.333 47 -147c9.33301 -58.667 11.333 -127 6 -205h145v-221h-1468z" />
    <glyph glyph-name="uniFEC6" unicode="&#x638;" horiz-adv-x="1531" arabic-form="final" 
d="M1569 221l0.00390625 -221h-1497l-72 221h389c12.667 12.667 32.167 33.667 58.5 63s47.166 51.333 62.499 66l-18 836l204 125v-779c101.333 97.333 193 165.666 275 204.999c43.333 23.333 91.666 35 144.999 35s101.333 -12.333 144 -37
c25.333 -14.667 51.666 -35 78.999 -61c27.333 -27.333 52 -61 74 -101c22 -43.333 37.667 -92.333 47 -147c11.333 -61.333 12.666 -129.666 3.99902 -204.999h105zM1317 221c0 64 -9 114.669 -27 152.002c-20 43.333 -41.667 74.666 -65 93.999
c-27.333 23.333 -55.333 39.666 -84 48.999s-56.667 14 -84 14c-32.667 0 -62 -4 -88 -12c-36 -12 -68.333 -27.667 -97 -47c-34 -22 -75.333 -53.333 -124 -94l-185 -156h754zM1049 1225l145 -146l-145 -145l-146 145z" />
    <glyph glyph-name="uniFEC7" unicode="&#x638;" horiz-adv-x="1327" arabic-form="initial" 
d="M877 1225l145 -146l-145 -145l-146 145zM1067 735c36 -20 68.335 -45.999 97.002 -77.999c31.333 -35.333 57 -82.333 77 -141c19.333 -57.333 30.333 -128.333 33 -213c1.33301 -83.333 -12.334 -184.333 -41.001 -303h-1286v221h166
c9.33301 8 33.166 29.833 71.499 65.5s65.5 62.5 81.5 80.5l-18 819l205 125v-779c17.333 19.333 43.333 40.666 78 63.999l88 55c30 19.333 58.667 35.833 86 49.5l73 36.5c44 23.333 92.667 35 146 35s101 -12.333 143 -37zM1125 221.001
c0 64 -8.99902 114.669 -26.999 152.002c-20.667 43.333 -42.667 74.666 -66 93.999c-27.333 23.333 -55.333 39.666 -84 48.999s-56.334 14 -83.001 14c-32 0 -64.333 -4 -97 -12c-38 -12 -74.667 -27.667 -110 -47c-34.667 -18 -82.667 -49.333 -144 -94
c-56 -41.333 -120 -93.333 -192 -156h803z" />
    <glyph glyph-name="uniFEC8" unicode="&#x638;" horiz-adv-x="1331" arabic-form="medial" 
d="M852 1225l144 -146l-144 -145l-145 145zM1127 221c0 64 -8.99902 114.669 -26.999 152.002c-20.667 43.333 -42.667 74.666 -66 93.999c-27.333 23.333 -55.333 39.666 -84 48.999s-56.334 14 -83.001 14c-32 0 -64.333 -4 -97 -12c-38 -12 -74.667 -27.667 -110 -47
c-34.667 -18 -82.667 -49.333 -144 -94c-56 -41.333 -120 -93.333 -192 -156h803zM-50.999 0.00195312v221h166c8 8 31.5 29.833 70.5 65.5s66.5 62.5 82.5 80.5l-18 819l205 125v-779c19.333 19.333 45.333 40.666 78 63.999l88 55c31.333 19.333 60 35.833 86 49.5
s50.333 25.834 73 36.501c44 23.333 92.667 35 146 35c52 0 99.667 -12.333 143 -37c27.333 -14.667 54 -35 80 -61s49.333 -59.667 70 -101c22 -43.333 37.667 -92.333 47 -147c9.33301 -58.667 11.333 -127 6 -205h145v-221h-1468z" />
    <glyph glyph-name="uniFECA" unicode="&#x639;" horiz-adv-x="1081" arabic-form="final" 
d="M467 102c-131.333 -100.667 -196.997 -207.668 -196.997 -321.001c0 -30 7.33301 -61.333 22 -94c15.333 -31.333 38.666 -58 69.999 -80c27.333 -19.333 69 -37 125 -53c52 -12.667 114 -19 186 -19c40 2.66699 80.333 6.66699 121 12c30 4.66699 67 12.334 111 23.001
c32.667 8 62 16 88 24c24.667 8.66699 41 15 49 19l-86 -279c-104 -31.333 -205.667 -48.333 -305 -51c-113.333 -2.66699 -207 8.33301 -281 33c-80.667 26 -143.334 59.333 -188.001 100c-48 44 -82.333 94 -103 150c-21.333 56 -32 115.333 -32 178
c2.66699 101.333 33.667 195.666 93 282.999s138.666 163 237.999 227c-46 70.667 -86.667 127.334 -122 170.001c-52 62.667 -94.833 105.667 -128.5 129s-70.167 33.666 -109.5 30.999l80 190c142 34 282 49.667 420 47c56 0 113.333 -3.33301 172 -10
c56 -8 101.667 -21 137 -39c40.667 -19.333 72 -44 94 -74s33 -68 33 -114c0 -67.333 -26.667 -132.666 -80 -195.999s-125 -119 -215 -167h457v-221h-371c-40.667 0 -77 2 -109 6c-30 4 -55 10.333 -75 19c-22 8 -40 18.667 -54 32c-16 15.333 -29.333 30.333 -40 45z
M290.003 613.999c48 -28.667 95.332 -70.998 141.999 -126.998c35.333 -47.333 68 -94.333 98 -141c18 9.33301 43.333 25 76 47c24.667 15.333 45.834 31.166 63.501 47.499s32.5 33.5 44.5 51.5c11.333 17.333 17 35 17 53c0 53.333 -72.333 80.666 -217 81.999
c-48 0 -122.667 -4.33301 -224 -13z" />
    <glyph glyph-name="uniFECB" unicode="&#x639;" horiz-adv-x="1103" arabic-form="initial" 
d="M160 539c14.667 74.667 49.999 135.332 105.999 181.999s124.333 78 205 94c78 15.333 161.333 13.333 250 -6s172 -58.333 250 -117l-41 -153c-87.333 61.333 -167.333 96 -240 104c-72 5.33301 -131.333 -3 -178 -25c-47.333 -22.667 -80.666 -56 -99.999 -100
c-19.333 -44.667 -21.5 -89 -6.5 -133s49.167 -82.333 102.5 -115s129 -49 227 -49h283v-221h-1069v221h344c-24.667 12.667 -46.334 30.334 -65.001 53.001c-22 24.667 -38 50 -48 76c-13.333 28.667 -20.666 58.667 -21.999 90c-4 36 -3.33301 69 2 99z" />
    <glyph glyph-name="uniFECC" unicode="&#x639;" horiz-adv-x="1093" arabic-form="medial" 
d="M1127 221v-221.001h-395c-18 0 -32.333 2.66699 -43 8c-12 4 -22.333 10.333 -31 19c-4 1.33301 -11.333 8 -22 20c-8.66699 8 -15 13.333 -19 16c-4 -2.66699 -10 -8 -18 -16c-4 -5.33301 -13 -12 -27 -20c-6.66699 -4.66699 -18.334 -11 -35.001 -19
c-10.667 -5.33301 -24.334 -8 -41.001 -8h-532v221h535c-38.667 60 -88 127.667 -148 203c-14.667 18 -31 36.333 -49 55c-27.333 24.667 -48.666 42.334 -63.999 53.001c-21.333 16.667 -43 29.667 -65 39c-20.667 10 -42 13.667 -64 11l-75 -11l125 195
c148.667 39.333 300.667 57.666 456 54.999c54.667 0 111.334 -3.33301 170.001 -10c56 -8 102.667 -21 140 -39c39.333 -18 70 -42.667 92 -74c21.333 -30 32 -68 32 -114c0 -31.333 -7.33301 -65.666 -22 -102.999c-18 -38 -38.667 -71.333 -62 -100
c-24 -32.667 -49.667 -62.667 -77 -90c-37.333 -34 -64 -57.333 -80 -70h319zM755 427.999c44.667 44 67 83.001 67 117.001c0 53.333 -71 80.666 -213 81.999c-42 0 -116.333 -4.33301 -223 -13c57.333 -34 104.333 -76.333 141 -127c32.667 -42 71 -96.333 115 -163
c12 12 31.667 30.333 59 55z" />
    <glyph glyph-name="uniFECE" unicode="&#x63a;" horiz-adv-x="1081" arabic-form="final" 
d="M565 1260l143 -146l-143 -143l-146 143zM467 102c-131.333 -100.667 -196.997 -207.668 -196.997 -321.001c0 -30 7.33301 -61.333 22 -94c15.333 -31.333 38.666 -58 69.999 -80c27.333 -19.333 69 -37 125 -53c52 -12.667 114 -19 186 -19
c40 2.66699 80.333 6.66699 121 12c30 4.66699 67 12.334 111 23.001c32.667 8 62 16 88 24c24.667 8.66699 41 15 49 19l-86 -279c-104 -31.333 -205.667 -48.333 -305 -51c-113.333 -2.66699 -207 8.33301 -281 33c-80.667 26 -143.334 59.333 -188.001 100
c-48 44 -82.333 94 -103 150c-21.333 56 -32 115.333 -32 178c2.66699 101.333 33.667 195.666 93 282.999s138.666 163 237.999 227c-46 70.667 -86.667 127.334 -122 170.001c-52 62.667 -94.833 105.667 -128.5 129s-70.167 33.666 -109.5 30.999l80 190
c142 34 282 49.667 420 47c56 0 113.333 -3.33301 172 -10c56 -8 101.667 -21 137 -39c40.667 -19.333 72 -44 94 -74s33 -68 33 -114c0 -67.333 -26.667 -132.666 -80 -195.999s-125 -119 -215 -167h457v-221h-371c-40.667 0 -77 2 -109 6c-30 4 -55 10.333 -75 19
c-22 8 -40 18.667 -54 32c-16 15.333 -29.333 30.333 -40 45zM290.003 613.999c48 -28.667 95.332 -70.998 141.999 -126.998c35.333 -47.333 68 -94.333 98 -141c18 9.33301 43.333 25 76 47c24.667 15.333 45.834 31.166 63.501 47.499s32.5 33.5 44.5 51.5
c11.333 17.333 17 35 17 53c0 53.333 -72.333 80.666 -217 81.999c-48 0 -122.667 -4.33301 -224 -13z" />
    <glyph glyph-name="uniFECF" unicode="&#x63a;" horiz-adv-x="1103" arabic-form="initial" 
d="M160 539c14.667 74.667 49.999 135.332 105.999 181.999s124.333 78 205 94c78 15.333 161.333 13.333 250 -6s172 -58.333 250 -117l-41 -153c-87.333 61.333 -167.333 96 -240 104c-72 5.33301 -131.333 -3 -178 -25c-47.333 -22.667 -80.666 -56 -99.999 -100
c-19.333 -44.667 -21.5 -89 -6.5 -133s49.167 -82.333 102.5 -115s129 -49 227 -49h283v-221h-1069v221h344c-24.667 12.667 -46.334 30.334 -65.001 53.001c-22 24.667 -38 50 -48 76c-13.333 28.667 -20.666 58.667 -21.999 90c-4 36 -3.33301 69 2 99zM593.999 1282
l146 -145l-146 -146l-143 146z" />
    <glyph glyph-name="uniFED0" unicode="&#x63a;" horiz-adv-x="1093" arabic-form="medial" 
d="M636 1260l145 -146l-145 -145l-144 145zM1127 221v-221.001h-395c-18 0 -32.333 2.66699 -43 8c-12 4 -22.333 10.333 -31 19c-4 1.33301 -11.333 8 -22 20c-8.66699 8 -15 13.333 -19 16c-4 -2.66699 -10 -8 -18 -16c-4 -5.33301 -13 -12 -27 -20
c-6.66699 -4.66699 -18.334 -11 -35.001 -19c-10.667 -5.33301 -24.334 -8 -41.001 -8h-532v221h535c-38.667 60 -88 127.667 -148 203c-14.667 18 -31 36.333 -49 55c-27.333 24.667 -48.666 42.334 -63.999 53.001c-21.333 16.667 -43 29.667 -65 39
c-20.667 10 -42 13.667 -64 11l-75 -11l125 195c148.667 39.333 300.667 57.666 456 54.999c54.667 0 111.334 -3.33301 170.001 -10c56 -8 102.667 -21 140 -39c39.333 -18 70 -42.667 92 -74c21.333 -30 32 -68 32 -114c0 -31.333 -7.33301 -65.666 -22 -102.999
c-18 -38 -38.667 -71.333 -62 -100c-24 -32.667 -49.667 -62.667 -77 -90c-37.333 -34 -64 -57.333 -80 -70h319zM755 427.999c44.667 44 67 83.001 67 117.001c0 53.333 -71 80.666 -213 81.999c-42 0 -116.333 -4.33301 -223 -13c57.333 -34 104.333 -76.333 141 -127
c32.667 -42 71 -96.333 115 -163c12 12 31.667 30.333 59 55z" />
    <glyph glyph-name="uniFED2" unicode="&#x641;" horiz-adv-x="1882" arabic-form="final" 
d="M1371 1141l-143 143l143 146l146 -146zM1941 221l0.00195312 -221.002h-1584c-30 0 -64.667 5.33301 -104 16c-38 10 -72.833 28 -104.5 54s-57.5 58.667 -77.5 98c-20.667 38 -31 87 -31 147c0 60.667 8.33301 117.334 25 170.001
c13.333 53.333 33.666 102.666 60.999 147.999c27.333 48 56.666 89 87.999 123c31.333 36.667 64 67.334 98 92.001l74 -72c-22 -22 -46 -54 -72 -96c-22.667 -39.333 -41 -79 -55 -119c-14.667 -43.333 -24.334 -84.333 -29.001 -123c-4 -39.333 -0.5 -75.333 10.5 -108
s30.833 -58.667 59.5 -78c28.667 -20.667 68.334 -31 119.001 -31h1225c-11.333 72.667 -21 123.334 -29 152.001c-127.333 -28.667 -226.333 -42.334 -297 -41.001c-74 1.33301 -130.667 9.33301 -170 24c-39.333 14 -64 32.667 -74 56c-12 20 -18 35.667 -18 47
c-2.66699 90 6 167.667 26 233c22 70 48.667 128 80 174c34.667 49.333 71 87 109 113s74 41 108 45c63.333 8 120 -9 170 -51c49.333 -41.333 93 -101.333 131 -180c36 -74 65.667 -162.333 89 -265c20 -91.333 33.333 -193.666 40 -306.999h132zM1201 581.998
c52 -48 172.334 -53 361.001 -15c-54.667 157.333 -116.334 236 -185.001 236c-31.333 0 -58 -11 -80 -33c-26.667 -27.333 -45.667 -51.333 -57 -72c-16 -27.333 -27.667 -52.333 -35 -75c-6.66699 -26 -8 -39.667 -4 -41z" />
    <glyph glyph-name="uniFED3" unicode="&#x641;" horiz-adv-x="1011" arabic-form="initial" 
d="M481 1141l-145 143l145 146l146 -146zM922 178c0 -86 -1.99805 -145.333 -5.99805 -178h-961v221h799c-4 32.667 -13.667 83.334 -29 152.001c-126.667 -28.667 -225.667 -42.334 -297 -41.001c-74 1.33301 -130.667 9.33301 -170 24c-38 14 -62.667 32.667 -74 56
c-12 20 -18 35.667 -18 47c-2.66699 88.667 6.33301 165.667 27 231c20 67.333 46.333 125.333 79 174c34.667 49.333 71 87 109 113c40.667 27.333 77 43 109 47c66.667 8 125.167 -11.167 175.5 -57.5s94.166 -109.833 131.499 -190.5
c35.333 -79.333 64.666 -172 87.999 -278c20.667 -105.333 33 -212 37 -320zM311.002 582c10 -10 24.9971 -18.333 44.9971 -25c19.333 -6.66699 42.666 -10.667 69.999 -12c32.667 -2.66699 67.334 -2 104.001 2c30.667 1.33301 77.334 8 140.001 20
c-53.333 157.333 -114.333 236 -183 236c-31.333 0 -57.666 -11 -78.999 -33c-27.333 -27.333 -46.666 -51.333 -57.999 -72c-16 -27.333 -27.667 -52.333 -35 -75c-6.66699 -26 -8 -39.667 -4 -41z" />
    <glyph glyph-name="uniFED4" unicode="&#x641;" horiz-adv-x="1009" arabic-form="medial" 
d="M473 1141l-143 143l143 146l146 -146zM1055 221l0.000976562 -221.001h-1102v221h793c-4.66699 32.667 -14.334 83.334 -29.001 152.001c-127.333 -28.667 -226.333 -42.334 -297 -41.001c-74 1.33301 -130.667 9.33301 -170 24c-38 14 -62.667 32.667 -74 56
c-12 20 -18 35.667 -18 47c-2.66699 88.667 6 165.667 26 231c22 70 48.667 128 80 174c34 49.333 70.333 87 109 113c40.667 27.333 76.667 43 108 47c63.333 8 120 -9 170 -51c49.333 -41.333 93 -101.333 131 -180c36 -74 65.667 -162.333 89 -265
c20 -91.333 33.333 -193.666 40 -306.999h144zM303.001 581.999c10 -10 25.001 -18.333 45.001 -25c19.333 -6.66699 42.666 -10.667 69.999 -12c32.667 -2.66699 67.334 -2 104.001 2c28.667 1.33301 76 8 142 20c-54.667 157.333 -116.334 236 -185.001 236
c-31.333 0 -58 -11 -80 -33c-26.667 -27.333 -45.667 -51.333 -57 -72c-16 -27.333 -27.667 -52.333 -35 -75c-6.66699 -26 -8 -39.667 -4 -41z" />
    <glyph glyph-name="uniFED6" unicode="&#x642;" horiz-adv-x="1280" arabic-form="final" 
d="M709 909l-146 146l146 145l143 -145zM1028 909l-143 146l143 145l145 -145zM1395 221l-0.00195312 -220.998h-54c-5.33301 0 -51 2 -137 6l-6 -43c-10.667 -60 -31.667 -122 -63 -186c-36 -68.667 -80.667 -131.667 -134 -189
c-54.667 -58.667 -121.5 -107.667 -200.5 -147s-168.5 -59 -268.5 -59c-90 0 -166.333 18.333 -229 55c-62.667 39.333 -114 88.333 -154 147c-40.667 62.667 -67.667 130.334 -81 203.001c-15.333 78 -19 154.333 -11 229c5.33301 75.333 24 147.666 56 216.999
c28.667 68.667 67.334 126.334 116.001 173.001l68 -80c-61.333 -93.333 -92 -188.333 -92 -285c0 -54.667 8 -106.667 24 -156c16.667 -47.333 41.334 -91 74.001 -131c28.667 -34 68.334 -63.333 119.001 -88c49.333 -23.333 102.666 -35 159.999 -35
c52.667 0 103.667 10.333 153 31c53.333 24.667 97.666 52.667 132.999 84c38.667 35.333 73.667 76.333 105 123c27.333 45.333 48.333 93 63 143c-128 11.333 -220 23 -276 35c-67.333 12.667 -118 27.667 -152 45c-34 16.667 -55.167 35.167 -63.5 55.5
s-12.5 41.5 -12.5 63.5c0 87.333 11 165.666 33 234.999c19.333 70 46 131 80 183c30 50.667 65 90.334 105 119.001c39.333 26.667 75.333 40 108 40c49.333 0 95 -15 137 -45c38.667 -28.667 74.334 -70.334 107.001 -125.001c30 -52.667 54.333 -113.334 73 -182.001
c19.333 -70.667 31 -142.334 35 -215.001h185zM677.998 348.002c0 -5.33301 1.33301 -15 4 -29c1.33301 -9.33301 13.666 -18 36.999 -26c20.667 -9.33301 56.667 -18.333 108 -27c38.667 -8 111.667 -17.333 219 -28c-6.66699 54 -16.667 101 -30 141
c-15.333 42 -31.666 75.333 -48.999 100c-16.667 24.667 -36 45.334 -58 62.001c-17.333 13.333 -35 21.333 -53 24c-27.333 5.33301 -51.833 -0.833984 -73.5 -18.501s-40.167 -40.167 -55.5 -67.5c-18 -27.333 -30.333 -53.333 -37 -78c-8 -27.333 -12 -45 -12 -53z" />
    <glyph glyph-name="uniFED7" unicode="&#x642;" horiz-adv-x="1017" arabic-form="initial" 
d="M930 180c0 -87.333 -2.00098 -147.332 -6.00098 -179.999h-975v221h813c-5.33301 36.667 -15 88 -29 154c-126.667 -28.667 -225.667 -42.334 -297 -41.001c-73.333 1.33301 -130 9.33301 -170 24c-40.667 15.333 -65.667 34 -75 56c-12.667 20 -19 35.667 -19 47
c-2.66699 90 7 167 29 231c20.667 67.333 47.334 125.333 80.001 174c34 49.333 70 87 108 113c41.333 27.333 77.666 43 108.999 47c66.667 8 125.334 -11.167 176.001 -57.5s94.334 -109.833 131.001 -190.5c35.333 -79.333 64.666 -172 87.999 -278
c20.667 -104 33 -210.667 37 -320zM319.999 584.001c9.33301 -10 24.334 -18.333 45.001 -25c18.667 -6.66699 41.667 -10.667 69 -12c33.333 -2.66699 68.333 -2 105 2c30 1.33301 76.333 8 139 20c-53.333 157.333 -114 236 -182 236c-31.333 0 -58 -11 -80 -33
c-27.333 -27.333 -46.333 -51.333 -57 -72c-16.667 -27.333 -28.334 -52.333 -35.001 -75c-6.66699 -26 -8 -39.667 -4 -41zM275 1432l145 -146l-145 -145l-146 145zM742 1286l-146 -145l-145 145l145 146z" />
    <glyph glyph-name="uniFED8" unicode="&#x642;" horiz-adv-x="960" arabic-form="medial" 
d="M1018 221v-221h-1073v221h764c-5.33301 36.667 -15 88 -29 154c-126.667 -28.667 -225.667 -42.334 -297 -41.001c-73.333 1.33301 -130 9.33301 -170 24c-40.667 15.333 -65.667 34 -75 56c-12.667 20 -19 35.667 -19 47c-2.66699 90 7 167 29 231
c20 67.333 46.667 125.333 80 174c34 49.333 70 87 108 113c41.333 27.333 77.666 43 108.999 47c61.333 8 118 -9.66699 170 -53c48.667 -41.333 92.334 -101.333 131.001 -180c35.333 -74 64.666 -162.333 87.999 -265c20.667 -91.333 34.334 -193.666 41.001 -306.999
h143zM267 584c9.33301 -10 24.3311 -18.333 44.998 -25c18.667 -6.66699 41.667 -10.667 69 -12c32.667 -2.66699 67.667 -2 105 2c30 1.33301 76.333 8 139 20c-53.333 157.333 -114 236 -182 236c-31.333 0 -58 -11 -80 -33c-27.333 -27.333 -46.666 -51.333 -57.999 -72
c-16 -27.333 -27.333 -52.333 -34 -75c-7.33301 -26 -8.66602 -39.667 -3.99902 -41zM220.998 1432l146 -146l-146 -145l-145 145zM685.998 1286l-143 -145l-145 145l145 146z" />
    <glyph glyph-name="uniFEDA" unicode="&#x643;" horiz-adv-x="1765" arabic-form="final" 
d="M355 0c-31.333 0 -66.667 5.33008 -106 15.9971c-34 10 -67.333 28 -100 54c-32 26 -58 58.667 -78 98c-20.667 40.667 -31 90.334 -31 149.001c0 62 8.33301 118 25 168c14.667 50.667 35 98 61 142c24.667 43.333 53.334 82 86.001 116
c28.667 33.333 61.334 62.666 98.001 87.999l19 -71c-27.333 -27.333 -50 -58.666 -68 -93.999c-18.667 -37.333 -33.667 -76.333 -45 -117c-10.667 -44 -15.334 -83 -14.001 -117c0 -38 7.33301 -73.333 22 -106c15.333 -31.333 38.666 -56.666 69.999 -75.999
s72.333 -29 123 -29h1047c-32.667 98.667 -89 173.834 -169 225.501s-191 85.167 -333 100.5c-60 5.33301 -111.667 8 -155 8v211c0 34 4.66699 63.333 14 88c8 24.667 19.667 46.667 35 66c12 16 29 32.333 51 49l55 41l467 290c57.333 34.667 102.833 46.5 136.5 35.5
s50.5 -39.833 50.5 -86.5v-178c-22 46.667 -74.667 44.667 -158 -6l-473 -297c110.667 -12 209 -34 295 -66c82 -32.667 153.667 -72.667 215 -120c57.333 -46.667 104.333 -100.667 141 -162c37.333 -64 63.333 -130.333 78 -199h92v-221h-1451z" />
    <glyph glyph-name="uniFEDB" unicode="&#x643;" horiz-adv-x="1093" arabic-form="initial" 
d="M310 768c138 -13.333 256.333 -43.332 355 -89.999c95.333 -46.667 172.333 -103.334 231 -170.001c57.333 -64 99.666 -141.333 126.999 -232c26 -86 39 -178 39 -276h-1102v221h827c-32.667 98.667 -88.5 173.834 -167.5 225.501s-190.167 85.167 -333.5 100.5
c-58.667 5.33301 -110.667 8 -156 8v211c0 34 4.66699 63.333 14 88c8.66699 24.667 20.334 46.667 35.001 66c12.667 16 29.667 32.333 51 49l58 41l465 290c57.333 36 103 48.167 137 36.5s51 -40.834 51 -87.501v-178c-26 45.333 -78.667 43.333 -158 -6z" />
    <glyph glyph-name="uniFEDC" unicode="&#x643;" horiz-adv-x="1069" arabic-form="medial" 
d="M1116 221v-221.001h-1161v221h819c-32.667 98.667 -89 173.834 -169 225.501s-191 85.167 -333 100.5c-60 5.33301 -111.667 8 -155 8v211c0 34 4.66699 63.333 14 88c8 24.667 19.667 46.667 35 66c12 16 29 32.333 51 49l55 41l467 290
c57.333 34.667 102.833 46.5 136.5 35.5s50.5 -39.833 50.5 -86.5v-178c-22 46.667 -74.667 44.667 -158 -6l-473 -297c110.667 -12 209 -34 295 -66c82 -32.667 153.667 -72.667 215 -120c57.333 -46.667 104.333 -100.667 141 -162c37.333 -64 63.333 -130.333 78 -199h92
z" />
    <glyph glyph-name="uniFEDE" unicode="&#x644;" horiz-adv-x="1333" arabic-form="final" 
d="M1407 221v-221.001h-225c0 -82 -14.333 -158.5 -43 -229.5s-67.667 -131.833 -117 -182.5c-50.667 -50 -110.834 -89.333 -180.501 -118s-145.5 -43 -227.5 -43s-157 14.333 -225 43c-69.333 28.667 -129.333 68.167 -180 118.5s-89.667 111.166 -117 182.499
c-28.667 70.667 -43 147 -43 229c0 174.667 60 320 180 436l76 -88c-57.333 -73.333 -86 -162 -86 -266c0 -57.333 9.66699 -112.666 29 -165.999c17.333 -49.333 44 -93.666 80 -132.999c32.667 -38 71.334 -68.667 116.001 -92c44 -22 93.333 -33 148 -33
c118.667 0 211.167 37.5 277.5 112.5s99.5 178.833 99.5 311.5l2 1100l211 131v-1092h225z" />
    <glyph glyph-name="uniFEDF" unicode="&#x644;" horiz-adv-x="600" arabic-form="initial" 
d="M486 0h-512v221h301v961l211 129v-1311z" />
    <glyph glyph-name="uniFEE0" unicode="&#x644;" horiz-adv-x="638" arabic-form="medial" 
d="M703 221v-221h-748v221h332v961l211 129v-1090h205z" />
    <glyph glyph-name="uniFEE2" unicode="&#x645;" horiz-adv-x="1122" arabic-form="final" 
d="M1154 0h-184.001c-14 -49.333 -29.667 -90.333 -47 -123l-29 -47c-57.333 64 -118.5 108.333 -183.5 133s-140.5 37 -226.5 37h-194c-27.333 -0 -41 -19.667 -41 -59v-619l-211 -131v750c0 52.667 8.33301 96.334 25 131.001c14.667 34 33.667 63.333 57 88
c20.667 22 44.667 37.667 72 47c24 9.33301 47.667 14 71 14h92c6 53.333 16.333 108.666 31 165.999c15.333 56 36 107.333 62 154c22.667 44.667 52 82.667 88 114c35.333 28.667 74 43 116 43c52 0 98 -15.667 138 -47c38 -32.667 70.667 -73 98 -121
c28.667 -48.667 50.334 -99.667 65.001 -153c14 -53.333 24.333 -105.333 31 -156h170v-221zM854.999 117c2.66699 61.333 -2.00195 112.334 -14.002 153.001c-15.333 44 -31.666 79 -48.999 105c-20.667 27.333 -42 47.666 -64 60.999c-22 12.667 -43 17.667 -63 15
c-32.667 -4.66699 -61.667 -24 -87 -58s-53 -91.333 -83 -172h22c140.667 0 253.334 -34.667 338.001 -104z" />
    <glyph glyph-name="uniFEE3" unicode="&#x645;" horiz-adv-x="987" arabic-form="initial" 
d="M572 698c40 0 77.001 -9.3291 111.001 -27.9961c31.333 -18 61.333 -43.333 90 -76c24.667 -28.667 47.334 -64.334 68.001 -107.001c18.667 -40.667 35 -81.334 49 -122.001c13.333 -46.667 22.666 -86.334 27.999 -119.001c6 -34 9 -69 9 -105
c0 -82 -18.667 -156.333 -56 -223c-16 -32.667 -35 -62 -57 -88c-54.667 64 -114.834 108.333 -180.501 133s-141.5 37 -227.5 37h-446v221h315c6 53.333 16.333 108.666 31 165.999c15.333 56 36 107.333 62 154c22.667 44.667 52 82.667 88 114
c35.333 28.667 74 43 116 43zM775.001 117.004c2.66699 61.333 -2.00098 112.334 -14.001 153.001c-15.333 44 -31.666 79 -48.999 105c-20.667 27.333 -42 47.666 -64 60.999c-22 12.667 -43 17.667 -63 15c-33.333 -4.66699 -62.5 -24 -87.5 -58
s-51.833 -91.333 -80.5 -172h22c139.333 0 251.333 -34.667 336 -104z" />
    <glyph glyph-name="uniFEE4" unicode="&#x645;" horiz-adv-x="935" arabic-form="medial" 
d="M996 0l-184.001 0.000976562c-14 -49.333 -29.667 -90.333 -47 -123l-29 -47c-57.333 64 -118.5 108.333 -183.5 133s-139.833 37 -224.5 37h-360v221h229c6 53.333 16.333 108.666 31 165.999c15.333 56 36 107.333 62 154c22.667 44.667 52 82.667 88 114
c35.333 28.667 74 43 116 43c52 0 98 -15.667 138 -47c38 -32.667 70.667 -73 98 -121c28.667 -48.667 50.334 -99.667 65.001 -153c14 -53.333 24.333 -105.333 31 -156h170v-221zM696.999 117.001c2.66699 61.333 -2.00098 112.334 -14.001 153.001
c-15.333 44 -31.666 79 -48.999 105c-20.667 27.333 -42 47.666 -64 60.999c-22 12.667 -43 17.667 -63 15c-33.333 -4.66699 -62.833 -24 -88.5 -58s-52.834 -91.333 -81.501 -172h22c140.667 0 253.334 -34.667 338.001 -104z" />
    <glyph glyph-name="uniFEE6" unicode="&#x646;" horiz-adv-x="1269" arabic-form="final" 
d="M557 670l-145 143l145 145l143 -145zM1352 0h-168.004c-15.333 -56 -36.666 -111.333 -63.999 -166c-32.667 -58.667 -70.667 -109.667 -114 -153c-44 -42.667 -100 -80.334 -168 -113.001c-63.333 -28.667 -137.333 -43 -222 -43c-100.667 0 -188 15.667 -262 47
c-69.333 30 -126.666 69.667 -171.999 119c-43.333 47.333 -75.333 99 -96 155c-20.667 54.667 -33 107.334 -37 158.001c-4 46.667 -2 93.667 6 141c5.33301 41.333 16.333 86.666 33 135.999c14 39.333 32.333 79.333 55 120c16.667 30 38.667 63.667 66 101l90 -68
c-58.667 -84.667 -90 -168 -94 -250c-5.33301 -78.667 8.33398 -150.334 41.001 -215.001c31.333 -61.333 79 -111.666 143 -150.999c62.667 -38.667 132.334 -58 209.001 -58c49.333 0 100.666 9.66699 153.999 29c44.667 19.333 90.334 45.333 137.001 78
c40.667 32.667 76 68 106 106c28.667 40 48 78.333 58 115c-28.667 118.667 -97.667 263.334 -207 434.001l147 213c110.667 -182.667 177.667 -354 201 -514h158v-221z" />
    <glyph glyph-name="uniFEE7" unicode="&#x646;" horiz-adv-x="753" arabic-form="initial" 
d="M455 973l-143 -144l-145 144l145 145zM505 772c100.667 -203.333 151 -389.667 151 -559c0 -68 -5.33301 -139 -16 -213h-672v221h535c-10 32.667 -20.333 63.334 -31 92.001c-20.667 45.333 -33.667 72.666 -39 81.999l-47 84l-53 94z" />
    <glyph glyph-name="uniFEE8" unicode="&#x646;" horiz-adv-x="638" arabic-form="medial" 
d="M275 1137l144 -146l-144 -143l-145 143zM687 219l0.00195312 -219h-727v219h459l-33 94c-16.667 38.667 -29.667 66.667 -39 84c-28.667 52 -44.334 80.667 -47.001 86c-32.667 57.333 -50.334 88 -53.001 92l172 199c98 -194 148.333 -379 151 -555h117z" />
    <glyph glyph-name="uniFEEA" unicode="&#x647;" horiz-adv-x="890" arabic-form="final" 
d="M956 221l0.000976562 -221.002h-266c-5.33301 44 -13.333 90.333 -24 139l-82 -155c-12.667 8 -31.334 15.333 -56.001 22c-31.333 5.33301 -53 8.66602 -65 9.99902c-30 2.66699 -53.333 4 -70 4h-63h-279c-4 36 0 100.333 12 193
c7.33301 40.667 18.333 80.334 33 119.001c18 46 39.333 89 64 129c20 36.667 48 78.334 84 125.001c30 39.333 63.333 75.333 100 108c34 31.333 68.667 56 104 74c36 19.333 70.333 29 103 29c36.667 0 69.334 -19.333 98.001 -58
c27.333 -35.333 52.666 -83.666 75.999 -144.999c22 -57.333 41 -120 57 -188c24.667 -119.333 37.667 -181 39 -185h135zM393.001 249.998c91.333 0 158.333 -7.66895 201 -23.002c26 -6.66699 45.667 -14.667 59 -24c-12 50.667 -23 92.334 -33 125.001
c-18.667 56 -32 92.667 -40 110c-14 30 -30 56 -48 78c-18.667 19.333 -37 29 -55 29c-22 0 -43.667 -6.33301 -65 -19c-26 -14.667 -50.667 -33.667 -74 -57c-26 -26 -50 -56.667 -72 -92s-42.333 -77.666 -61 -126.999h188z" />
    <glyph glyph-name="uniFEEE" unicode="&#x648;" horiz-adv-x="813" arabic-form="final" 
d="M868 0h-152.002c-10.667 -116 -35 -217.667 -73 -305c-45.333 -102.667 -120.666 -216.667 -225.999 -342l-229 192c177.333 117.333 294 268.333 350 453c-64 2.66699 -111.667 5.33398 -143 8.00098c-52 1.33301 -103.333 9 -154 23
c-44.667 9.33301 -85.667 25 -123 47c-35.333 20 -53.666 47.333 -54.999 82l-2 43c0 56 6.66699 116 20 180c15.333 69.333 36.666 132.666 63.999 189.999c26 58.667 60 110 102 154c40 40.667 86.667 61 140 61c44.667 0 86.334 -15 125.001 -45
c35.333 -30 68 -71.667 98 -125c27.333 -50 50.333 -110.667 69 -182c18 -66.667 30.333 -137.667 37 -213h152v-221zM193.998 309c0 -17.333 11.667 -31.6709 35 -43.0039c22 -9.33301 52 -17.333 90 -24c45.333 -8.66699 85 -13.667 119 -15c40.667 -4 83 -6 127 -6
c-6.66699 50.667 -15.667 93 -27 127c-14.667 42.667 -30.334 76.334 -47.001 101.001c-19.333 28.667 -39.666 50.334 -60.999 65.001c-22 16.667 -45.333 25 -70 25c-26 0 -48.667 -9 -68 -27c-20 -18 -37 -39 -51 -63c-16 -27.333 -27.667 -52.666 -35 -75.999
c-8 -27.333 -12 -48.666 -12 -63.999z" />
    <glyph glyph-name="uniFEF0" unicode="&#x649;" horiz-adv-x="1409" arabic-form="final" 
d="M1460 221l0.000976562 -221.001h-182c22 -22 33 -47.333 33 -76c0 -30 -15.667 -69 -47 -117c-30 -46 -76.667 -91 -140 -135c-61.333 -40.667 -138.333 -76.667 -231 -108c-91.333 -28.667 -197.333 -41 -318 -37c-94 4 -175 18.333 -243 43
c-67.333 24.667 -122.666 56.667 -165.999 96c-42.667 38.667 -73.334 84.334 -92.001 137.001c-19.333 54.667 -28.333 110 -27 166c2.66699 160 64.667 318.333 186 475l33 -41c-23.333 -47.333 -39.666 -95.666 -48.999 -144.999
c-9.33301 -50.667 -13.333 -100.334 -12 -149.001c2.66699 -52 12 -98.667 28 -140c19.333 -43.333 45.333 -80.666 78 -111.999c75.333 -75.333 193.666 -114.333 354.999 -117c60 0 118 6 174 18c61.333 16.667 108.333 32.334 141 47.001
c40.667 18 73.334 38.667 98.001 62c23.333 23.333 35 43.666 35 60.999c0 26 -12 50 -36 72s-60.333 46.667 -109 74c-62 34 -105.833 68 -131.5 102s-42.167 70.333 -49.5 109c-6.66699 36.667 -4.33398 72.667 6.99902 108c13.333 46.667 24.666 80.334 33.999 101.001
c11.333 -22 24.333 -43.333 39 -64c37.333 -46.667 86 -86.334 146 -119.001c14.667 -8 46 -23 94 -45c22 -10.667 49.333 -19.334 82 -26.001c34 -8.66699 64 -13.667 90 -15c40.667 -2.66699 79 -4 115 -4h65z" />
    <glyph glyph-name="uniFEF2" unicode="&#x64a;" horiz-adv-x="1386" arabic-form="final" 
d="M1554 221l-0.000976562 -221.002h-88c-62.667 0 -115.334 2.66699 -158.001 8c-13.333 -46 -37.666 -97 -72.999 -153c-36 -56 -82.667 -108.667 -140 -158s-126 -90.333 -206 -123c-82 -32.667 -176.333 -49 -283 -49c-104 0 -190 17 -258 51
c-69.333 34 -126 77 -170 129c-45.333 56 -76.666 113.333 -93.999 172c-19.333 61.333 -29.666 119.333 -30.999 174c-1.33301 52 4 106 16 162c10 50.667 26 102 48 154c21.333 50 44.333 95 69 135c27.333 43.333 54.666 80.666 81.999 111.999l90 -86
c-68 -94 -108.833 -186.667 -122.5 -278s-7.5 -172.666 18.5 -243.999c26 -72 69 -129.833 129 -173.5s131 -65.5 213 -65.5c58.667 0 118 7.33301 178 22c58.667 18 110.667 38.333 156 61c48.667 27.333 91 56.333 127 87c38 34 68.667 67.333 92 100
c-108 34 -188.667 73.667 -242 119c-8 4 -14 8.66699 -18 14c-6 4 -14.333 13 -25 27c-9.33301 10.667 -16.666 24.334 -21.999 41.001c-7.33301 16 -11 33 -11 51v155c38.667 -39.333 74.334 -70.666 107.001 -93.999c39.333 -28.667 81.666 -51.667 126.999 -69
c47.333 -18 100.666 -32.333 159.999 -43c62.667 -11.333 130.667 -17 204 -17h125zM574.999 -582.002l146 -145l-146 -145l-143 145zM896.999 -582.002l145 -145l-145 -145l-144 145z" />
    <glyph glyph-name="uniFEF3" unicode="&#x64a;" horiz-adv-x="839" arabic-form="initial" 
d="M220 -172l145 -145l-145 -146l-143 146zM687 -317l-146 -146l-143 146l143 145zM615 772c101.333 -203.333 151.999 -389.667 151.999 -559c0 -68 -5.66699 -139 -17 -213h-782v221h645c-9.33301 32.667 -19.666 63.334 -30.999 92.001c-20 45.333 -33 72.666 -39 81.999
l-47 84l-53 94z" />
    <glyph glyph-name="uniFEF4" unicode="&#x64a;" horiz-adv-x="694" arabic-form="medial" 
d="M566 -172l146 -145l-146 -146l-145 146zM253 -172l145 -145l-145 -146l-146 146zM734 221v-221.002h-774v221h516c-12 38.667 -23 69.334 -33 92.001c-16 38.667 -29 67.334 -39 86.001l-47 84c-32.667 57.333 -50.334 88 -53.001 92l172 199
c98.667 -194 149.334 -378.333 152.001 -553h106z" />
    <glyph glyph-name=".notdef" horiz-adv-x="999" 
d="M60 0v1242h879v-1242h-879zM161 101h672v1040h-672v-1040z" />
    <glyph glyph-name="space" unicode=" " horiz-adv-x="640" 
 />
    <glyph glyph-name="exclam" unicode="!" horiz-adv-x="474" 
d="M170 355l-76 1110l257 110l-49 -1134zM108 59l-44 41l31 29l117 122l89 -87l89 -82l-150 -151z" />
    <glyph glyph-name="quotedbl" unicode="&#x22;" horiz-adv-x="722" 
d="M274 973h-121l-10 440h143zM569 973h-119l-12 440h141z" />
    <glyph glyph-name="numbersign" unicode="#" horiz-adv-x="1402" 
d="M1065 918l-66 -369h226l-23 -113h-221l-76 -436h-139l76 436h-375l-76 -436h-139l76 436h-238l23 113h233l66 369h-236l23 112h231l68 383h139l-68 -383h375l68 383h139l-68 -383h228l-23 -112h-223zM926 918h-375l-66 -369h375z" />
    <glyph glyph-name="dollar" unicode="$" horiz-adv-x="1155" 
d="M644 788l119.003 -29.9971c105.333 -26 179.5 -70.5 222.5 -133.5s64.5 -151.167 64.5 -264.5c0 -155.333 -35.167 -258.333 -105.5 -309s-193.5 -76 -369.5 -76h-4l-19 -235h-94l18 237c-122.667 6 -236 18.333 -340 37l13 138l142 -4.5
c51.333 -1.66699 91.666 -2.83398 120.999 -3.50098s55.666 -1 78.999 -1l37 496l-131 33c-100 24.667 -171.833 68.667 -215.5 132s-65.5 150.333 -65.5 261c0 82 8.5 147.833 25.5 197.5s46.333 87.167 88 112.5s88.167 42.166 139.5 50.499s120 12.5 206 12.5h24l15 198
h92l-15 -202c113.333 -4.66699 214.666 -17 303.999 -37l-13 -131c-110.667 5.33301 -211.667 8.66602 -303 9.99902zM587.003 1276h-4.00098c-60 0 -104.333 -1.33301 -133 -4s-56.667 -10.834 -84 -24.501s-45.5 -35.167 -54.5 -64.5s-13.5 -70 -13.5 -122
c0 -75.333 13.333 -128.666 40 -159.999s73.334 -55.333 140.001 -72l74 -18zM620.002 614.003l-37 -471.001c110.667 0 185.5 14 224.5 42s58.5 88 58.5 180c0 77.333 -13 131.333 -39 162s-72.667 54.334 -140 71.001z" />
    <glyph glyph-name="percent" unicode="%" horiz-adv-x="1830" 
d="M424 1440c121.333 0 206.5 -32.167 255.5 -96.5s73.5 -172.166 73.5 -323.499s-24.5 -259.166 -73.5 -323.499s-134.167 -96.5 -255.5 -96.5c-120.667 0 -205.5 32.167 -254.5 96.5s-73.5 172.166 -73.5 323.499s24.5 259.166 73.5 323.499s133.833 96.5 254.5 96.5z
M516 0h-123l915 1413h123zM423.5 1329c-73.667 0 -124.5 -22.832 -152.5 -68.499s-42 -125.834 -42 -240.501s14 -194.834 42 -240.501s78.833 -68.5 152.5 -68.5s124.5 22.5 152.5 67.5s42 125.5 42 241.5c0 114.667 -14 194.834 -42 240.501s-78.833 68.5 -152.5 68.5z
M1404.5 819.001c120.333 0 205 -32 254 -96s73.5 -171.333 73.5 -322c0 -151.333 -24.5 -259 -73.5 -323s-133.667 -96 -254 -96s-205 32 -254 96s-73.5 171.667 -73.5 323c0 150.667 24.5 258 73.5 322s133.667 96 254 96zM1402.5 709.001
c-73.667 0 -124.5 -22.333 -152.5 -67s-41.333 -125 -40 -241c-1.33301 -116 12 -196.833 40 -242.5s78.833 -68.5 152.5 -68.5s124.834 22.833 153.501 68.5s43 126.5 43 242.5c0 114.667 -14.333 194.667 -43 240s-79.834 68 -153.501 68z" />
    <glyph glyph-name="ampersand" unicode="&#x26;" horiz-adv-x="1581" 
d="M1464 135l21.002 -127.001c-62 -17.333 -134.667 -26 -218 -26c-141.333 0 -223 58.667 -245 176c-60 -64.667 -126.167 -110.5 -198.5 -137.5s-163.166 -40.5 -272.499 -40.5c-150.667 0 -257.334 27.833 -320.001 83.5s-94 153.834 -94 294.501
c0 113.333 21.167 201.5 63.5 264.5s113.166 98.5 212.499 106.5v8c-82.667 8.66699 -142.5 39.834 -179.5 93.501s-55.5 132.5 -55.5 236.5c0 82 9.5 147.167 28.5 195.5s52.5 85.166 100.5 110.499s101.667 41.833 161 49.5s140.666 11.5 243.999 11.5
c126 0 234.667 -7 326 -21l-20 -133c-54.667 4 -158.667 6 -312 6c-134.667 0 -226 -15 -274 -45s-72 -96.333 -72 -199c0 -94 19.833 -157.667 59.5 -191s111.5 -50 215.5 -50h385l16 262h145v-262h256v-137h-256v-396c0 -47.333 10 -81.333 30 -102s54 -31 102 -31h151z
M1018 663.999l-391.999 -0.000976562c-113.333 0 -191.833 -19.5 -235.5 -58.5s-65.5 -111.833 -65.5 -218.5c0 -95.333 19.167 -161.166 57.5 -197.499s108.166 -54.5 209.499 -54.5c180 1.33301 322 55.333 426 162v367z" />
    <glyph glyph-name="quotesingle" unicode="'" horiz-adv-x="428" 
d="M274 973h-121l-10 440h143z" />
    <glyph glyph-name="parenleft" unicode="(" horiz-adv-x="553" 
d="M456 -399c-133.333 149.333 -232.334 296.333 -297.001 441s-97 290.334 -97 437.001c0 72 8.66699 145.667 26 221s43 150.666 77 225.999c33.333 75.333 75 150 125 224s108 146 174 216h19c-87.333 -150.667 -153.666 -300 -198.999 -448
c-46 -148 -69 -296.333 -69 -445c0 -144.667 22.667 -289 68 -433c44.667 -144 108 -290.333 190 -439h-17z" />
    <glyph glyph-name="parenright" unicode=")" horiz-adv-x="556" 
d="M61 -399c82 148.667 145.668 295 191.001 439c44.667 144 67 288.333 67 433c0 148.667 -22.667 297 -68 445c-46 148 -112.667 297.333 -200 448h19c66 -70 124 -142 174 -216s92 -148.667 126 -224c33.333 -75.333 58.666 -150.666 75.999 -225.999s26 -149 26 -221
c0 -146.667 -32.333 -292.334 -97 -437.001s-163.667 -291.667 -297 -441h-17z" />
    <glyph glyph-name="asterisk" unicode="*" horiz-adv-x="921" 
d="M497 1085l205 -264l-84 -61l-158 252l-157 -250l-87 61l205 262l-14 330h106zM386 1137v-45l-22 -29l-254 67l35 101zM812 1128l-256 -65l-24 29v45l246 94z" />
    <glyph glyph-name="plus" unicode="+" horiz-adv-x="1128" 
d="M1011 547h-383v-363h-133v363h-381v131h381v360h135v-360h381v-131z" />
    <glyph glyph-name="comma" unicode="," horiz-adv-x="466" 
d="M209 242l50.999 0.000976562c24.667 0 41.334 -4.83301 50.001 -14.5s13 -26.834 13 -51.501v-131c-1.33301 -116 -25 -221 -71 -315l-82 24c13.333 80.667 20 162.667 20 246c-32.667 0 -49 19 -49 57v119c1.33301 44 24 66 68 66z" />
    <glyph glyph-name="hyphen" unicode="-" horiz-adv-x="919" 
d="M772 451h-625v133h625v-133z" />
    <glyph glyph-name="period" unicode="." horiz-adv-x="468" 
d="M205 242h57c24.667 0 41.667 -4.83301 51 -14.5s14 -26.834 14 -51.501v-110c0 -24.667 -4.66699 -41.834 -14 -51.501s-26.333 -14.5 -51 -14.5h-57c-23.333 0 -40.166 4.83301 -50.499 14.5s-15.5 26.834 -15.5 51.501v110c0 24.667 5.16699 41.834 15.5 51.501
s27.166 14.5 50.499 14.5z" />
    <glyph glyph-name="slash" unicode="/" horiz-adv-x="797" 
d="M133 -69c-23.333 8 -43.333 15.333 -60 22l-56 21l623 1548l116 -45z" />
    <glyph glyph-name="zero" unicode="0" horiz-adv-x="1234" 
d="M616.5 1440c179 0 305 -56.667 378 -170s109.5 -301.166 109.5 -563.499s-36.5 -450.166 -109.5 -563.499s-199 -170 -378 -170s-304.667 56.667 -377 170s-108.5 301.166 -108.5 563.499s36.167 450.166 108.5 563.499s198 170 377 170zM616 1282
c-116 0 -196.5 -43 -241.5 -129s-67.5 -234.833 -67.5 -446.5s22.5 -360.5 67.5 -446.5s125.5 -129 241.5 -129s197 43 243 129s69 234.833 69 446.5s-23 360.5 -69 446.5s-127 129 -243 129z" />
    <glyph glyph-name="one" unicode="1" horiz-adv-x="815" 
d="M586 0h-181v1120c0 48 3.66699 89 11 123l-346 -108l-25 133l360 145h181v-1413z" />
    <glyph glyph-name="two" unicode="2" horiz-adv-x="1150" 
d="M137 1245l-12.999 138.998c152 36 295.333 54 430 54c149.333 0 259.166 -20.833 329.499 -62.5s105.5 -122.5 105.5 -242.5c0 -89.333 -18.5 -171.166 -55.5 -245.499s-102.5 -164.166 -196.5 -269.499l-406 -452c64 5.33301 140.667 8 230 8h479v-174h-928v113
c0 32.667 9 58.334 27 77.001l409 463c92.667 100 159.5 187.167 200.5 261.5s60.167 144.166 57.5 209.499c-1.33301 64.667 -22.833 106.5 -64.5 125.5s-108.167 28.5 -199.5 28.5c-136.667 0 -271.667 -11 -405 -33z" />
    <glyph glyph-name="three" unicode="3" horiz-adv-x="1138" 
d="M145 1264l-14.001 139c138.667 24.667 271 37 397 37c158 0 270.167 -24 336.5 -72s99.5 -133.333 99.5 -256c0 -210 -69 -328.667 -207 -356v-8c87.333 -15.333 149.5 -52.333 186.5 -111s56.833 -140 59.5 -244c2.66699 -146 -30.5 -252.5 -99.5 -319.5
s-185.167 -100.5 -348.5 -100.5c-127.333 0 -277 12.333 -449 37l12 146c154.667 -14 285 -21 391 -21c114.667 0 196 20.5 244 61.5s72 112.833 72 215.5c0 86 -19.5 150.833 -58.5 194.5s-113.167 65.5 -222.5 65.5h-262v141h262c101.333 1.33301 168 24.5 200 69.5
s48 107.833 48 188.5c-1.33301 86 -21.833 142.333 -61.5 169s-115.5 40 -227.5 40c-113.333 0 -232.666 -5.33301 -357.999 -16z" />
    <glyph glyph-name="four" unicode="4" horiz-adv-x="1259" 
d="M1204 365l-182 -19v-346h-170v346h-586c-57.333 0 -100 23.167 -128 69.5s-30.333 96.166 -7 149.499l401 848h178l-395 -835c-10.667 -27.333 -11 -48.166 -1 -62.499s27.333 -21.5 52 -21.5h486v415l30 234h140v-649h182v-129z" />
    <glyph glyph-name="five" unicode="5" horiz-adv-x="1097" 
d="M933 1260l-593.998 -0.00195312l-20 -386l152 -12c188 -13.333 320.667 -52.166 398 -116.499s115.333 -171.5 114 -321.5c0 -49.333 -3.5 -94.166 -10.5 -134.499s-20.333 -80.5 -40 -120.5s-46 -73.667 -79 -101s-77.167 -49.666 -132.5 -66.999s-120.333 -26 -195 -26
c-131.333 0 -271.333 17.333 -420 52l20 145c138 -24.667 257.667 -37 359 -37c125.333 0 209.5 22.5 252.5 67.5s65.833 118.833 68.5 221.5c1.33301 43.333 -1 80.5 -7 111.5s-18.833 57 -38.5 78s-38.834 37.333 -57.501 49s-50.834 21.667 -96.501 30
s-86.167 14.166 -121.5 17.499s-89.333 7 -162 11l-94 6c-20.667 2.66699 -37.5 11.167 -50.5 25.5s-18.833 32.5 -17.5 54.5l33 606h748z" />
    <glyph glyph-name="six" unicode="6" horiz-adv-x="1171" 
d="M969 1407l-16.9971 -131.001c-60 5.33301 -149.333 8 -268 8c-70 0 -125.833 -6.16699 -167.5 -18.5s-78.167 -36.5 -109.5 -72.5s-53.833 -87.167 -67.5 -153.5s-21.834 -154.833 -24.501 -265.5c49.333 54.667 101 93 155 115s121.333 33 202 33
c147.333 0 248.666 -34.167 303.999 -102.5s83 -189.166 83 -362.499c0 -79.333 -5.5 -146 -16.5 -200s-31.833 -103.5 -62.5 -148.5s-76.5 -78.5 -137.5 -100.5s-137.833 -33 -230.5 -33c-82 0 -149.833 7.5 -203.5 22.5s-99 37.667 -136 68s-65.333 74.166 -85 131.499
s-33.334 122.833 -41.001 196.5s-11.5 166.5 -11.5 278.5c0 132 7.5 243.5 22.5 334.5s35.833 164.833 62.5 221.5s63.5 100.334 110.5 131.001s97.5 51.5 151.5 62.5s121.333 16.5 202 16.5c113.333 0 208.333 -10.333 285 -31zM614.003 128.999
c113.333 0 187.168 25.333 221.501 76s51.5 134.667 51.5 252c0 118.667 -18.167 201.5 -54.5 248.5s-105.833 70.5 -208.5 70.5c-58.667 0 -110.834 -9.16699 -156.501 -27.5s-97.167 -52.833 -154.5 -103.5c0 -87.333 1.66699 -156.333 5 -207s10.5 -98.5 21.5 -143.5
s27.833 -78 50.5 -99s51.667 -37.333 87 -49s81 -17.5 137 -17.5z" />
    <glyph glyph-name="seven" unicode="7" horiz-adv-x="1048" 
d="M79 1413h799c42 0 71.167 -10.833 87.5 -32.5s18.5 -52.5 6.5 -92.5l-440 -1288h-181l398 1155c12 36.667 26.333 71.667 43 105h-705z" />
    <glyph glyph-name="eight" unicode="8" horiz-adv-x="1243" 
d="M374 729v7.99902c-134.667 15.333 -202 123.333 -202 324c0 134 31.667 229.667 95 287s181.666 86 354.999 86s291.5 -28.333 354.5 -85s94.5 -152.667 94.5 -288c0 -200.667 -67 -308.667 -201 -324v-8c84.667 -8 144.5 -43.5 179.5 -106.5s52.5 -153.167 52.5 -270.5
c0 -133.333 -33.167 -228.333 -99.5 -285s-193.166 -85.667 -380.499 -87c-184 -2 -310.167 25.833 -378.5 83.5s-102.5 153.834 -102.5 288.501c0 117.333 17.667 207.5 53 270.5s95.333 98.5 180 106.5zM624 1288c-114.667 0 -191.001 -17 -229.001 -51
s-57 -98.333 -57 -193c0 -96.667 18.667 -160.667 56 -192s114.833 -47 232.5 -47s193.834 15.667 228.501 47s52 95.333 52 192c0 94.667 -18.5 159 -55.5 193s-112.833 51 -227.5 51zM625.999 661.999c-128 -2 -212.499 -20.668 -253.499 -56.001
s-61.5 -107.666 -61.5 -216.999c0 -96.667 21.167 -163.167 63.5 -199.5s125.5 -54.5 249.5 -54.5c122 0 203.333 17.833 244 53.5s61 102.5 61 200.5c0 112 -19.333 185.5 -58 220.5s-120.334 52.5 -245.001 52.5z" />
    <glyph glyph-name="nine" unicode="9" horiz-adv-x="1171" 
d="M178 6l16.0049 133.002c65.333 -5.33301 161.666 -8 288.999 -8c94 0 166 13.667 216 41s87.5 77.833 112.5 151.5s39.5 180.834 43.5 321.501c-50 -58.667 -102 -98.834 -156 -120.501s-122 -32.5 -204 -32.5c-255.333 0 -383 153.333 -383 460
c0 168 34.167 291 102.5 369s185.166 117 350.499 117c69.333 0 128.166 -4.83301 176.499 -14.5s90.333 -26.834 126 -51.501s63.667 -53.334 84 -86.001s36.333 -78 48 -136s19.667 -119.167 24 -183.5s6.5 -145.5 6.5 -243.5c0 -158.667 -9.66699 -286.667 -29 -384
s-52.5 -173 -99.5 -227s-102.333 -90.333 -166 -109s-147.834 -28 -252.501 -28c-118.667 0 -220.334 10.333 -305.001 31zM542.005 635.002c60 0 112.833 9.49805 158.5 28.498s97.167 54.5 154.5 106.5c0 74 -1 133.167 -3 177.5s-6.33301 88.333 -13 132
s-16.167 76.334 -28.5 98.001s-29.5 41.834 -51.5 60.501s-48.667 31 -80 37s-70 9 -116 9c-110.667 0 -185.167 -26.667 -223.5 -80s-56.833 -137.333 -55.5 -252c-1.33301 -107.333 17.167 -187 55.5 -239s105.833 -78 202.5 -78z" />
    <glyph glyph-name="colon" unicode=":" horiz-adv-x="426" 
d="M200 531c24.667 0 45.167 -8 61.5 -24s24.5 -36.333 24.5 -61c0 -57.333 -28.667 -87 -86 -89c-56.667 -2 -85 26.333 -85 85c0 59.333 28.333 89 85 89zM203 174c25.333 0 46.3311 -7.33301 62.998 -22c14.667 -16.667 22 -36.334 22 -59.001
c0 -59.333 -28.333 -90.333 -85 -93c-25.333 -1.33301 -45.666 6.66699 -60.999 24s-23 38.333 -23 63s7.83301 45.334 23.5 62.001s35.834 25 60.501 25z" />
    <glyph glyph-name="semicolon" unicode=";" horiz-adv-x="485" 
d="M214 901h60c23.333 0 39.666 -4.83301 48.999 -14.5s14 -25.834 14 -48.501v-113c0 -24.667 -4.66699 -41.834 -14 -51.501s-25.666 -14.5 -48.999 -14.5h-60c-22.667 0 -38.834 4.83301 -48.501 14.5s-14.5 26.834 -14.5 51.501v113
c0 22.667 4.83301 38.834 14.5 48.501s25.834 14.5 48.501 14.5zM219 242h51.001c24.667 0 41.334 -4.83301 50.001 -14.5s13 -26.834 13 -51.501v-131c-1.33301 -114.667 -24.333 -219.667 -69 -315l-84 24c13.333 80.667 20 162.667 20 246c-32.667 0 -49 19 -49 57v119
c1.33301 24.667 7.16602 41.834 17.499 51.501s27.166 14.5 50.499 14.5z" />
    <glyph glyph-name="less" unicode="&#x3c;" horiz-adv-x="1085" 
d="M939 897l-679 -287l679 -280v-140l-831 351v139l831 356v-139z" />
    <glyph glyph-name="equal" unicode="=" horiz-adv-x="1198" 
d="M1048 752h-897v129h897v-129zM1048 317h-897v132h897v-132z" />
    <glyph glyph-name="greater" unicode="&#x3e;" horiz-adv-x="1085" 
d="M976 680v-139l-831 -351v140l680 280l-680 287v139z" />
    <glyph glyph-name="question" unicode="?" horiz-adv-x="1034" 
d="M91 1290l-10.0029 125.003c9.33301 1.33301 30.5 5.16602 63.5 11.499s54.167 10.166 63.5 11.499l57 8c28.667 4 53.334 6.33301 74.001 7s48 1.66699 82 3s71 2 111 2c275.333 0 413 -105.667 413 -317c0 -48 -8.83301 -92.833 -26.5 -134.5
s-40.167 -77.167 -67.5 -106.5l-88 -96l-88 -99.5c-27.333 -31.667 -50.833 -71.334 -70.5 -119.001s-30.167 -98.834 -31.5 -153.501h-150c-1.33301 70 9.33398 134.333 32.001 193s50.334 107.334 83.001 146.001s65.667 75.5 99 110.5s62 71.667 86 110
s36.667 77.833 38 118.5c2.66699 68 -17.5 118.5 -60.5 151.5s-111.5 49.5 -205.5 49.5c-116 0 -250.667 -7 -404 -21zM473.997 242.003h47c23.333 0 39.833 -4.83301 49.5 -14.5s14.5 -26.834 14.5 -51.501v-110c0 -24.667 -4.83301 -41.834 -14.5 -51.501
s-26.167 -14.5 -49.5 -14.5h-47c-23.333 0 -39.666 4.83301 -48.999 14.5s-14 26.834 -14 51.501v110c0 24.667 4.66699 41.834 14 51.501s25.666 14.5 48.999 14.5z" />
    <glyph glyph-name="at" unicode="@" horiz-adv-x="1470" 
d="M720 1198l292.999 0.00390625c102.667 0 179.834 -22.833 231.501 -68.5s77.5 -119.834 77.5 -222.501v-637h-131l-16 154c-42.667 -44 -101.834 -83.333 -177.501 -118s-152.5 -52 -230.5 -52c-81.333 0 -146.333 20.833 -195 62.5s-73 102.167 -73 181.5v104
c0 66.667 20.167 118.5 60.5 155.5s98.833 55.5 175.5 55.5h424v88c0 56 -12.667 95.333 -38 118s-71.666 34 -138.999 34h-262c-66.667 0 -117.834 -1 -153.501 -3s-71.167 -9.16699 -106.5 -21.5s-60.166 -27.833 -74.499 -46.5s-27.666 -48.834 -39.999 -90.501
s-19.833 -88.334 -22.5 -140.001s-4 -120.5 -4 -206.5c0 -67.333 0.666992 -123.166 2 -167.499s5.83301 -85.833 13.5 -124.5s14.834 -69.334 21.501 -92.001s20.167 -43.167 40.5 -61.5s39.5 -31.666 57.5 -39.999s46.333 -15.166 85 -20.499s74.5 -8.33301 107.5 -9
s80.167 -1 141.5 -1h528v-131c-185.333 -11.333 -360.666 -17 -525.999 -17c-102.667 -1.33301 -185.334 0.5 -248.001 5.5s-120 16.667 -172 35s-90.167 40.833 -114.5 67.5s-45.5 67.667 -63.5 123s-29 114.666 -33 177.999s-6 148.333 -6 255
c0 103.333 2 186.166 6 248.499s13.5 120.166 28.5 173.499s33.833 92.833 56.5 118.5s57.167 48.167 103.5 67.5s97.166 31.333 152.499 36s128.666 7.66699 219.999 9zM1159 707.004l-365 -9.00195c-48 -1.33301 -81.833 -11.166 -101.5 -29.499
s-29.5 -47.166 -29.5 -86.499v-54c0 -90 45 -135 135 -135c60 0 123.833 12 191.5 36s124.167 57 169.5 99v179z" />
    <glyph glyph-name="A" unicode="A" horiz-adv-x="1273" 
d="M927 442h-581l-140 -442h-186l455 1364c8 32.667 30.333 49 67 49h189c36.667 0 59 -16.333 67 -49l455 -1364h-186zM878 598l-178 561.001c-12 35.333 -23.667 73.666 -35 114.999h-57l-35 -115l-178 -561h483z" />
    <glyph glyph-name="B" unicode="B" horiz-adv-x="1269" 
d="M868 737l-0.000976562 -8.00293c102.667 -9.33301 175.5 -45.166 218.5 -107.499s64.5 -152.166 64.5 -269.499c0 -142 -33.5 -238.833 -100.5 -290.5s-183.833 -77.5 -350.5 -77.5c-226.667 0 -400.667 5.33301 -522 16v1413c108 11.333 261 17 459 17
c176 0 298.5 -25.667 367.5 -77s103.5 -148.666 103.5 -291.999c0 -102.667 -19.167 -180.167 -57.5 -232.5s-99.166 -82.833 -182.499 -91.5zM353.999 800.997l303 -0.000976562c105.333 1.33301 177.833 18.333 217.5 51s59.5 95.334 59.5 188.001
c0 94.667 -21.5 157.667 -64.5 189s-123.167 47 -240.5 47h-275v-475zM353.999 663.996l-0.000976562 -525c56 -1.33301 162 -2 318 -2c114.667 0 192.834 16.5 234.501 49.5s62.5 98.5 62.5 196.5c0 108 -22.333 181 -67 219s-125.667 58.667 -243 62h-305z" />
    <glyph glyph-name="C" unicode="C" horiz-adv-x="1167" 
d="M1074 158l18.998 -134.998c-113.333 -32 -251.333 -48 -414 -48c-203.333 0 -346.666 54.667 -429.999 164s-125 298.5 -125 567.5s41.667 458.167 125 567.5s226.666 164 429.999 164c146 0 274.333 -13.667 385 -41l-18 -137c-123.333 12 -245.666 18 -366.999 18
c-138 0 -233.333 -41.333 -286 -124s-79 -231.834 -79 -447.501s26.333 -364.834 79 -447.501s148 -124 286 -124c158.667 0 290.334 7.66699 395.001 23z" />
    <glyph glyph-name="D" unicode="D" horiz-adv-x="1359" 
d="M178 0v1413c177.333 12.667 345.333 19 504 19c203.333 0 346 -53 428 -159s123 -294.833 123 -566.5s-41 -460.334 -123 -566.001s-224.667 -158.5 -428 -158.5c-158.667 0 -326.667 6 -504 18zM358 1272v-1129c123.333 -2.66699 231.333 -4 324 -4
c135.333 0 229.5 41.333 282.5 124s79.5 230.5 79.5 443.5s-26.5 361.167 -79.5 444.5s-147.167 125 -282.5 125c-87.333 0 -195.333 -1.33301 -324 -4z" />
    <glyph glyph-name="E" unicode="E" horiz-adv-x="1146" 
d="M1035 150l9 -139.998c-126 -8 -328.333 -12 -607 -12c-83.333 0 -149.166 22.167 -197.499 66.5s-73.166 104.166 -74.499 179.499v925c1.33301 75.333 26.166 135.166 74.499 179.499s114.166 66.5 197.499 66.5c278.667 0 481 -4 607 -12l-9 -141h-567
c-82 0 -123 -45.333 -123 -136v-307h611v-145h-611v-387c0 -91.333 41 -137 123 -137h567z" />
    <glyph glyph-name="F" unicode="F" horiz-adv-x="1103" 
d="M1022 1262h-530.999c-47.333 0 -82 -10.667 -104 -32s-33 -56 -33 -104v-327h590v-146h-590v-653h-180v1161c0 80.667 24.5 143.167 73.5 187.5s115.167 66.5 198.5 66.5c269.333 0 464.666 -4.66699 585.999 -14z" />
    <glyph glyph-name="G" unicode="G" horiz-adv-x="1286" 
d="M1015 0l-20.999 149.999c-120 -118 -260.667 -177 -422 -177c-156.667 0 -270.167 58.833 -340.5 176.5s-105.5 304.834 -105.5 561.501c0 276.667 43 467.334 129 572.001s239.667 157 461 157c148.667 0 279.667 -14.333 393 -43l-18 -135
c-114.667 10.667 -236.334 16 -365.001 16c-108 0 -189.667 -14 -245 -42s-96.666 -83.667 -123.999 -167s-41 -207 -41 -371c0 -208.667 22.667 -355.334 68 -440.001s124.666 -127 237.999 -127c106 0 222 45.667 348 137v549h176v-817h-131z" />
    <glyph glyph-name="H" unicode="H" horiz-adv-x="1368" 
d="M1190 1413v-1413h-181v678h-651v-678h-180v1413h180v-579h651v579h181z" />
    <glyph glyph-name="I" unicode="I" horiz-adv-x="536" 
d="M358 0h-180v1413h180v-1413z" />
    <glyph glyph-name="J" unicode="J" horiz-adv-x="696" 
d="M524 1413v-1116c0 -104 -23.5 -182.5 -70.5 -235.5s-115.167 -79.5 -204.5 -79.5c-76 0 -138.667 8.66699 -188 26l20 127h103c106.667 0 160 52 160 156v1122h180z" />
    <glyph glyph-name="K" unicode="K" horiz-adv-x="1210" 
d="M518 664l-174 0.000976562c8 -52 12 -102 12 -150v-514h-178v1413h178v-442c0 -54.667 -4 -108.667 -12 -162h172l430 604h197l-412 -586c-16.667 -24 -42.667 -54 -78 -90v-4c38 -36.667 67.333 -69.334 88 -98.001l430 -635h-202z" />
    <glyph glyph-name="L" unicode="L" horiz-adv-x="1052" 
d="M352 1413l-0.000976562 -1126c0 -90 45.667 -135 137 -135h510l9 -140c-119.333 -9.33301 -301.666 -14 -546.999 -14c-191.333 0 -287 88.667 -287 266v1149h178z" />
    <glyph glyph-name="M" unicode="M" horiz-adv-x="1796" 
d="M1310 1413h203c49.333 0 74 -25.333 74 -76l59 -1337h-180l-51 1264h-43l-316 -1043c-10.667 -40.667 -36.667 -61 -78 -61h-161c-42.667 0 -70 20.333 -82 61l-316 1043h-41l-49 -1264h-180l55 1337c2.66699 50.667 28 76 76 76h205c38 0 63.333 -20.333 76 -61
l264 -863c8 -24 18.5 -60.333 31.5 -109s20.167 -75.667 21.5 -81h37l23.5 89.5c11.667 44.333 21.5 79.5 29.5 105.5l264 858c11.333 40.667 37.333 61 78 61z" />
    <glyph glyph-name="N" unicode="N" horiz-adv-x="1443" 
d="M1265 1413v-1341c0 -48 -23 -72 -69 -72h-176c-37.333 0 -64 19 -80 57l-477 1002c-46.667 100.667 -73.334 162.667 -80.001 186h-33c5.33301 -54.667 8 -116.667 8 -186v-1059h-180v1341c0 48 24 72 72 72h170c36.667 0 63.334 -19 80.001 -57l462 -977
c34.667 -66.667 67 -135 97 -205h34c-4 74 -6 145.667 -6 215v1024h178z" />
    <glyph glyph-name="O" unicode="O" horiz-adv-x="1368" 
d="M683 1440c207.333 0 352 -53.667 434 -161s123 -298.166 123 -572.499s-41 -465.166 -123 -572.499s-226.667 -161 -434 -161s-352.333 53.667 -435 161s-124 298.166 -124 572.499s41.333 465.166 124 572.499s227.667 161 435 161zM683 1278
c-139.333 0 -235.666 -41.333 -288.999 -124s-80 -231.834 -80 -447.501s26.667 -364.834 80 -447.501s149.666 -124 288.999 -124s235.666 41.333 288.999 124s80 231.834 80 447.501s-26.667 364.834 -80 447.501s-149.666 124 -288.999 124z" />
    <glyph glyph-name="P" unicode="P" horiz-adv-x="1208" 
d="M178 0l-0.000976562 1413c114.667 12.667 276.334 19 485.001 19c172 0 290.833 -31.167 356.5 -93.5s98.5 -178.833 98.5 -349.5s-31.667 -287 -95 -349s-176.333 -93 -339 -93c-112 0 -220.667 6 -326 18v-565h-180zM357.999 702h303c105.333 2 177.5 22.333 216.5 61
s58.5 114 58.5 226s-19.833 187.833 -59.5 227.5s-111.5 59.5 -215.5 59.5c-148.667 0 -249.667 -0.666992 -303 -2v-572z" />
    <glyph glyph-name="Q" unicode="Q" horiz-adv-x="1370" 
d="M685 1440c207.333 0 352 -53.667 434 -161s123 -298.166 123 -572.499s-41 -465.166 -123 -572.499s-226.667 -161 -434 -161s-352.333 53.667 -435 161s-124 298.166 -124 572.499s41.333 465.166 124 572.499s227.667 161 435 161zM685 1278
c-139.333 0 -235.666 -41.333 -288.999 -124s-80 -231.834 -80 -447.501s26.667 -364.834 80 -447.501s149.666 -124 288.999 -124c138 0 234 41.333 288 124s81 231.834 81 447.501s-27 364.834 -81 447.501s-150 124 -288 124zM550 -197l51 109
c150 -65.333 331 -113 543 -143l-57 -181c-178 36 -357 107.667 -537 215z" />
    <glyph glyph-name="R" unicode="R" horiz-adv-x="1265" 
d="M1173 0l-192.001 -0.000976562l-125 442c-18 53.333 -42 91.333 -72 114s-68.833 34 -116.5 34s-106 0.333008 -175 1s-114.5 1 -136.5 1v-592h-178v1413c114.667 12.667 277 19 487 19c168 0 286.167 -29.167 354.5 -87.5s102.5 -165.166 102.5 -320.499
c0 -116 -20.167 -202.667 -60.5 -260s-106.833 -92.333 -199.5 -105v-10c38 -9.33301 72.833 -31.5 104.5 -66.5s54.834 -80.5 69.501 -136.5zM355.999 744.999h305c106.667 2 179.834 21.333 219.501 58s59.5 107 59.5 211c0 102 -19.833 171.167 -59.5 207.5
s-112.834 54.5 -219.501 54.5c-150 0 -251.667 -0.666992 -305 -2v-529z" />
    <glyph glyph-name="S" unicode="S" horiz-adv-x="1148" 
d="M683 598l-291.999 74c-100 24.667 -171.5 68.667 -214.5 132s-64.5 150.333 -64.5 261c0 82 8.5 147.833 25.5 197.5s46.333 87.167 88 112.5s88.167 42.166 139.5 50.499s120 12.5 206 12.5c166.667 -2.66699 306.667 -16.334 420 -41.001l-13 -131
c-132 6.66699 -265 10 -399 10c-60 0 -104.333 -1.33301 -133 -4s-56.667 -10.834 -84 -24.501s-45.5 -35.167 -54.5 -64.5s-13.5 -70 -13.5 -122c0 -75.333 13.333 -128.666 40 -159.999s72.667 -55.333 138 -72l287 -71c105.333 -26 179.166 -70.5 221.499 -133.5
s63.5 -151.167 63.5 -264.5c0 -155.333 -35.167 -258.333 -105.5 -309s-192.833 -76 -367.5 -76c-148.667 0 -295 13 -439 39l13 133c229.333 -8 373.333 -11.333 432 -10c112 0 187.5 14.333 226.5 43s58.5 90.334 58.5 185.001c0 77.333 -13.333 131.333 -40 162
s-73 54.334 -139 71.001z" />
    <glyph glyph-name="T" unicode="T" horiz-adv-x="1189" 
d="M1141 1253h-457v-1253h-180v1253h-455v160h1092v-160z" />
    <glyph glyph-name="U" unicode="U" horiz-adv-x="1363" 
d="M1195 1413l0.000976562 -872c0 -206.667 -38.167 -353 -114.5 -439s-206.833 -129 -391.5 -129c-190.667 0 -325.334 43 -404.001 129s-118 232.333 -118 439v872h180v-872c0 -152 24.667 -257.667 74 -317s136 -89 260 -89c122.667 0 209 29.667 259 89s75 165 75 317
v872h180z" />
    <glyph glyph-name="V" unicode="V" horiz-adv-x="1247" 
d="M1212 1413l-428.001 -1362c-12.667 -34 -36 -51 -70 -51h-182c-37.333 0 -60.666 17 -69.999 51l-428 1362h186l334 -1120c19.333 -68.667 33 -120 41 -154h55c14 56 28.333 108 43 156l332 1118h187z" />
    <glyph glyph-name="W" unicode="W" horiz-adv-x="1941" 
d="M1878 1413l-286.999 -1360c-10 -35.333 -34 -53 -72 -53h-205c-39.333 0 -62.333 18.333 -69 55l-221 1063c-8.66699 35.333 -19.667 88.666 -33 159.999h-43l-31 -160l-219 -1063c-9.33301 -36.667 -33.333 -55 -72 -55h-207c-17.333 0 -32.5 5.16699 -45.5 15.5
s-20.833 22.833 -23.5 37.5l-287 1360h190l222 -1102c2.66699 -12 12 -70 28 -174h47c11.333 64 22.333 122 33 174l219 1043c7.33301 39.333 30.666 59 69.999 59h197c36.667 0 59.667 -19.667 69 -59l219 -1043c14 -66.667 23.667 -124.667 29 -174h51l27 172l223 1104
h191z" />
    <glyph glyph-name="X" unicode="X" horiz-adv-x="1251" 
d="M651 664h-53l-350 -664h-197l397 731l-370 682h194l324 -610h59l324 610h194l-372 -682l399 -731h-197z" />
    <glyph glyph-name="Y" unicode="Y" horiz-adv-x="1165" 
d="M671 496v-496.001h-180v498l-469 915h193l296 -596c16.667 -32.667 38 -86 64 -160h14c22 60.667 43.333 113.334 64 158.001l297 598h190z" />
    <glyph glyph-name="Z" unicode="Z" horiz-adv-x="1159" 
d="M1063 154v-154h-965v154l754 1106h-742v153h938v-153l-749 -1106h764z" />
    <glyph glyph-name="bracketleft" unicode="[" horiz-adv-x="673" 
d="M589 1458l-208 -0.000976562c-19.333 0 -29 -11 -29 -33v-1615c0 -22 9.66699 -33 29 -33h208v-115h-292c-74 0 -111 37 -111 111v1689c0 32.667 10.5 59.334 31.5 80.001s47.5 31 79.5 31h292v-115z" />
    <glyph glyph-name="backslash" unicode="\" horiz-adv-x="1060" 
d="M1005 -135h-145l-805 1548h145z" />
    <glyph glyph-name="bracketright" unicode="]" horiz-adv-x="673" 
d="M83 1573l291 0.00195312c32.667 0 59.167 -10.333 79.5 -31s30.5 -47.334 30.5 -80.001v-1689c0 -32.667 -10.167 -59.334 -30.5 -80.001s-46.833 -31 -79.5 -31h-291v115h207c20.667 0 31 11 31 33v1615c0 22 -10.333 33 -31 33h-207v115z" />
    <glyph glyph-name="asciicircum" unicode="^" horiz-adv-x="872" 
d="M811 799l-70 -45l-295 356h-16l-297 -356l-72 45l313 430h125z" />
    <glyph glyph-name="underscore" unicode="_" horiz-adv-x="1163" 
d="M1034 -176h-905v176h905v-176z" />
    <glyph glyph-name="grave" unicode="`" horiz-adv-x="645" 
d="M512 1182l-60 -80l-393 246l98 133z" />
    <glyph glyph-name="a" unicode="a" horiz-adv-x="1124" 
d="M165 848l-15.999 129c182.667 30 343 45 481 45c116 0 202 -24.167 258 -72.5s84 -130.833 84 -247.5v-702h-137l-20 164c-48 -48 -107.833 -90.333 -179.5 -127s-149.167 -55 -232.5 -55c-91.333 0 -164 24.167 -218 72.5s-81 116.833 -81 205.5v109
c0 77.333 24.167 137.5 72.5 180.5s116.166 64.5 203.499 64.5h416v88c0 63.333 -14.333 107.833 -43 133.5s-82 38.5 -160 38.5c-98 0 -240.667 -8.66699 -428 -26zM282.001 344l-0.000976562 -63c0 -52 12.333 -90 37 -114s64.334 -36 119.001 -36
c52 -1.33301 111 11 177 37s126.333 63.667 181 113v200h-385c-46 -1.33301 -79 -13.5 -99 -36.5s-30 -56.5 -30 -100.5z" />
    <glyph glyph-name="b" unicode="b" horiz-adv-x="1167" 
d="M329 1434v-373c0 -95.333 -6 -169 -18 -221c118.667 121.333 247 182 385 182c124 0 215 -40.667 273 -122s87 -214 87 -398c0 -180.667 -32.667 -313.667 -98 -399s-180 -128 -344 -128c-170.667 0 -323.667 24 -459 72v1387h174zM329 723l0.000976562 -564.999
c91.333 -26 185 -37.667 281 -35c96.667 1.33301 164.834 29.666 204.501 84.999s60.167 153.333 61.5 294c-1.33301 140.667 -18.333 237.167 -51 289.5s-96.334 78.5 -191.001 78.5c-47.333 0 -93.333 -11.5 -138 -34.5s-100.334 -60.5 -167.001 -112.5z" />
    <glyph glyph-name="c" unicode="c" horiz-adv-x="1001" 
d="M907 143l18.001 -116c-98 -34.667 -212 -52 -342 -52c-172 0 -293.833 39.333 -365.5 118s-107.5 214.167 -107.5 406.5s35.833 327.5 107.5 405.5s194.167 117 367.5 117c131.333 0 238.666 -15.667 321.999 -47l-23 -113c-90 8 -180 12 -270 12
c-120 0 -203.333 -26.5 -250 -79.5s-70 -151.167 -70 -294.5c0 -144.667 23.333 -243.667 70 -297s130 -80 250 -80c109.333 0 207 6.66699 293 20z" />
    <glyph glyph-name="d" unicode="d" horiz-adv-x="1173" 
d="M1011 1434l0.000976562 -1434h-135l-17 143c-126.667 -112 -258.334 -168 -395.001 -168c-122.667 0 -211.667 43.5 -267 130.5s-83 219.167 -83 396.5c0 189.333 30 323.333 90 402s155.667 118 287 118c129.333 0 247.333 -30.667 354 -92
c-5.33301 60 -8 125.333 -8 196v308h174zM837.001 264l0.00195312 550.999c-131.333 36.667 -233 55 -305 55c-88.667 0 -150.834 -25.167 -186.501 -75.5s-53.5 -147.166 -53.5 -290.499s17.5 -242 52.5 -296s94.167 -81 177.5 -81c51.333 0 98.166 9.83301 140.499 29.5
s100.5 55.5 174.5 107.5z" />
    <glyph glyph-name="e" unicode="e" horiz-adv-x="1099" 
d="M759 414l-465 0.000976562c10 -114.667 38.167 -191.834 84.5 -231.501s123.5 -59.5 231.5 -59.5c113.333 0 228.666 8 345.999 24l18 -116c-88.667 -37.333 -217.667 -56 -387 -56c-172 0 -294.5 40 -367.5 120s-109.5 215.667 -109.5 407
c0 192.667 35.5 327.5 106.5 404.5s188.5 115.5 352.5 115.5c148.667 0 257.167 -27 325.5 -81s102.5 -135.667 102.5 -245c2.66699 -188 -76.666 -282 -237.999 -282zM292 549.001h422c72.667 0 109 49 109 147c-1.33301 64.667 -20.5 110.5 -57.5 137.5
s-99.833 40.5 -188.5 40.5c-105.333 0 -178.5 -22.833 -219.5 -68.5s-62.833 -131.167 -65.5 -256.5z" />
    <glyph glyph-name="f" unicode="f" horiz-adv-x="778" 
d="M794 1325l-205.001 -0.000976562c-65.333 0 -111.333 -12.667 -138 -38s-40 -68.666 -40 -129.999v-160h320v-137h-320v-860h-174v860h-180v127l180 8v181c0 96.667 22.5 169.5 67.5 218.5s119.5 73.5 223.5 73.5c114.667 0 208.334 -4.66699 281.001 -14z" />
    <glyph glyph-name="g" unicode="g" horiz-adv-x="1142" 
d="M1087 901l-148.001 -12.0029c27.333 -45.333 41 -106.666 41 -183.999c0 -112 -32 -193 -96 -243s-174.667 -75 -332 -75c-76.667 0 -145.667 7 -207 21c-26 -32 -33.5 -66.667 -22.5 -104s41.833 -60 92.5 -68l373 -60c92.667 -13.333 157.667 -42.166 195 -86.499
s56 -108.833 56 -193.5c0 -116.667 -34.333 -197.5 -103 -242.5s-192.667 -67.5 -372 -67.5c-180 0 -305.167 22.167 -375.5 66.5s-105.5 123.166 -105.5 236.499c0 58.667 12.333 105.834 37 141.501s66.334 69.167 125.001 100.5c-50.667 39.333 -74 91.833 -70 157.5
s30 116.834 78 153.501c-84.667 45.333 -127 132 -127 260c0 114.667 31.667 196.667 95 246s174.333 74 333 74c94 0 171 -8.33301 231 -25h312zM551.999 519.997c98 0 166.833 14 206.5 42s59.5 75.5 59.5 142.5s-19.5 114.5 -58.5 142.5s-108.167 42 -207.5 42
c-98 0 -166.833 -14 -206.5 -42s-59.5 -75.5 -59.5 -142.5s19.833 -114.5 59.5 -142.5s108.5 -42 206.5 -42zM696.999 46.9971l-340 46.999c-69.333 -53.333 -104 -116.666 -104 -189.999c0 -70 20.5 -115.833 61.5 -137.5s123.5 -32.5 247.5 -32.5
c122 0 203.667 11.167 245 33.5s62 67.833 62 136.5c0 48.667 -10.5 82 -31.5 100s-67.833 32.333 -140.5 43z" />
    <glyph glyph-name="h" unicode="h" horiz-adv-x="1189" 
d="M335 1434l0.000976562 -396c0 -76 -4 -140.667 -12 -194c161.333 118.667 308.666 178 441.999 178c180.667 0 271 -91.333 271 -274v-748h-177v698c0 66 -10.5 111.833 -31.5 137.5s-57.5 38.5 -109.5 38.5c-56 0 -112.333 -12.167 -169 -36.5
s-128.667 -63.833 -216 -118.5v-719h-174v1434h176z" />
    <glyph glyph-name="i" unicode="i" horiz-adv-x="507" 
d="M212 1421h82c35.333 0 53 -17.667 53 -53v-117c0 -35.333 -17.667 -53 -53 -53h-82c-35.333 0 -53 17.667 -53 53v117c0 35.333 17.667 53 53 53zM339 0h-172v997h172v-997z" />
    <glyph glyph-name="j" unicode="j" horiz-adv-x="512" 
d="M217 1421h82c34 0 51 -17.667 51 -53v-117c0 -35.333 -17 -53 -51 -53h-82c-35.333 0 -53 17.667 -53 53v117c0 35.333 17.667 53 53 53zM344 997v-1022c0 -78.667 -17.167 -152.167 -51.5 -220.5s-81.5 -125.166 -141.5 -170.499l-96 76c76.667 94 115 199 115 315v1022
h174z" />
    <glyph glyph-name="k" unicode="k" horiz-adv-x="1042" 
d="M458 500l-134.999 0.000976562c6.66699 -61.333 10 -114.666 10 -159.999v-340h-174v1434h176v-637c0 -67.333 -3.33301 -124 -10 -170h131l315 370h203l-313 -366c-20.667 -28.667 -44 -51.334 -70 -68.001v-4c27.333 -20.667 50.666 -47.334 69.999 -80.001l346 -479
h-203z" />
    <glyph glyph-name="l" unicode="l" horiz-adv-x="608" 
d="M335 1434l0.000976562 -1160c-1.33301 -43.333 9.66699 -76.333 33 -99s57.333 -34 102 -34h97l20 -133c-36.667 -17.333 -97.334 -26 -182.001 -26c-75.333 0 -134.833 22.167 -178.5 66.5s-65.5 106.833 -65.5 187.5v1198h174z" />
    <glyph glyph-name="m" unicode="m" horiz-adv-x="1794" 
d="M302 997l10.999 -156.999c140.667 121.333 276.334 182 407.001 182c139.333 0 223.333 -58.667 252 -176c135.333 117.333 269 176 401 176c86 0 152 -23.167 198 -69.5s69 -114.5 69 -204.5v-748h-172v698c-1.33301 62 -14 106.833 -38 134.5s-63.333 41.5 -118 41.5
c-48 0 -94.167 -10.833 -138.5 -32.5s-107.5 -62.5 -189.5 -122.5v-719h-168v698c0 63.333 -12.5 108.5 -37.5 135.5s-64.167 40.5 -117.5 40.5c-48 0 -94.167 -10.833 -138.5 -32.5s-107.5 -61.834 -189.5 -120.501v-721h-174v997h143z" />
    <glyph glyph-name="n" unicode="n" horiz-adv-x="1189" 
d="M306 997l12.998 -157c160.667 121.333 309.334 182 446.001 182c180.667 0 271 -91.333 271 -274v-748h-175v698c0 66 -10.833 111.833 -32.5 137.5s-58.5 38.5 -110.5 38.5c-54.667 0 -109.667 -12.167 -165 -36.5s-128.666 -64.5 -219.999 -120.5v-717h-174v997h147z
" />
    <glyph glyph-name="o" unicode="o" horiz-adv-x="1163" 
d="M581 1022c172 0 293.167 -39.667 363.5 -119s105.5 -214.5 105.5 -405.5s-35.167 -326.167 -105.5 -405.5s-191.5 -119 -363.5 -119c-170.667 0 -291.5 39.667 -362.5 119s-106.5 214.5 -106.5 405.5s35.5 326.167 106.5 405.5s191.833 119 362.5 119zM581 874
c-109.333 0 -184.5 -26.5 -225.5 -79.5s-61.5 -151.833 -61.5 -296.5s20.5 -243.667 61.5 -297s116.167 -80 225.5 -80s184.833 26.667 226.5 80s62.5 152.333 62.5 297s-20.833 243.5 -62.5 296.5s-117.167 79.5 -226.5 79.5z" />
    <glyph glyph-name="p" unicode="p" horiz-adv-x="1187" 
d="M302 997l15.001 -159c53.333 57.333 117.5 102.333 192.5 135s148.5 49 220.5 49c119.333 0 206.166 -43.667 260.499 -131s81.5 -219.666 81.5 -396.999c0 -188.667 -30 -322.334 -90 -401.001s-155.5 -118 -286.5 -118s-253.833 34.333 -368.5 103
c4 -46.667 6 -113.667 6 -201v-289h-174v1409h143zM333.001 717v-528.999c139.333 -40.667 246 -61 320 -61c90 0 152.667 25.333 188 76s53 147.667 53 291c0 138.667 -16.667 236 -50 292s-90.333 84 -171 84c-52 0 -103.5 -11.833 -154.5 -35.5
s-112.833 -62.834 -185.5 -117.501z" />
    <glyph glyph-name="q" unicode="q" horiz-adv-x="1167" 
d="M1011 -412h-176.001v342c0 86 5.33301 154.333 16 205c-129.333 -108 -261.666 -162 -396.999 -162c-116 0 -202 42 -258 126s-84 216.333 -84 397c0 181.333 32.833 314.333 98.5 399s182.5 127 350.5 127c163.333 0 313.333 -23.333 450 -70v-1364zM836.999 262
v578.002c-92.667 26 -185.667 37.333 -279 34c-100.667 -2.66699 -170.5 -30.834 -209.5 -84.501s-58.5 -155.834 -58.5 -306.501c0 -126.667 15.667 -217.667 47 -273s89.333 -83 174 -83c54.667 0 105.667 10.5 153 31.5s105 55.5 173 103.5z" />
    <glyph glyph-name="r" unicode="r" horiz-adv-x="821" 
d="M784 1022l-21 -164h-57c-50.667 0 -103 -9.83301 -157 -29.5s-126 -52.167 -216 -97.5v-731h-174v997h135l19 -157c154 121.333 296 182 426 182h45z" />
    <glyph glyph-name="s" unicode="s" horiz-adv-x="1040" 
d="M614 403l-287.002 66.0039c-82 19.333 -140 50.166 -174 92.499s-51 104.5 -51 186.5c0 110 29 183.833 87 221.5s158.667 55.167 302 52.5c160 -2.66699 300 -13 420 -31l-14 -127c-208 6.66699 -334.333 10 -379 10c-101.333 2 -167.666 -3.83301 -198.999 -17.5
s-47 -49.834 -47 -108.501c0 -48 10.5 -80.833 31.5 -98.5s58.833 -32.834 113.5 -45.501l291 -65c82 -20.667 141.167 -51.167 177.5 -91.5s54.5 -101.5 54.5 -183.5c0 -116 -32.167 -192.833 -96.5 -230.5s-174.166 -56.5 -329.499 -56.5c-139.333 0 -270 9.66699 -392 29
l13 127c116 -6.66699 230.667 -9.33398 344 -8.00098c116 0 193.833 8.83301 233.5 26.5s59.5 55.167 59.5 112.5c0 45.333 -12 76.5 -36 93.5s-64.667 32.167 -122 45.5z" />
    <glyph glyph-name="t" unicode="t" horiz-adv-x="780" 
d="M409 860l-0.00195312 -585.999c0 -47.333 10.333 -81.333 31 -102s55.334 -31 104.001 -31h152l21 -133c-63.333 -17.333 -138.666 -26 -225.999 -26c-83.333 0 -146.833 23.167 -190.5 69.5s-65.5 113.166 -65.5 200.499v608h-180v127l180 8v297h174v-295h318v-137h-318
z" />
    <glyph glyph-name="u" unicode="u" horiz-adv-x="1167" 
d="M1007 997l-0.00195312 -997h-139l-13 143c-150 -113.333 -293.333 -170 -430 -170c-181.333 0 -272 91.667 -272 275v749h174v-700c-1.33301 -62.667 10.334 -107 35.001 -133s65.667 -39 123 -39c50.667 0 101.834 11.333 153.501 34s116.5 59 194.5 109v729h174z" />
    <glyph glyph-name="v" unicode="v" horiz-adv-x="1085" 
d="M1046 997l-365 -954c-10.667 -28.667 -31 -43 -61 -43h-158c-30 -0 -50.333 14.333 -61 43l-365 954h186l246 -698c14 -38 34 -96 60 -174h26l62 174l245 698h185z" />
    <glyph glyph-name="w" unicode="w" horiz-adv-x="1687" 
d="M1636 997l-290.999 -948c-8 -32.667 -30.333 -49 -67 -49h-158c-16.667 0 -31.334 5.16699 -44.001 15.5s-20.667 23.5 -24 39.5l-163 678c-4.66699 19.333 -10.334 46.333 -17.001 81s-12 60.334 -16 77.001h-25l-35 -158l-161 -678c-10 -36.667 -33.333 -55 -70 -55
h-156c-36.667 0 -59 16.333 -67 49l-291 948h180l207 -735c12.667 -42 23.667 -91.667 33 -149h26l37 149l166 680c6.66699 36.667 28.667 55 66 55h157c34.667 0 56.667 -19 66 -57l164 -678c2.66699 -14.667 8 -38.834 16 -72.501s14.333 -59.167 19 -76.5h26
c1.33301 6.66699 5.83301 28 13.5 64s14.834 64.333 21.501 85l207 735h180z" />
    <glyph glyph-name="x" unicode="x" horiz-adv-x="1081" 
d="M561 451h-41l-283 -451h-190l334 514l-309 483h188l258 -411h47l256 411h189l-310 -483l334 -514h-188z" />
    <glyph glyph-name="y" unicode="y" horiz-adv-x="1083" 
d="M1044 997l-400.001 -1052c-87.333 -235.333 -232.666 -357.666 -435.999 -366.999l-16 115c77.333 24.667 138.333 58.5 183 101.5s80.334 97.167 107.001 162.5l17 43h-39c-32.667 0 -53.334 15 -62.001 45l-362 952h186l265 -743c18.667 -56 30.667 -96.333 36 -121h29
c10.667 27.333 25 67.666 43 120.999l260 743h189z" />
    <glyph glyph-name="z" unicode="z" horiz-adv-x="1044" 
d="M944 141v-141h-844v141l641 713h-635v143h832v-143l-643 -713h649z" />
    <glyph glyph-name="braceleft" unicode="{" horiz-adv-x="653" 
d="M565 1573l0.000976562 -111.002c-69.333 0 -117.333 -13 -144 -39s-40 -71 -40 -135v-366c1.33301 -83.333 -10.667 -142.166 -36 -176.499s-74.333 -58.833 -147 -73.5c75.333 -23.333 125.666 -51.333 150.999 -84s38.666 -85.334 39.999 -158.001v-485
c0 -63.333 13.333 -107.833 40 -133.5s74.667 -38.5 144 -38.5v-111c-122.667 -9.33301 -212 9.16699 -268 55.5s-84 118.5 -84 216.5v525c0 26 -1.66699 46.5 -5 61.5s-12.166 28.333 -26.499 40s-26.333 19.834 -36 24.501s-29.5 12.334 -59.5 23.001v127
c53.333 16.667 86.5 32.167 99.5 46.5s19.5 51.5 19.5 111.5v407c0 98.667 28 171.167 84 217.5s145.333 64.833 268 55.5z" />
    <glyph glyph-name="bar" unicode="|" horiz-adv-x="503" 
d="M315 -346h-127v1945h127v-1945z" />
    <glyph glyph-name="braceright" unicode="}" horiz-adv-x="655" 
d="M89 1462l0.00195312 111c123.333 9.33301 212.833 -9.16699 268.5 -55.5s83.5 -118.833 83.5 -217.5v-407c0 -60 6.5 -97.167 19.5 -111.5s46.167 -29.833 99.5 -46.5v-127c-38 -13.333 -63.5 -23.833 -76.5 -31.5s-24.667 -20.667 -35 -39s-15.5 -44.5 -15.5 -78.5v-525
c0 -98 -28 -170.167 -84 -216.5s-145.333 -64.833 -268 -55.5v111c69.333 0 117.333 12.833 144 38.5s40 70.167 40 133.5v485c1.33301 72.667 14.666 125.334 39.999 158.001s75.666 60.667 150.999 84c-72.667 14.667 -121.667 39.167 -147 73.5s-37 93.166 -35 176.499
v366c0 64 -13.333 109 -40 135s-75 39 -145 39z" />
    <glyph glyph-name="asciitilde" unicode="~" horiz-adv-x="1075" 
d="M261 467l-90.001 -0.00195312c-9.33301 82 1 144.167 31 186.5s72.333 62.166 127 59.499c50.667 -2.66699 123.834 -22.5 219.501 -59.5s163.167 -57.5 202.5 -61.5c35.333 -4 59.5 2.5 72.5 19.5s19.5 47.167 19.5 90.5h90c10 -78.667 -0.166992 -139.167 -30.5 -181.5
s-72.833 -62.166 -127.5 -59.499c-58.667 2.66699 -135 22.334 -229 59.001s-158 57.334 -192 62.001c-36 4 -60.5 -2.83301 -73.5 -20.5s-19.5 -49.167 -19.5 -94.5z" />
    <glyph glyph-name="cent" unicode="&#xa2;" horiz-adv-x="1040" 
d="M905 360l17.999 -116c-98 -34 -206.667 -51 -326 -51l-18 -193h-92l18 195c-143.333 9.33301 -245 54 -305 134s-90 208.667 -90 386c0 190.667 35.833 325.667 107.5 405s193.5 119 365.5 119h12l17 174h94l-16 -178c84.667 -6.66699 156.334 -21.667 215.001 -45
l-23 -117c-72 8 -141 13.667 -207 17l-63 -752c103.333 0 201 7.33301 293 22zM519.999 344l61 746.001c-112 -4.66699 -189.833 -33.834 -233.5 -87.501s-65.5 -149.5 -65.5 -287.5c0 -126 17.833 -216.667 53.5 -272s97.167 -88.333 184.5 -99z" />
    <glyph glyph-name="sterling" unicode="&#xa3;" horiz-adv-x="1165" 
d="M1060 154v-153.999h-934v154c118.667 60 172 188.333 160 385l-8 153h-164v103h158l-17 272c-6.66699 150 21.333 249.333 84 298s165 73 307 73c106.667 0 229 -7 367 -21l-10 -143c-97.333 5.33301 -217.666 8 -360.999 8c-83.333 0 -140.333 -15.667 -171 -47
s-44 -88 -40 -170l17 -270h434l-4 -103h-424l10 -153c4 -97.333 -4.83301 -175.333 -26.5 -234s-61.834 -111.334 -120.501 -158.001c30 4.66699 75.667 7 137 7h606z" />
    <glyph glyph-name="currency" unicode="&#xa4;" horiz-adv-x="1216" 
d="M999 252l-148.999 147.001c-72.667 -54.667 -154 -82 -244 -82c-88.667 0 -169.334 27.333 -242.001 82l-147 -147l-82 82l147 147c-51.333 70 -77 149.333 -77 238c0 91.333 27.333 173.333 82 246l-146 145l76 78l145 -148c72.667 54.667 154 82 244 82
c92.667 0 174.667 -28 246 -84l147 150l78 -78l-149 -147c52.667 -70 79 -151.333 79 -244c0 -88.667 -27 -169.334 -81 -242.001l151 -149zM606.001 426.001c80.667 -1.33301 149.667 27 207 85s86 128 86 210s-28.667 152 -86 210s-126.333 87 -207 87s-150 -29 -208 -87
s-87 -128 -87 -210s29 -152 87 -210s127.333 -86.333 208 -85z" />
    <glyph glyph-name="yen" unicode="&#xa5;" horiz-adv-x="1265" 
d="M722 430l365 -0.000976562v-104h-365v-326h-180v326h-356v104h356v109l-8 16h-346l-2 107h290l-403 751h186l297 -563c11.333 -19.333 25.5 -50.166 42.5 -92.499s26.167 -64.833 27.5 -67.5h14c27.333 67.333 50 120 68 158l295 565h188l-403 -751h299v-107h-355
l-10 -16v-109z" />
    <glyph glyph-name="brokenbar" unicode="&#xa6;" horiz-adv-x="507" 
d="M317 780h-127v819h127v-819zM317 -346h-127v819h127v-819z" />
    <glyph glyph-name="section" unicode="&#xa7;" horiz-adv-x="1114" 
d="M695 659l-354 203c-70.667 41.333 -122.834 84.833 -156.501 130.5s-50.5 107.5 -50.5 185.5c0 103.333 32.5 172.833 97.5 208.5s167.833 53.5 308.5 53.5c169.333 -2.66699 317.333 -11 444 -25l-12 -135c-101.333 6.66699 -230.333 10 -387 10
c-64.667 1.33301 -112.667 0.333008 -144 -3s-59.166 -13.833 -83.499 -31.5s-36.5 -44.834 -36.5 -81.501c-1.33301 -45.333 9.16699 -82 31.5 -110s56.833 -55 103.5 -81l332 -186c94 -50.667 154 -116 180 -196s24.667 -175.333 -4 -286h-127
c6.66699 90.667 0.166992 161.834 -19.5 213.501s-60.5 95.167 -122.5 130.5zM167 795l127 -0.00390625c-6.66699 -92 -0.5 -162.833 18.5 -212.5s59.833 -92.167 122.5 -127.5l355 -201c69.333 -40.667 121 -84.667 155 -132s51 -110 51 -188
c0 -46 -6.5 -85.333 -19.5 -118s-30 -58.667 -51 -78s-50 -34.5 -87 -45.5s-73.5 -17.833 -109.5 -20.5s-81.333 -4 -136 -4c-150 2.66699 -299 11 -447 25l15 137c130.667 -8 260.334 -12.667 389.001 -14c39.333 0 69 0.333008 89 1s43 3 69 7s45 10.5 57 19.5
s22.5 21.333 31.5 37s13.5 35.834 13.5 60.501c1.33301 44.667 -9.33398 81.334 -32.001 110.001s-55.667 55.334 -99 80.001l-332 184c-95.333 50.667 -156 115.334 -182 194.001s-25.333 174 2 286z" />
    <glyph glyph-name="copyright" unicode="&#xa9;" horiz-adv-x="1712" 
d="M855 1440c208 0 382.5 -69.3291 523.5 -207.996s211.5 -313.834 211.5 -525.501s-70.5 -386.834 -211.5 -525.501s-315.5 -208 -523.5 -208c-206 0 -380 69.667 -522 209s-213 314.166 -213 524.499s71 385.166 213 524.499s316 209 522 209zM855 1346
c-177.333 0 -328.166 -61.167 -452.499 -183.5s-186.5 -274.333 -186.5 -456s62.167 -333.5 186.5 -455.5s275.166 -183 452.499 -183s328.166 60.667 452.499 182s186.5 273.5 186.5 456.5s-62.167 335.333 -186.5 457s-275.166 182.5 -452.499 182.5zM1150 391.004
l11.999 -99.998c-84.667 -20.667 -183.667 -31 -297 -31c-146 0 -249 33.833 -309 101.5s-90 184.167 -90 349.5c0 166.667 30 283.667 90 351s163 101 309 101c108 0 200.333 -9.33301 277 -28l-16 -99c-88 4 -175.667 6 -263 6c-98 0 -165.833 -23.833 -203.5 -71.5
s-56.5 -134.334 -56.5 -260.001s18.833 -212.334 56.5 -260.001s105.5 -71.5 203.5 -71.5c124.667 0 220.334 4 287.001 12z" />
    <glyph glyph-name="guillemotleft" unicode="&#xab;" horiz-adv-x="993" 
d="M510 879l-258 -365l260 -373l-90 -61l-332 414v41l330 405zM883 879l-258 -365l260 -373l-93 -61l-329 414v41l327 405z" />
    <glyph glyph-name="registered" unicode="&#xae;" horiz-adv-x="1132" 
d="M567 1438c125.333 0 232.333 -44.5 321 -133.5s133 -196.167 133 -321.5c0 -126.667 -44.333 -234.5 -133 -323.5s-195.667 -133.5 -321 -133.5c-127.333 0 -235.333 44.5 -324 133.5s-133 196.833 -133 323.5c0 125.333 44.333 232.5 133 321.5s196.667 133.5 324 133.5
zM567 588c107.333 0 199.334 38.5 276.001 115.5s115 170.167 115 279.5s-38.333 202.5 -115 279.5s-168.834 115.5 -276.501 115.5s-200.167 -38.5 -277.5 -115.5s-116 -170.167 -116 -279.5s38.333 -202.5 115 -279.5s169.667 -115.5 279 -115.5zM675.001 969
l0.000976562 -3.99902c40 -6 66.667 -32 80 -78l62 -168h-86l-58 164c-14.667 36.667 -43.334 55 -86.001 55h-143v-219h-82v530c46.667 4 121 6 223 6c76.667 0 131 -10.833 163 -32.5s48 -61.834 48 -120.501c0 -41.333 -9.16699 -72.5 -27.5 -93.5
s-49.5 -34.167 -93.5 -39.5zM444.002 997.001h139c49.333 1.33301 83.5 8.83301 102.5 22.5s27.833 38.5 26.5 74.5c1.33301 38 -7.16699 63.5 -25.5 76.5s-52.833 19.5 -103.5 19.5h-139v-193z" />
    <glyph glyph-name="plusminus" unicode="&#xb1;" horiz-adv-x="1204" 
d="M1050 801v-131h-383v-275h-133v275h-381v131h381v272h135v-272h381zM153 274h897v-131h-897v131z" />
    <glyph glyph-name="acute" unicode="&#xb4;" horiz-adv-x="643" 
d="M565 1348l-394 -246l-59 80l352 299z" />
    <glyph glyph-name="paragraph" unicode="&#xb6;" horiz-adv-x="1214" 
d="M550 -430l-0.000976562 842c-166.667 14.667 -286.5 61.667 -359.5 141s-109.5 202.333 -109.5 369c0 188 47.833 321 143.5 399s256.834 117 483.501 117c122.667 0 225.667 -11.667 309 -35v-1403h-133v1315c-96 5.33301 -163 8 -201 8v-1753h-133z" />
    <glyph glyph-name="middot" unicode="&#xb7;" horiz-adv-x="509" 
d="M217 670h76c32.667 0 55.5 -6.5 68.5 -19.5s19.5 -36.5 19.5 -70.5v-103c0 -34 -6.5 -57.5 -19.5 -70.5s-35.833 -19.5 -68.5 -19.5h-76c-32.667 0 -55.5 6.5 -68.5 19.5s-19.5 36.5 -19.5 70.5v103c0 34 6.5 57.5 19.5 70.5s35.833 19.5 68.5 19.5z" />
    <glyph glyph-name="guillemotright" unicode="&#xbb;" horiz-adv-x="993" 
d="M530 535v-41l-330 -414l-92 61l260 373l-258 365l92 61zM901 535v-41l-330 -414l-92 61l262 373l-260 365l92 61z" />
    <glyph glyph-name="Ccedilla" unicode="&#xc7;" horiz-adv-x="1167" 
d="M1074 158l18.998 -134.998c-113.333 -32 -251.333 -48 -414 -48c-203.333 0 -346.666 54.667 -429.999 164s-125 298.5 -125 567.5s41.667 458.167 125 567.5s226.666 164 429.999 164c146 0 274.333 -13.667 385 -41l-18 -137c-123.333 12 -245.666 18 -366.999 18
c-138 0 -233.333 -41.333 -286 -124s-79 -231.834 -79 -447.501s26.333 -364.834 79 -447.501s148 -124 286 -124c158.667 0 290.334 7.66699 395.001 23zM557.998 -194.998l18.998 81.998c83.333 8.66699 142.333 3.33398 177 -15.999s51.334 -58.333 50.001 -117
c-1.33301 -86 -34.166 -152.167 -98.499 -198.5s-145.5 -62.833 -243.5 -49.5l27 93c54 -1.33301 98.5 11.167 133.5 37.5s53.833 60.833 56.5 103.5c0 24.667 -8.16699 41.334 -24.5 50.001s-48.5 13.667 -96.5 15z" />
    <glyph glyph-name="Ecircumflex" unicode="&#xca;" horiz-adv-x="1146" 
d="M360 1542l-60 76l271 260h124l273 -260l-62 -76l-264 201h-16zM1035 150l9 -139.998c-126 -8 -328.333 -12 -607 -12c-83.333 0 -149.166 22.167 -197.499 66.5s-73.166 104.166 -74.499 179.499v925c1.33301 75.333 26.166 135.166 74.499 179.499
s114.166 66.5 197.499 66.5c278.667 0 481 -4 607 -12l-9 -141h-567c-82 0 -123 -45.333 -123 -136v-307h611v-145h-611v-387c0 -91.333 41 -137 123 -137h567z" />
    <glyph glyph-name="Icircumflex" unicode="&#xce;" horiz-adv-x="536" 
d="M603 1575l-62 -76l-264 201h-16l-267 -201l-59 76l270 260h125zM359 0h-180v1413h180v-1413z" />
    <glyph glyph-name="multiply" unicode="&#xd7;" horiz-adv-x="991" 
d="M94 317l86 -104l729 657l-86 103z" />
    <glyph glyph-name="Ucircumflex" unicode="&#xdb;" horiz-adv-x="1363" 
d="M1017 1575l-62 -76l-264 201h-16l-266 -201l-60 76l271 260h127zM1195 1413l0.000976562 -872c0 -206.667 -38.167 -353 -114.5 -439s-206.833 -129 -391.5 -129c-190.667 0 -325.334 43 -404.001 129s-118 232.333 -118 439v872h180v-872
c0 -152 24.667 -257.667 74 -317s136 -89 260 -89c122.667 0 209 29.667 259 89s75 165 75 317v872h180z" />
    <glyph glyph-name="ccedilla" unicode="&#xe7;" horiz-adv-x="1001" 
d="M907 143l18.001 -116c-98 -34.667 -212 -52 -342 -52c-172 0 -293.833 39.333 -365.5 118s-107.5 214.167 -107.5 406.5s35.833 327.5 107.5 405.5s194.167 117 367.5 117c131.333 0 238.666 -15.667 321.999 -47l-23 -113c-90 8 -180 12 -270 12
c-120 0 -203.333 -26.5 -250 -79.5s-70 -151.167 -70 -294.5c0 -144.667 23.333 -243.667 70 -297s130 -80 250 -80c109.333 0 207 6.66699 293 20zM462.001 -195l18.999 81.998c83.333 8.66699 142.666 3.33398 177.999 -15.999s52.333 -58.333 51 -117
c-2.66699 -86 -36.167 -152.167 -100.5 -198.5s-145.5 -62.833 -243.5 -49.5l29 93c54.667 -1.33301 99.334 11.167 134.001 37.5s52.667 60.833 54 103.5c1.33301 24.667 -6.16699 41.334 -22.5 50.001s-49.166 13.667 -98.499 15z" />
    <glyph glyph-name="ecircumflex" unicode="&#xea;" horiz-adv-x="1099" 
d="M298 1130l-59 76l270 260h125l273 -260l-62 -76l-266 201h-16zM759 414l-465 0.000976562c10 -114.667 38.167 -191.834 84.5 -231.501s123.5 -59.5 231.5 -59.5c113.333 0 228.666 8 345.999 24l18 -116c-88.667 -37.333 -217.667 -56 -387 -56
c-172 0 -294.5 40 -367.5 120s-109.5 215.667 -109.5 407c0 192.667 35.5 327.5 106.5 404.5s188.5 115.5 352.5 115.5c148.667 0 257.167 -27 325.5 -81s102.5 -135.667 102.5 -245c2.66699 -188 -76.666 -282 -237.999 -282zM292 549.001h422c72.667 0 109 49 109 147
c-1.33301 64.667 -20.5 110.5 -57.5 137.5s-99.833 40.5 -188.5 40.5c-105.333 0 -178.5 -22.833 -219.5 -68.5s-62.833 -131.167 -65.5 -256.5z" />
    <glyph glyph-name="icircumflex" unicode="&#xee;" horiz-adv-x="509" 
d="M591 1206l-62 -76l-264 201h-16l-267 -201l-59 76l270 260h125zM343 0h-174v997h174v-997z" />
    <glyph glyph-name="otilde" unicode="&#xf5;" horiz-adv-x="1163" 
d="M337 1200l-82.002 0.000976562c-8 78 3.33301 137.5 34 178.5s72.667 59.5 126 55.5c44 -4.66699 97 -24 159 -58s111.5 -53 148.5 -57s62.667 2.16699 77 18.5s21.5 44.833 21.5 85.5h82c8 -74.667 -3 -132.5 -33 -173.5s-72.333 -59.5 -127 -55.5
c-50.667 4 -107.667 23.5 -171 58.5s-108.666 54.5 -135.999 58.5c-37.333 4 -63.166 -2.83301 -77.499 -20.5s-21.5 -47.834 -21.5 -90.501zM580.998 1022c172 0 293.167 -39.667 363.5 -119s105.5 -214.5 105.5 -405.5s-35.167 -326.167 -105.5 -405.5
s-191.5 -119 -363.5 -119c-170.667 0 -291.5 39.667 -362.5 119s-106.5 214.5 -106.5 405.5s35.5 326.167 106.5 405.5s191.833 119 362.5 119zM580.998 874.001c-109.333 0 -184.5 -26.5 -225.5 -79.5s-61.5 -151.833 -61.5 -296.5s20.5 -243.667 61.5 -297
s116.167 -80 225.5 -80s184.833 26.667 226.5 80s62.5 152.333 62.5 297s-20.833 243.5 -62.5 296.5s-117.167 79.5 -226.5 79.5z" />
    <glyph glyph-name="divide" unicode="&#xf7;" horiz-adv-x="1169" 
d="M559 1075h45c23.333 0 40.166 -5.16699 50.499 -15.5s15.5 -26.833 15.5 -49.5v-101c0 -23.333 -5.16699 -39.666 -15.5 -48.999s-27.166 -14 -50.499 -14h-45c-24.667 0 -41.5 4.66699 -50.5 14s-13.5 25.666 -13.5 48.999v101c0 24.667 4.5 41.667 13.5 51
s25.833 14 50.5 14zM1032 539h-897v131h897v-131zM559 360h45c23.333 0 40.166 -4.66699 50.499 -14s15.5 -26.333 15.5 -51v-98c0 -24.667 -5.16699 -41.834 -15.5 -51.501s-27.166 -14.5 -50.499 -14.5h-45c-24.667 0 -41.5 4.83301 -50.5 14.5s-13.5 26.834 -13.5 51.501
v98c0 24.667 4.5 41.667 13.5 51s25.833 14 50.5 14z" />
    <glyph glyph-name="ucircumflex" unicode="&#xfb;" horiz-adv-x="1167" 
d="M313 1139l-60 75l271 261h127l270 -261l-61 -75l-265 200h-16zM1007 997l-0.00195312 -997h-139l-13 143c-150 -113.333 -293.333 -170 -430 -170c-181.333 0 -272 91.667 -272 275v749h174v-700c-1.33301 -62.667 10.334 -107 35.001 -133s65.667 -39 123 -39
c50.667 0 101.834 11.333 153.501 34s116.5 59 194.5 109v729h174z" />
    <glyph glyph-name="Scedilla" unicode="&#x15e;" horiz-adv-x="1148" 
d="M683 598l-291.999 74c-100 24.667 -171.5 68.667 -214.5 132s-64.5 150.333 -64.5 261c0 82 8.5 147.833 25.5 197.5s46.333 87.167 88 112.5s88.167 42.166 139.5 50.499s120 12.5 206 12.5c166.667 -2.66699 306.667 -16.334 420 -41.001l-13 -131
c-132 6.66699 -265 10 -399 10c-60 0 -104.333 -1.33301 -133 -4s-56.667 -10.834 -84 -24.501s-45.5 -35.167 -54.5 -64.5s-13.5 -70 -13.5 -122c0 -75.333 13.333 -128.666 40 -159.999s72.667 -55.333 138 -72l287 -71c105.333 -26 179.166 -70.5 221.499 -133.5
s63.5 -151.167 63.5 -264.5c0 -155.333 -35.167 -258.333 -105.5 -309s-192.833 -76 -367.5 -76c-148.667 0 -295 13 -439 39l13 133c229.333 -8 373.333 -11.333 432 -10c112 0 187.5 14.333 226.5 43s58.5 90.334 58.5 185.001c0 77.333 -13.333 131.333 -40 162
s-73 54.334 -139 71.001zM563.001 -119l44.999 0.00195312c21.333 0 36.5 -4.33301 45.5 -13s13.5 -23.334 13.5 -44.001v-113c-1.33301 -94 -23.333 -184 -66 -270l-75 20c12 71.333 18 141.666 18 210.999c-31.333 0 -45.666 16.333 -42.999 49v103
c1.33301 38 22 57 62 57z" />
    <glyph glyph-name="scedilla" unicode="&#x15f;" horiz-adv-x="1040" 
d="M614 403l-287.002 66.0039c-82 19.333 -140 50.166 -174 92.499s-51 104.5 -51 186.5c0 110 29 183.833 87 221.5s158.667 55.167 302 52.5c160 -2.66699 300 -13 420 -31l-14 -127c-208 6.66699 -334.333 10 -379 10c-101.333 2 -167.666 -3.83301 -198.999 -17.5
s-47 -49.834 -47 -108.501c0 -48 10.5 -80.833 31.5 -98.5s58.833 -32.834 113.5 -45.501l291 -65c82 -20.667 141.167 -51.167 177.5 -91.5s54.5 -101.5 54.5 -183.5c0 -116 -32.167 -192.833 -96.5 -230.5s-174.166 -56.5 -329.499 -56.5c-139.333 0 -270 9.66699 -392 29
l13 127c116 -6.66699 230.667 -9.33398 344 -8.00098c116 0 193.833 8.83301 233.5 26.5s59.5 55.167 59.5 112.5c0 45.333 -12 76.5 -36 93.5s-64.667 32.167 -122 45.5zM509.998 -118.996l47 0.00195312c21.333 0 36.166 -4.33301 44.499 -13s12.5 -23.334 12.5 -44.001
v-113c-1.33301 -96.667 -22.333 -186.667 -63 -270l-76 20c12 71.333 18 141.666 18 210.999c-31.333 0 -45.666 16.333 -42.999 49v103c1.33301 38 21.333 57 60 57z" />
    <glyph glyph-name="afii57388" unicode="&#x60c;" horiz-adv-x="466" 
d="M256 -270h-52.001c-24 0 -40.5 4.66699 -49.5 14s-13.5 26.333 -13.5 51v131c1.33301 116 25.333 221.333 72 316l82 -25c-14 -80.667 -21 -162.667 -21 -246c32.667 0 49 -19 49 -57v-119c-1.33301 -43.333 -23.666 -65 -66.999 -65z" />
    <glyph glyph-name="afii57403" unicode="&#x61b;" horiz-adv-x="485" 
d="M274 -270h-60c-22.667 0 -38.834 4.66699 -48.501 14s-14.5 25.666 -14.5 48.999v113c0 24.667 4.83301 41.667 14.5 51s25.834 14 48.501 14h60c23.333 0 39.666 -4.66699 48.999 -14s14 -26.333 14 -51v-113c0 -23.333 -4.66699 -39.666 -14 -48.999
s-25.666 -14 -48.999 -14zM270 389h-50.999c-24.667 0 -41.5 4.83301 -50.5 14.5s-13.5 26.834 -13.5 51.501v131c1.33301 114.667 24.666 219.667 69.999 315l84 -24c-14 -80.667 -21 -162.667 -21 -246c32.667 0 49 -19.333 49 -58v-118
c-1.33301 -24.667 -7 -41.834 -17 -51.501s-26.667 -14.5 -50 -14.5z" />
    <glyph glyph-name="afii57407" unicode="&#x61f;" horiz-adv-x="1034" 
d="M531 1311c-94 0 -162.503 -16.5029 -205.503 -49.5029s-63.167 -83.5 -60.5 -151.5c1.33301 -40.667 14 -80.167 38 -118.5s52.667 -75 86 -110s66.333 -71.833 99 -110.5s60.334 -87.334 83.001 -146.001s33.334 -123 32.001 -193h-150
c-1.33301 54.667 -11.833 105.834 -31.5 153.501s-43.167 87.334 -70.5 119.001l-88 99.5l-88 96c-27.333 29.333 -49.833 64.833 -67.5 106.5s-26.5 86.5 -26.5 134.5c0 211.333 137.667 317 413 317c40 0 77 -0.666992 111 -2s61.333 -2.33301 82 -3s45.334 -3 74.001 -7
l57 -8c9.33301 -1.33301 30.5 -5.16602 63.5 -11.499s54.167 -10.166 63.5 -11.499l-10 -125c-153.333 14 -288 21 -404 21zM600.997 227.497c9.33301 -9.66699 14 -26.834 14 -51.501v-110c0 -24.667 -4.66699 -41.834 -14 -51.501s-25.666 -14.5 -48.999 -14.5h-47
c-23.333 0 -39.833 4.83301 -49.5 14.5s-14.5 26.834 -14.5 51.501v110c0 24.667 4.83301 41.834 14.5 51.501s26.167 14.5 49.5 14.5h47c23.333 0 39.666 -4.83301 48.999 -14.5z" />
    <glyph glyph-name="afii57409" unicode="&#x621;" horiz-adv-x="737" 
d="M143 240c28.667 -20.667 67.3359 -34.3311 116.003 -40.998c109.333 -11.333 244.666 24.667 405.999 108l-78 -239c-170.667 -46.667 -311.334 -111.667 -422.001 -195c-50.667 -38 -88.667 -75 -114 -111l-5 48c2 99.333 40.333 183.666 115 252.999
c-90 15.333 -135 71.333 -135 168c0 45.333 11 92.666 33 141.999c23.333 48.667 52.666 94.167 87.999 136.5s76.333 76.5 123 102.5c44.667 26 93 37.667 145 35c48 -2.66699 87.667 -13 119 -31l-23 -213c-34 15.333 -68 23 -102 23
c-35.333 0 -68.666 -6.66699 -99.999 -20c-31.333 -12.667 -63 -34 -95 -64c-28.667 -28.667 -52.334 -62.667 -71.001 -102z" />
    <glyph glyph-name="afii57410" unicode="&#x622;" horiz-adv-x="387" 
d="M98 1182l213 131v-1182l-213 -131v1182zM650 1733c-9.33301 -52 -15.001 -84.002 -17.001 -96.002c-5.33301 -30 -14 -56 -26 -78c-16.667 -26 -36.667 -45 -60 -57c-28.667 -15.333 -66 -27 -112 -35l-422 -64c-52 -8 -88.833 -19.5 -110.5 -34.5
s-35.5 -38.167 -41.5 -69.5c-4 -18 -7.33301 -18.667 -10 -2c-4 16 -4.66699 36.333 -2 61c2.66699 31.333 6.66699 59.333 12 84c6 23.333 17 45.333 33 66c18 20.667 39.333 36.334 64 47.001c28.667 13.333 61.334 23 98.001 29l414 65
c57.333 12.667 96.5 25.334 117.5 38.001s32.833 35 35.5 67z" />
    <glyph glyph-name="afii57411" unicode="&#x623;" horiz-adv-x="387" 
d="M99 1182l213 131v-1182l-213 -131v1182zM35 1615c22 -18 51.335 -29.001 88.002 -33.001c83.333 -8 185.666 19.333 306.999 82l-59 -182c-132.667 -35.333 -240 -84.666 -322 -147.999c-35.333 -27.333 -64.666 -56 -87.999 -86l-2 39
c1.33301 78 30.666 142.333 87.999 193c-69.333 13.333 -104 55.666 -104 126.999c0 32.667 8.33301 68 25 106c16 38.667 38.333 73.667 67 105c26 30 57.333 56 94 78c36 20 73 29.333 111 28c35.333 -2.66699 64.666 -10.667 87.999 -24l-16 -162
c-26 10.667 -51.333 16 -76 16s-50 -5.33301 -76 -16c-22 -10 -45.333 -25.667 -70 -47c-22.667 -23.333 -41 -48.666 -55 -75.999z" />
    <glyph glyph-name="afii57412" unicode="&#x624;" horiz-adv-x="800" 
d="M397 786c53.333 0 99.6641 -19.001 138.997 -57.001c40.667 -38 75.334 -89.333 104.001 -154c28.667 -62.667 51.334 -135 68.001 -217c14.667 -83.333 22 -165.666 22 -246.999c3.33301 -156 -22.334 -294.667 -77.001 -416
c-45.333 -102.667 -120.666 -216.667 -225.999 -342l-227 192c176 116 292 267 348 453c-64 2.66699 -111.667 5.33398 -143 8.00098c-52 1.33301 -103.333 9 -154 23c-44.667 9.33301 -85.667 25 -123 47c-35.333 20 -53.666 47.333 -54.999 82l-2 43
c0 56 6.66699 116 20 180c15.333 69.333 36.666 132.666 63.999 189.999c26 58.667 60 110 102 154c38.667 40.667 85.334 61 140.001 61zM203.998 308.999c0 -17.333 11.668 -31.6699 35.001 -43.0029c22 -9.33301 52 -17.333 90 -24c48 -8.66699 88.333 -13.667 121 -15
c40.667 -4 83 -6 127 -6c-5.33301 42.667 -15 85 -29 127c-14.667 42.667 -30.334 76.334 -47.001 101.001c-20.667 30 -40.334 51.667 -59.001 65c-22 16.667 -45.333 25 -70 25c-27.333 0 -50.666 -9 -69.999 -27c-20 -18 -37 -39 -51 -63
c-16 -27.333 -27.667 -52.666 -35 -75.999c-8 -27.333 -12 -48.666 -12 -63.999zM193.999 1167c22 -18 51.333 -29.001 88 -33.001c83.333 -8 185.666 19.333 306.999 82l-59 -182c-132.667 -35.333 -240 -84.666 -322 -147.999c-35.333 -27.333 -64.666 -56 -87.999 -86
l-2 39c1.33301 78 30.666 142.333 87.999 193c-69.333 13.333 -104 55.666 -104 126.999c0 32.667 8 68 24 106c16.667 38.667 39.334 73.667 68.001 105c26 30 57.333 56 94 78c35.333 20 72.333 29.333 111 28c35.333 -2.66699 64.666 -10.667 87.999 -24l-17 -162
c-25.333 10.667 -50.333 16 -75 16s-50 -5.33301 -76 -16c-22 -10 -45.333 -25.667 -70 -47c-23.333 -23.333 -41.666 -48.666 -54.999 -75.999z" />
    <glyph glyph-name="afii57413" unicode="&#x625;" horiz-adv-x="387" 
d="M99 1182l213 131v-1182l-213 -131v1182zM35 -483c22 -18 51.335 -29.001 88.002 -33.001c83.333 -8 185.666 19.333 306.999 82l-59 -182c-132.667 -35.333 -240 -84.666 -322 -147.999c-35.333 -27.333 -64.666 -56 -87.999 -86l-2 39
c1.33301 78 30.666 142.333 87.999 193c-69.333 13.333 -104 55.666 -104 126.999c0 32.667 8.33301 68 25 106c16 38.667 38.333 73.667 67 105c26 30 57.333 56 94 78c36 20 73 29.333 111 28c35.333 -2.66699 64.666 -10.667 87.999 -24l-16 -162
c-26 10.667 -51.333 16 -76 16s-50 -5.33301 -76 -16c-22 -10 -45.333 -25.667 -70 -47c-22.667 -23.333 -41 -48.666 -55 -75.999z" />
    <glyph glyph-name="afii57414" unicode="&#x626;" horiz-adv-x="1292" 
d="M128 967c22 -18 51.335 -29.001 88.002 -33.001c83.333 -8 185.666 19.333 306.999 82l-59 -182c-132.667 -36 -240 -85.333 -322 -148c-35.333 -27.333 -64.666 -56 -87.999 -86l-2 39c1.33301 78 30.666 142 87.999 192c-69.333 14 -104 56.333 -104 127
c0 33.333 8.33301 69 25 107c16 38 38.333 72.667 67 104c26 30 57.333 56 94 78c36 20.667 73 30.334 111 29.001c35.333 -2.66699 64.666 -11 87.999 -25l-16 -161c-26 10.667 -51.333 16 -76 16s-50 -5.33301 -76 -16c-22 -10 -45.333 -26 -70 -48
c-22.667 -22.667 -41 -47.667 -55 -75zM761.002 423.999c42 -9.33301 94.0049 -23.666 156.005 -42.999c51.333 -16.667 105.666 -40 162.999 -70c49.333 -27.333 92.666 -59.333 129.999 -96c34 -35.333 51 -76.333 51 -123c0 -27.333 -7 -59.333 -21 -96
c-14.667 -41.333 -34.334 -81.666 -59.001 -120.999c-24.667 -38 -57.334 -80.333 -98.001 -127c-37.333 -38 -80.333 -75.667 -129 -113c-46.667 -32.667 -99.334 -59 -158.001 -79c-57.333 -20.667 -119 -31 -185 -31c-103.333 0 -189.166 17 -257.499 51
s-124.166 77 -167.499 129c-45.333 56 -77 113.333 -95 172c-18.667 58.667 -29.334 116.667 -32.001 174c-2 52 3.33301 106 16 162c9.33301 50.667 25 102 47 154c19.333 43.333 43.333 88.333 72 135c27.333 43.333 54.666 80.666 81.999 111.999l90 -86
c-70 -96.667 -109.667 -188.667 -119 -276c-9.33301 -90 1 -170 31 -240c30 -68 77 -124 141 -168c62.667 -42 135.667 -63 219 -63c45.333 0 88.333 6.66699 129 20c42.667 15.333 83.667 34 123 56c35.333 20 71.666 46.667 108.999 80c31.333 28.667 60 60.667 86 96
c-6 24.667 -25.333 47.667 -58 69c-34 20.667 -71.5 39.167 -112.5 55.5s-85.5 30.833 -133.5 43.5c-9.33301 2.66699 -48.666 12 -117.999 28c-24.667 8.66699 -41.834 18.334 -51.501 29.001s-15.834 27.667 -18.501 51c-1.33301 4 -2 14.333 -2 31
c2.66699 57.333 16.334 112 41.001 164c24.667 54.667 57.5 104.5 98.5 149.5s86.5 82.5 136.5 112.5c52 28.667 103.333 43 154 43c12.667 0 29 -2 49 -6c19.333 -6.66699 37 -19 53 -37c15.333 -18 28.333 -46.667 39 -86
c8.66699 -36.667 9.33398 -91.334 2.00098 -164.001c-27.333 53.333 -71.666 80 -132.999 80c-27.333 0 -55.333 -4 -84 -12c-26 -8.66699 -52.667 -20.334 -80 -35.001c-24 -15.333 -45.667 -33 -65 -53c-20.667 -24.667 -34.334 -48.667 -41.001 -72z" />
    <glyph glyph-name="afii57415" unicode="&#x627;" horiz-adv-x="387" 
d="M98 1182l213 131v-1182l-213 -131v1182z" />
    <glyph glyph-name="afii57416" unicode="&#x628;" horiz-adv-x="1667" 
d="M864 -172l143 -145l-143 -146l-145 146zM1456 772c100.667 -203.333 151 -388.999 151 -556.999c0 -76.667 -6 -148.334 -18 -215.001h-1219c-102 0 -180.667 23.5 -236 70.5s-83 114.833 -83 203.5c0 82 20.5 162.333 61.5 241s94.833 148.667 161.5 210l76 -78
c-30 -34 -58.667 -76.333 -86 -127c-26 -49.333 -40.333 -95.666 -43 -138.999c-2.66699 -45.333 10.333 -83 39 -113c27.333 -31.333 78.333 -47 153 -47h1043c-10.667 38.667 -21.667 70 -33 94c-20.667 45.333 -33.667 72.666 -39 81.999l-47 84
c-22 34 -39.667 64.667 -53 92z" />
    <glyph glyph-name="afii57417" unicode="&#x629;" horiz-adv-x="872" 
d="M256 1249l143 -145l-143 -146l-146 146zM721 1104l-144 -146l-145 146l145 145zM456 879c45.333 -30 81 -55.333 107 -76c39.333 -30 76.333 -65 111 -105c38 -42 68 -84.333 90 -127c22.667 -48.667 34 -99 34 -151c0 -48 -10 -98.667 -30 -152
c-24.667 -57.333 -54.667 -105.666 -90 -144.999c-38.667 -44 -85.334 -81 -140.001 -111c-56 -28.667 -116 -43 -180 -43c-38 0 -66 0.666992 -84 2c-35.333 2.66699 -60.666 6.33398 -75.999 11.001c-21.333 5.33301 -42.333 14.666 -63 27.999
c-19.333 11.333 -35 27 -47 47c-10 20.667 -18.333 44.667 -25 72c-6.66699 30 -7.33398 62.667 -2.00098 98c6.66699 41.333 20.334 85.666 41.001 132.999c19.333 48 52 107 98 177c72.667 112 158 226 256 342zM235 274c15.333 -22.667 39.334 -39.001 72.001 -49.001
c35.333 -10.667 73 -14 113 -10c39.333 2.66699 78.666 14.334 117.999 35.001c38.667 17.333 71 46.666 97 87.999c-14 35.333 -36 71.166 -66 107.499s-55.833 64.333 -77.5 84s-53.834 45.834 -96.501 78.501c-30 -35.333 -52.667 -63.333 -68 -84
c-21.333 -30 -41.666 -60.667 -60.999 -92c-18 -30 -30.333 -59.333 -37 -88c-6.66699 -27.333 -4.66699 -50.666 6 -69.999z" />
    <glyph glyph-name="afii57418" unicode="&#x62a;" horiz-adv-x="1681" 
d="M653 1118l143 -145l-143 -144l-145 144zM1147 973l-146 -144l-145 144l145 145zM1456 772c100.667 -203.333 151 -388.999 151 -556.999c0 -76.667 -6 -148.334 -18 -215.001h-1219c-102 0 -180.667 23.5 -236 70.5s-83 114.833 -83 203.5c0 82 20.5 162.333 61.5 241
s94.833 148.667 161.5 210l76 -78c-30 -34 -58.667 -76.333 -86 -127c-26 -49.333 -40.333 -95.666 -43 -138.999c-2.66699 -45.333 10.333 -83 39 -113c27.333 -31.333 78.333 -47 153 -47h1043c-10.667 38.667 -21.667 70 -33 94
c-20.667 45.333 -33.667 72.666 -39 81.999l-47 84c-22 34 -39.667 64.667 -53 92z" />
    <glyph glyph-name="afii57419" unicode="&#x62b;" horiz-adv-x="1658" 
d="M653 1118l143 -145l-143 -144l-145 144zM825 1366l146 -145l-146 -146l-143 146zM1147 973l-146 -144l-145 144l145 145zM1456 772c100.667 -203.333 151 -388.999 151 -556.999c0 -76.667 -6 -148.334 -18 -215.001h-1219c-102 0 -180.667 23.5 -236 70.5
s-83 114.833 -83 203.5c0 82 20.5 162.333 61.5 241s94.833 148.667 161.5 210l76 -78c-30 -34 -58.667 -76.333 -86 -127c-26 -49.333 -40.333 -95.666 -43 -138.999c-2.66699 -45.333 10.333 -83 39 -113c27.333 -31.333 78.333 -47 153 -47h1043
c-10.667 38.667 -21.667 70 -33 94c-20.667 45.333 -33.667 72.666 -39 81.999l-47 84c-22 34 -39.667 64.667 -53 92z" />
    <glyph glyph-name="afii57420" unicode="&#x62c;" horiz-adv-x="1124" 
d="M833 -29l-146 -145l-145 145l145 144zM339 745c23.333 0 58.9971 -3.33203 106.997 -9.99902l143 -28c79.333 -15.333 132 -26.333 158 -33c61.333 -14 111 -23.667 149 -29c42.667 -6.66699 83 -11.334 121 -14.001c32.667 -2.66699 54.667 1.33301 66 12l-64 -166
c-6.66699 -18.667 -20.334 -32.334 -41.001 -41.001c-20 -9.33301 -46 -14 -78 -14c-31.333 -1.33301 -64.666 0.666992 -99.999 6c-38 4 -76.333 10 -115 18l2 -2c-40.667 -21.333 -79.334 -48.666 -116.001 -81.999c-48 -42 -85.667 -80 -113 -114
c-39.333 -49.333 -70.666 -94.333 -93.999 -135c-27.333 -44 -48.666 -92.667 -63.999 -146c-13.333 -47.333 -18 -96.333 -14 -147c4 -48 20.333 -92.333 49 -133c27.333 -40 62.333 -71.667 105 -95c38 -21.333 80.333 -35.666 127 -42.999c27.333 -4 73 -6 137 -6
c46 4 88.333 10.333 127 19c50.667 13.333 83.334 22.666 98.001 27.999c31.333 12.667 49 20.334 53 23.001l-86 -277c-95.333 -32.667 -188 -50.334 -278 -53.001c-104 -2.66699 -190 10.333 -258 39c-70 28.667 -126 66.334 -168 113.001
c-41.333 43.333 -71.333 97.333 -90 162c-19.333 58.667 -29.666 120 -30.999 184c0 48 7.33301 102 22 162c14 53.333 39.333 112.666 76 177.999c34 60 80.667 121.333 140 184c54 57.333 125 117.333 213 180c-104 23.333 -169 37 -195 41c-102.667 10 -175 -5 -217 -45
l-47 -45l-33 27l86 143c32.667 53.333 65 89.833 97 109.5s74 29.5 126 29.5z" />
    <glyph glyph-name="afii57421" unicode="&#x62d;" horiz-adv-x="1122" 
d="M339 745c23.333 0 58.9971 -3.33203 106.997 -9.99902l143 -28c79.333 -15.333 132 -26.333 158 -33c61.333 -14 111 -23.667 149 -29c42.667 -6.66699 83 -11.334 121 -14.001c32.667 -2.66699 54.667 1.33301 66 12l-64 -166
c-6.66699 -18.667 -20.334 -32.334 -41.001 -41.001c-20 -9.33301 -46 -14 -78 -14c-31.333 -1.33301 -64.666 0.666992 -99.999 6c-38 4 -76.333 10 -115 18l2 -2c-40.667 -21.333 -79.334 -48.666 -116.001 -81.999c-48 -42 -85.667 -80 -113 -114
c-39.333 -49.333 -70.666 -94.333 -93.999 -135c-27.333 -44 -48.666 -92.667 -63.999 -146c-13.333 -47.333 -18 -96.333 -14 -147c4 -48 20.333 -92.333 49 -133c27.333 -40 62.333 -71.667 105 -95c38 -21.333 80.333 -35.666 127 -42.999c27.333 -4 73 -6 137 -6
c46 4 88.333 10.333 127 19c50.667 13.333 83.334 22.666 98.001 27.999c31.333 12.667 49 20.334 53 23.001l-86 -277c-95.333 -32.667 -188 -50.334 -278 -53.001c-104 -2.66699 -190 10.333 -258 39c-70 28.667 -126 66.334 -168 113.001
c-41.333 43.333 -71.333 97.333 -90 162c-19.333 58.667 -29.666 120 -30.999 184c0 48 7.33301 102 22 162c14 53.333 39.333 112.666 76 177.999c34 60 80.667 121.333 140 184c54 57.333 125 117.333 213 180c-104 23.333 -169 37 -195 41c-102.667 10 -175 -5 -217 -45
l-47 -45l-33 27l86 143c32.667 53.333 65 89.833 97 109.5s74 29.5 126 29.5z" />
    <glyph glyph-name="afii57422" unicode="&#x62e;" horiz-adv-x="1132" 
d="M339 745c23.333 0 58.9971 -3.33203 106.997 -9.99902l143 -28c79.333 -15.333 132 -26.333 158 -33c61.333 -14 111 -23.667 149 -29c42.667 -6.66699 83 -11.334 121 -14.001c32.667 -2.66699 54.667 1.33301 66 12l-64 -166
c-6.66699 -18.667 -20.334 -32.334 -41.001 -41.001c-20 -9.33301 -46 -14 -78 -14c-31.333 -1.33301 -64.666 0.666992 -99.999 6c-38 4 -76.333 10 -115 18l2 -2c-40.667 -21.333 -79.334 -48.666 -116.001 -81.999c-48 -42 -85.667 -80 -113 -114
c-39.333 -49.333 -70.666 -94.333 -93.999 -135c-27.333 -44 -48.666 -92.667 -63.999 -146c-13.333 -47.333 -18 -96.333 -14 -147c4 -48 20.333 -92.333 49 -133c27.333 -40 62.333 -71.667 105 -95c38 -21.333 80.333 -35.666 127 -42.999c27.333 -4 73 -6 137 -6
c46 4 88.333 10.333 127 19c50.667 13.333 83.334 22.666 98.001 27.999c31.333 12.667 49 20.334 53 23.001l-86 -277c-95.333 -32.667 -188 -50.334 -278 -53.001c-104 -2.66699 -190 10.333 -258 39c-70 28.667 -126 66.334 -168 113.001
c-41.333 43.333 -71.333 97.333 -90 162c-19.333 58.667 -29.666 120 -30.999 184c0 48 7.33301 102 22 162c14 53.333 39.333 112.666 76 177.999c34 60 80.667 121.333 140 184c54 57.333 125 117.333 213 180c-104 23.333 -169 37 -195 41c-102.667 10 -175 -5 -217 -45
l-47 -45l-33 27l86 143c32.667 53.333 65 89.833 97 109.5s74 29.5 126 29.5zM666.997 1233l143 -146l-143 -145l-145 145z" />
    <glyph glyph-name="afii57423" unicode="&#x62f;" horiz-adv-x="921" 
d="M550 926l121 -159.999c42.667 -61.333 79 -129 109 -203c32.667 -80.667 55.834 -165.334 69.501 -254.001s10.834 -191.667 -8.49902 -309h-596c-53.333 0 -93 11 -119 33s-41.667 50 -47 84c-5.33301 31.333 -2 68 10 110c14 41.333 31.333 80.333 52 117
c-10 -34 -8.5 -63 4.5 -87s40.833 -36 83.5 -36h465c-4.66699 53.333 -13.834 99.166 -27.501 137.499s-33.167 76.5 -58.5 114.5c-24.667 34 -52.667 70.333 -84 109c-34.667 40.667 -70.334 79.334 -107.001 116.001z" />
    <glyph glyph-name="afii57424" unicode="&#x630;" horiz-adv-x="927" 
d="M354 1284l146 -145l-146 -146l-145 146zM569 926l121 -159.999c42.667 -61.333 79 -129 109 -203c32.667 -80.667 55.834 -165.334 69.501 -254.001s10.834 -191.667 -8.49902 -309h-596c-53.333 0 -93 11 -119 33s-41.667 50 -47 84c-5.33301 31.333 -2 68 10 110
c14 41.333 31.333 80.333 52 117c-10 -34 -8.5 -63 4.5 -87s40.833 -36 83.5 -36h465c-4.66699 53.333 -13.834 99.166 -27.501 137.499s-33.167 76.5 -58.5 114.5c-24.667 34 -52.667 70.333 -84 109c-34.667 40.667 -70.334 79.334 -107.001 116.001z" />
    <glyph glyph-name="afii57425" unicode="&#x631;" horiz-adv-x="591" 
d="M511 119c0 -54.667 -4.33105 -111.333 -12.998 -170c-8 -62.667 -23 -124.334 -45 -185.001c-18.667 -54 -50 -120 -94 -198c-40.667 -67.333 -93.334 -138.333 -158.001 -213l-227 192c62.667 42.667 116 86.334 160 131.001c44.667 49.333 81.334 98 110.001 146
c26 46 49.333 98.667 70 158c14.667 46 28.334 101 41.001 165c-6.66699 36 -16.334 74.333 -29.001 115c-10.667 30 -24.334 64 -41.001 102c-5.33301 14 -22.333 47.667 -51 101c-14.667 26 -36.334 60.667 -65.001 104l163 217c118 -229.333 177.667 -451 179 -665z" />
    <glyph glyph-name="afii57426" unicode="&#x632;" horiz-adv-x="626" 
d="M545 119c0 -54.667 -4.33105 -111.333 -12.998 -170c-8 -62.667 -23 -124.334 -45 -185.001c-18.667 -54 -50 -120 -94 -198c-40.667 -67.333 -93.334 -138.333 -158.001 -213l-227 192c62.667 42.667 116 86.334 160 131.001c44.667 49.333 81.334 98 110.001 146
c26 46 49.333 98.667 70 158c14.667 46 28.334 101 41.001 165c-6.66699 36 -16.334 74.333 -29.001 115c-10.667 30 -24.334 64 -41.001 102c-5.33301 14 -22.333 47.667 -51 101c-14.667 26 -36.334 60.667 -65.001 104l163 217c118 -229.333 177.667 -451 179 -665z
M176.002 1206l145 -145l-145 -146l-145 146z" />
    <glyph glyph-name="afii57427" unicode="&#x633;" horiz-adv-x="2138" 
d="M1229 221l283.999 0.000976562c-26 78 -78.333 184.667 -157 320l151 198c91.333 -178.667 140.666 -351.334 147.999 -518.001h280c-9.33301 32.667 -19.333 63.334 -30 92.001c-16.667 38.667 -29.667 66.667 -39 84l-47 84c-19.333 28.667 -38 59.334 -56 92.001
l154 199c99.333 -198 149 -383.667 149 -557c0 -69.333 -5.33301 -141 -16 -215h-809c-8.66699 -58 -29.667 -119.333 -63 -184c-33.333 -63.333 -80 -126.333 -140 -189c-57.333 -60 -124.666 -109 -201.999 -147c-82 -40 -169 -60 -261 -60c-88.667 0 -165 18.667 -229 56
c-64 38 -115.333 87 -154 147c-40.667 62.667 -67.667 130.334 -81 203.001c-15.333 78 -19 154.333 -11 229c5.33301 75.333 24 147.666 56 216.999c28.667 67.333 67.334 124.666 116.001 171.999l70 -82c-35.333 -52.667 -60.666 -107.667 -75.999 -165
c-13.333 -53.333 -18 -105.333 -14 -156s17 -97 39 -139c20 -44 47.333 -81 82 -111c32.667 -30 70.667 -54.667 114 -74c41.333 -17.333 87.333 -26 138 -26c57.333 0 114.666 12.333 171.999 37c58.667 26 109 57.333 151 94c44 36.667 81.667 77.667 113 123
c27.333 43.333 42.333 85.666 45 126.999c-8 38 -18.333 72 -31 102l-43 92c-26 45.333 -43.667 74.666 -53 87.999c-2.66699 4 -22.667 35.667 -60 95l148 196c80.667 -139.333 134.667 -280.666 162 -423.999z" />
    <glyph glyph-name="afii57428" unicode="&#x634;" horiz-adv-x="2138" 
d="M1290 1151l146 -145l-146 -146l-145 146zM1464 1397l144 -144l-144 -145l-145 145zM1784 1006l-146 -146l-145 146l145 145zM1229 221l283.999 0.000976562c-26 78 -78.333 184.667 -157 320l151 198c91.333 -178.667 140.666 -351.334 147.999 -518.001h280
c-9.33301 32.667 -19.333 63.334 -30 92.001c-16.667 38.667 -29.667 66.667 -39 84l-47 84c-19.333 28.667 -38 59.334 -56 92.001l154 199c99.333 -198 149 -383.667 149 -557c0 -69.333 -5.33301 -141 -16 -215h-809c-8.66699 -58 -29.667 -119.333 -63 -184
c-33.333 -63.333 -80 -126.333 -140 -189c-57.333 -60 -124.666 -109 -201.999 -147c-82 -40 -169 -60 -261 -60c-88.667 0 -165 18.667 -229 56c-64 38 -115.333 87 -154 147c-40.667 62.667 -67.667 130.334 -81 203.001c-15.333 78 -19 154.333 -11 229
c5.33301 75.333 24 147.666 56 216.999c28.667 67.333 67.334 124.666 116.001 171.999l70 -82c-35.333 -52.667 -60.666 -107.667 -75.999 -165c-13.333 -53.333 -18 -105.333 -14 -156s17 -97 39 -139c20 -44 47.333 -81 82 -111c32.667 -30 70.667 -54.667 114 -74
c41.333 -17.333 87.333 -26 138 -26c57.333 0 114.666 12.333 171.999 37c58.667 26 109 57.333 151 94c44 36.667 81.667 77.667 113 123c27.333 43.333 42.333 85.666 45 126.999c-8 38 -18.333 72 -31 102l-43 92c-26 45.333 -43.667 74.666 -53 87.999
c-2.66699 4 -22.667 35.667 -60 95l148 196c80.667 -139.333 134.667 -280.666 162 -423.999z" />
    <glyph glyph-name="afii57429" unicode="&#x635;" horiz-adv-x="2553" 
d="M2322 221c0 64 -8.66797 114.667 -26.001 152c-20.667 42 -42.667 74 -66 96c-27.333 23.333 -55.333 39.666 -84 48.999c-30 8 -58 12 -84 12c-31.333 0 -60.666 -4 -87.999 -12c-35.333 -12 -67.333 -27.667 -96 -47s-71 -50.666 -127 -93.999l-184 -156h755zM1235 221
l113.999 0.00195312l138 139c58.667 59.333 111 108.666 157 147.999c61.333 54.667 115.333 99 162 133c57.333 42.667 109.333 75.334 156 98.001c46 22 96.333 33.333 151 34s105.334 -11.333 152 -36c32.667 -18.667 64.667 -45.334 96 -80.001
c31.333 -35.333 57.333 -81.666 78 -138.999c19.333 -57.333 30.333 -129 33 -215c1.33301 -83.333 -12.334 -184.333 -41.001 -303h-1184c-8.66699 -58 -29.667 -119.333 -63 -184c-33.333 -63.333 -80 -126.333 -140 -189c-57.333 -60 -124.666 -109 -201.999 -147
c-82 -40 -169 -60 -261 -60c-88.667 0 -165 18.667 -229 56c-64 38 -115.333 87 -154 147c-40.667 62.667 -67.667 130.334 -81 203.001c-15.333 78 -19 154.333 -11 229c5.33301 75.333 24 147.666 56 216.999c28.667 67.333 67.334 124.666 116.001 171.999l70 -82
c-35.333 -52.667 -60.666 -107.667 -75.999 -165c-13.333 -53.333 -18 -105.333 -14 -156s17 -97 39 -139c20 -44 47.333 -81 82 -111c32.667 -30 70.667 -54.667 114 -74c41.333 -17.333 87.333 -26 138 -26c57.333 0 114.666 12.333 171.999 37
c58.667 26 109 57.333 151 94c44 36.667 81.667 77.667 113 123c27.333 43.333 42.333 85.666 45 126.999c-8 38 -18.333 72 -31 102l-43 92c-26 45.333 -43.667 74.666 -53 87.999c-2.66699 4 -22.667 35.667 -60 95l148 196
c80.667 -139.333 134.667 -280.666 162 -423.999z" />
    <glyph glyph-name="afii57430" unicode="&#x636;" horiz-adv-x="2553" 
d="M2322 221c0 64 -8.66797 114.667 -26.001 152c-20.667 42 -42.667 74 -66 96c-27.333 23.333 -55.333 39.666 -84 48.999c-30 8 -58 12 -84 12c-31.333 0 -60.666 -4 -87.999 -12c-35.333 -12 -67.333 -27.667 -96 -47s-71 -50.666 -127 -93.999l-184 -156h755z
M1945 1225l146 -146l-146 -145l-145 145zM1235 221l113.999 0.00195312l138 139c58.667 59.333 111 108.666 157 147.999c61.333 54.667 115.333 99 162 133c57.333 42.667 109.333 75.334 156 98.001c46 22 96.333 33.333 151 34s105.334 -11.333 152 -36
c32.667 -18.667 64.667 -45.334 96 -80.001c31.333 -35.333 57.333 -81.666 78 -138.999c19.333 -57.333 30.333 -129 33 -215c1.33301 -83.333 -12.334 -184.333 -41.001 -303h-1184c-8.66699 -58 -29.667 -119.333 -63 -184c-33.333 -63.333 -80 -126.333 -140 -189
c-57.333 -60 -124.666 -109 -201.999 -147c-82 -40 -169 -60 -261 -60c-88.667 0 -165 18.667 -229 56c-64 38 -115.333 87 -154 147c-40.667 62.667 -67.667 130.334 -81 203.001c-15.333 78 -19 154.333 -11 229c5.33301 75.333 24 147.666 56 216.999
c28.667 67.333 67.334 124.666 116.001 171.999l70 -82c-35.333 -52.667 -60.666 -107.667 -75.999 -165c-13.333 -53.333 -18 -105.333 -14 -156s17 -97 39 -139c20 -44 47.333 -81 82 -111c32.667 -30 70.667 -54.667 114 -74c41.333 -17.333 87.333 -26 138 -26
c57.333 0 114.666 12.333 171.999 37c58.667 26 109 57.333 151 94c44 36.667 81.667 77.667 113 123c27.333 43.333 42.333 85.666 45 126.999c-8 38 -18.333 72 -31 102l-43 92c-26 45.333 -43.667 74.666 -53 87.999c-2.66699 4 -22.667 35.667 -60 95l148 196
c80.667 -139.333 134.667 -280.666 162 -423.999z" />
    <glyph glyph-name="afii57431" unicode="&#x637;" horiz-adv-x="1501" 
d="M1219 735c35.333 -20 67.334 -45.999 96.001 -77.999c31.333 -35.333 57.333 -82.333 78 -141c18.667 -57.333 29.334 -128.333 32.001 -213c1.33301 -83.333 -12.334 -184.333 -41.001 -303h-1284l-100 221h264c10 8 34 29.833 72 65.5s65.333 62.5 82 80.5l-19 819
l205 125v-779c18 19.333 44 40.666 78 63.999l88 55c30 19.333 58.667 35.833 86 49.5l74 36.5c43.333 23.333 91.666 35 144.999 35s101.333 -12.333 144 -37zM1276 221.001c0 64 -9 114.669 -27 152.002c-20 43.333 -41.667 74.666 -65 93.999
c-27.333 23.333 -55.333 39.666 -84 48.999s-56.667 14 -84 14c-31.333 0 -63.333 -4 -96 -12c-38.667 -12 -75.667 -27.667 -111 -47c-34 -18 -81.667 -49.333 -143 -94c-56 -41.333 -120.333 -93.333 -193 -156h803z" />
    <glyph glyph-name="afii57432" unicode="&#x638;" horiz-adv-x="1501" 
d="M1028 1225l146 -146l-146 -145l-145 145zM1219 735c35.333 -20 67.334 -45.999 96.001 -77.999c31.333 -35.333 57.333 -82.333 78 -141c18.667 -57.333 29.334 -128.333 32.001 -213c1.33301 -83.333 -12.334 -184.333 -41.001 -303h-1284l-100 221h264
c10 8 34 29.833 72 65.5s65.333 62.5 82 80.5l-19 819l205 125v-779c18 19.333 44 40.666 78 63.999l88 55c30 19.333 58.667 35.833 86 49.5l74 36.5c43.333 23.333 91.666 35 144.999 35s101.333 -12.333 144 -37zM1276 221.001c0 64 -9 114.669 -27 152.002
c-20 43.333 -41.667 74.666 -65 93.999c-27.333 23.333 -55.333 39.666 -84 48.999s-56.667 14 -84 14c-31.333 0 -63.333 -4 -96 -12c-38.667 -12 -75.667 -27.667 -111 -47c-34 -18 -81.667 -49.333 -143 -94c-56 -41.333 -120.333 -93.333 -193 -156h803z" />
    <glyph glyph-name="afii57433" unicode="&#x639;" horiz-adv-x="970" 
d="M845 319c-106.667 -13.333 -198.335 -43.3311 -275.002 -89.998c-77.333 -46 -138 -97.667 -182 -155c-44.667 -60 -73.334 -122.333 -86.001 -187c-13.333 -62.667 -10 -122 10 -178c19.333 -53.333 55.666 -97.666 108.999 -132.999
c54.667 -35.333 125.667 -52.333 213 -51c23.333 0 51.333 2 84 6s66.667 10 102 18l109 27c30 8 64.667 19.667 104 35l-82 -268c-27.333 -12.667 -55.333 -22.334 -84 -29.001c-30 -8 -62 -14.333 -96 -19c-30 -5.33301 -60.667 -9.33301 -92 -12
c-40.667 -2.66699 -66 -4 -76 -4c-100.667 -2.66699 -188 11.666 -262 42.999c-70.667 30 -130.667 71.667 -180 125c-45.333 50.667 -77.333 111.334 -96 182.001c-18 68.667 -21 139.667 -9 213c11.333 75.333 38 148.333 80 219c42.667 74 99.334 140.333 170.001 199
c-17.333 9.33301 -36.333 25 -57 47c-14 14 -29.667 36 -47 66c-14 24.667 -26.333 51.334 -37 80.001c-8 21.333 -13.333 48.666 -16 81.999c-3.33301 46 3.33398 89.667 20.001 131c14 38 36 75.333 66 112c27.333 32.667 61.333 62 102 88
c36.667 23.333 79.667 40.666 129 51.999c40.667 9.33301 87.667 10.666 141 3.99902c46.667 -8.66699 94 -27.334 142 -56.001l37 -127c-68.667 28.667 -129 41.667 -181 39c-53.333 -4 -95.666 -17 -126.999 -39c-34 -21.333 -59 -48.666 -75 -81.999
c-16.667 -34 -25 -66.667 -25 -98c2.66699 -92.667 46.334 -150.667 131.001 -174c102.667 49.333 225 83.333 367 102z" />
    <glyph glyph-name="afii57434" unicode="&#x63a;" horiz-adv-x="970" 
d="M472 1362l144 -145l-144 -146l-145 146zM845 319c-106.667 -13.333 -198.335 -43.3311 -275.002 -89.998c-77.333 -46 -138 -97.667 -182 -155c-44.667 -60 -73.334 -122.333 -86.001 -187c-13.333 -62.667 -10 -122 10 -178
c19.333 -53.333 55.666 -97.666 108.999 -132.999c54.667 -35.333 125.667 -52.333 213 -51c23.333 0 51.333 2 84 6s66.667 10 102 18l109 27c30 8 64.667 19.667 104 35l-82 -268c-27.333 -12.667 -55.333 -22.334 -84 -29.001c-30 -8 -62 -14.333 -96 -19
c-30 -5.33301 -60.667 -9.33301 -92 -12c-40.667 -2.66699 -66 -4 -76 -4c-100.667 -2.66699 -188 11.666 -262 42.999c-70.667 30 -130.667 71.667 -180 125c-45.333 50.667 -77.333 111.334 -96 182.001c-18 68.667 -21 139.667 -9 213c11.333 75.333 38 148.333 80 219
c42.667 74 99.334 140.333 170.001 199c-17.333 9.33301 -36.333 25 -57 47c-14 14 -29.667 36 -47 66c-14 24.667 -26.333 51.334 -37 80.001c-8 21.333 -13.333 48.666 -16 81.999c-3.33301 46 3.33398 89.667 20.001 131c14 38 36 75.333 66 112
c27.333 32.667 61.333 62 102 88c36.667 23.333 79.667 40.666 129 51.999c40.667 9.33301 87.667 10.666 141 3.99902c46.667 -8.66699 94 -27.334 142 -56.001l37 -127c-68.667 28.667 -129 41.667 -181 39c-53.333 -4 -95.666 -17 -126.999 -39
c-34 -21.333 -59 -48.666 -75 -81.999c-16.667 -34 -25 -66.667 -25 -98c2.66699 -92.667 46.334 -150.667 131.001 -174c102.667 49.333 225 83.333 367 102z" />
    <glyph glyph-name="afii57440" unicode="&#x640;" horiz-adv-x="465" 
d="M485 0h-505v220h505v-220z" />
    <glyph glyph-name="afii57441" unicode="&#x641;" horiz-adv-x="1867" 
d="M1367 1141l-145 143l145 146l146 -146zM1808 178c0 -87.333 -2.33105 -146.67 -6.99805 -178.003h-1448c-31.333 0 -66.666 5.33301 -105.999 16c-36.667 10 -70.834 28 -102.501 54s-57.5 58.667 -77.5 98c-20.667 38 -31 87 -31 147
c0 60.667 8.33301 117.334 25 170.001c16 50.667 37.667 99.334 65 146.001c30 47.333 59.333 87.666 88 120.999c35.333 38 69 68 101 90l65 -72c-22 -22 -46 -54 -72 -96c-22.667 -40 -41 -79 -55 -117c-14.667 -43.333 -24.334 -83.666 -29.001 -120.999
c-4 -40.667 0.333008 -76.667 13 -108c10.667 -31.333 30.334 -56.666 59.001 -75.999c28.667 -20.667 68.334 -31 119.001 -31h1225c-4.66699 32.667 -14.334 83.334 -29.001 152.001c-127.333 -28.667 -227.166 -42.334 -299.499 -41.001s-128.166 9.33301 -167.499 24
c-40.667 15.333 -66 34 -76 56c-12 20 -18 35.667 -18 47c-2.66699 91.333 6.66602 169 27.999 233c22 70 48.667 128 80 174c34.667 49.333 71 87 109 113s74 41 108 45c67.333 8 126.166 -11.167 176.499 -57.5s94.166 -109.833 131.499 -190.5
c35.333 -79.333 64.666 -172 87.999 -278c20 -105.333 32.333 -212 37 -320zM1197 581.996c10 -10 25.001 -18.333 45.001 -25c19.333 -6.66699 42.666 -10.667 69.999 -12c32.667 -2.66699 67.334 -2 104.001 2c28.667 1.33301 76 8 142 20
c-54.667 157.333 -116.334 236 -185.001 236c-31.333 0 -58 -11 -80 -33c-26.667 -27.333 -45.667 -51.333 -57 -72c-16 -27.333 -27.667 -52.333 -35 -75c-6.66699 -26 -8 -39.667 -4 -41z" />
    <glyph glyph-name="afii57442" unicode="&#x642;" horiz-adv-x="1263" 
d="M700 909l-145 146l145 145l144 -145zM1020 909l-144 146l144 145l145 -145zM860 788c64 0 120.665 -24.333 169.998 -73c50.667 -53.333 91 -117.666 121 -192.999c28.667 -74.667 48.334 -163.334 59.001 -266.001c10 -95.333 6.66699 -193 -10 -293
c-10.667 -60 -31.667 -122 -63 -186c-36 -68.667 -80.667 -131.667 -134 -189c-54.667 -58.667 -121.5 -107.667 -200.5 -147s-168.5 -59 -268.5 -59c-88.667 0 -165 18.333 -229 55c-64 39.333 -115.333 88.333 -154 147c-40.667 62.667 -67.667 130.334 -81 203.001
c-15.333 78 -19 154.333 -11 229c5.33301 75.333 24 147.666 56 216.999c28.667 68.667 67.334 126.334 116.001 173.001l68 -80c-61.333 -93.333 -92 -188.333 -92 -285c0 -54.667 8 -106.667 24 -156c16.667 -46 40.667 -88.333 72 -127
c28.667 -34 68.334 -63.333 119.001 -88c50.667 -21.333 103 -32 157 -32c59.333 0 119 12.667 179 38c60 28.667 110.333 63 151 103c42.667 39.333 80.334 89 113.001 149c27.333 53.333 44.333 110.666 51 171.999c-118.667 -8 -212.334 -8 -281.001 0
c-68 6 -119.667 18.333 -155 37c-35.333 16.667 -57.333 36.667 -66 60c-9.33301 20 -14 42.333 -14 67c0 83.333 9.66699 159.333 29 228c18.667 66.667 43 121 73 163c30 45.333 62.167 78.833 96.5 100.5s69.166 32.5 104.499 32.5zM683.998 369
c13.333 -22 52.501 -40.166 117.501 -54.499s150.833 -17.5 257.5 -9.5c-11.333 41.333 -24.333 76.333 -39 105c-18 32.667 -35 59 -51 79c-12.667 16.667 -32 34.667 -58 54c-18.667 13.333 -36.334 20.666 -53.001 21.999c-30 6.66699 -56 1.33398 -78 -15.999
c-24.667 -20.667 -43.667 -42.667 -57 -66c-16.667 -28.667 -27.667 -52.334 -33 -71.001c-6.66699 -24.667 -8.66699 -39 -6 -43z" />
    <glyph glyph-name="afii57443" unicode="&#x643;" horiz-adv-x="1794" 
d="M355 0c-31.333 0 -66.667 5.33008 -106 15.9971c-34 10 -67.333 28 -100 54c-32 26 -58 58.667 -78 98c-20.667 40.667 -31 90.334 -31 149.001c0 62 8.33301 118 25 168c14.667 50.667 35 98 61 142c24.667 43.333 53.334 82 86.001 116
c28.667 33.333 61.334 62.666 98.001 87.999l19 -71c-27.333 -27.333 -50 -58.666 -68 -93.999c-18.667 -37.333 -33.667 -76.333 -45 -117c-10.667 -44 -15.334 -83 -14.001 -117c0 -38 7.33301 -73.333 22 -106c15.333 -31.333 38.666 -56.666 69.999 -75.999
s72.333 -29 123 -29h1047c-32.667 98.667 -89 173.834 -169 225.501s-191 85.167 -333 100.5c-60 5.33301 -111.667 8 -155 8v211c0 34 4.66699 63.333 14 88c8 24.667 19.667 46.667 35 66c12 16 29 32.333 51 49l55 41l467 290c57.333 34.667 102.833 46.5 136.5 35.5
s50.5 -39.833 50.5 -86.5v-178c-22 46.667 -74.667 44.667 -158 -6l-473 -297c110.667 -12 209 -34 295 -66c82 -32.667 153.667 -72.667 215 -120c57.333 -46.667 104.333 -100.667 141 -162c37.333 -64 63.333 -130.333 78 -199h2l-4 -221h-1357z" />
    <glyph glyph-name="afii57444" unicode="&#x644;" horiz-adv-x="1275" 
d="M294 348c-56 -72 -84 -160.667 -84 -266c0 -57.333 9.66699 -112.666 29 -165.999c17.333 -49.333 44 -93.666 80 -132.999c32.667 -38 71.334 -68.667 116.001 -92c44 -22 92.667 -33 146 -33c118.667 0 211.5 37.5 278.5 112.5s100.5 178.833 100.5 311.5v1100l213 131
v-1313c0 -82 -14.333 -158.5 -43 -229.5s-67.667 -131.833 -117 -182.5c-50.667 -50 -110.834 -89.333 -180.501 -118s-145.5 -43 -227.5 -43s-157 14.333 -225 43c-69.333 28.667 -129.333 68.167 -180 118.5s-89.667 111.166 -117 182.499c-28.667 70.667 -43 147 -43 229
c0 177.333 60 322.666 180 435.999z" />
    <glyph glyph-name="afii57445" unicode="&#x645;" horiz-adv-x="1097" 
d="M303 0c-27.333 0 -40.999 -19.6641 -40.999 -58.9971v-619l-211 -131v750c0 52.667 8.33301 96.334 25 131.001c14.667 34 33.667 63.333 57 88c20.667 22 44.667 37.667 72 47c24 9.33301 47.667 14 71 14h92c6 53.333 16.333 108.666 31 165.999
c14 53.333 34 104.666 60 153.999c22.667 43.333 52.667 81.333 90 114c35.333 28.667 74 43 116 43c38.667 0 75 -9.33301 109 -28c31.333 -18 61.333 -43.333 90 -76c24.667 -28.667 47.334 -64.334 68.001 -107.001c17.333 -40.667 33.666 -81.334 48.999 -122.001
c13.333 -46.667 22.666 -86.334 27.999 -119.001c6 -34 9 -69 9 -105c0 -82 -18.667 -156.333 -56 -223c-14.667 -31.333 -33 -60.666 -55 -87.999c-57.333 64 -118.5 108.333 -183.5 133s-140.5 37 -226.5 37h-194zM868.001 117.003
c2.66699 61.333 -2.00195 112.334 -14.002 153.001c-15.333 44 -31.666 79 -48.999 105c-20.667 27.333 -42 47.666 -64 60.999c-22 12.667 -43 17.667 -63 15c-32.667 -4.66699 -61.667 -24 -87 -58s-53 -91.333 -83 -172h22c136.667 0 249.334 -34.667 338.001 -104z" />
    <glyph glyph-name="afii57446" unicode="&#x646;" horiz-adv-x="1275" 
d="M567 672l-145 143l145 146l146 -146zM1204 154c4 -56 -5.00195 -119.003 -27.002 -189.003c-22.667 -72 -57.334 -141 -104.001 -207c-48 -64 -109.5 -118.5 -184.5 -163.5s-164.5 -67.5 -268.5 -67.5c-100.667 0 -188 15.667 -262 47
c-69.333 30 -126.666 69.667 -171.999 119c-43.333 47.333 -75.333 99 -96 155c-20.667 54.667 -33 107.334 -37 158.001c-4 48 -2 95 6 141c5.33301 41.333 16.333 86.666 33 135.999c14 39.333 32.333 79.333 55 120c16.667 30.667 38.667 64.334 66 101.001l90 -68
c-58.667 -84.667 -90 -168 -94 -250c-5.33301 -78.667 8.33398 -150.334 41.001 -215.001c31.333 -61.333 79 -111.666 143 -150.999c62.667 -38.667 132.334 -58 209.001 -58c49.333 0 100.666 9.66699 153.999 29c44.667 19.333 90.334 45.333 137.001 78
c40.667 32.667 76 68 106 106c28.667 40 48 78.333 58 115c-28.667 118.667 -97.667 263.334 -207 434.001l147 213c124.667 -199.333 193.667 -393.666 207 -582.999z" />
    <glyph glyph-name="afii57470" unicode="&#x647;" horiz-adv-x="872" 
d="M456 879c45.333 -30 81 -55.333 107 -76c39.333 -30 76.333 -65 111 -105c38 -42 68 -84.333 90 -127c22.667 -48.667 34 -99 34 -151c0 -48 -10 -98.667 -30 -152c-24.667 -57.333 -54.667 -105.666 -90 -144.999c-38.667 -44 -85.334 -81 -140.001 -111
c-56 -28.667 -116 -43 -180 -43c-38 0 -66 0.666992 -84 2c-35.333 2.66699 -60.666 6.33398 -75.999 11.001c-21.333 5.33301 -42.333 14.666 -63 27.999c-19.333 11.333 -35 27 -47 47c-10 20.667 -18.333 44.667 -25 72c-6.66699 30 -7.33398 62.667 -2.00098 98
c6.66699 41.333 20.334 85.666 41.001 132.999c19.333 48 52 107 98 177c72.667 112 158 226 256 342zM235 274c15.333 -22.667 39.334 -39.001 72.001 -49.001c35.333 -10.667 73 -14 113 -10c39.333 2.66699 78.666 14.334 117.999 35.001
c38.667 17.333 71 46.666 97 87.999c-14 35.333 -36 71.166 -66 107.499s-55.833 64.333 -77.5 84s-53.834 45.834 -96.501 78.501c-30 -35.333 -52.667 -63.333 -68 -84c-21.333 -30 -41.666 -60.667 -60.999 -92c-18 -30 -30.333 -59.333 -37 -88
c-6.66699 -27.333 -4.66699 -50.666 6 -69.999z" />
    <glyph glyph-name="afii57448" unicode="&#x648;" horiz-adv-x="800" 
d="M397 786c53.333 0 99.6641 -19.001 138.997 -57.001c40.667 -38 75.334 -89.333 104.001 -154c28.667 -62.667 51.334 -135 68.001 -217c14.667 -83.333 22 -165.666 22 -246.999c3.33301 -156 -22.334 -294.667 -77.001 -416
c-45.333 -102.667 -120.666 -216.667 -225.999 -342l-227 192c176 116 292 267 348 453c-64 2.66699 -111.667 5.33398 -143 8.00098c-52 1.33301 -103.333 9 -154 23c-44.667 9.33301 -85.667 25 -123 47c-35.333 20 -53.666 47.333 -54.999 82l-2 43
c0 56 6.66699 116 20 180c15.333 69.333 36.666 132.666 63.999 189.999c26 58.667 60 110 102 154c38.667 40.667 85.334 61 140.001 61zM203.998 308.999c0 -17.333 11.668 -31.6699 35.001 -43.0029c22 -9.33301 52 -17.333 90 -24c48 -8.66699 88.333 -13.667 121 -15
c40.667 -4 83 -6 127 -6c-5.33301 42.667 -15 85 -29 127c-14.667 42.667 -30.334 76.334 -47.001 101.001c-20.667 30 -40.334 51.667 -59.001 65c-22 16.667 -45.333 25 -70 25c-27.333 0 -50.666 -9 -69.999 -27c-20 -18 -37 -39 -51 -63
c-16 -27.333 -27.667 -52.666 -35 -75.999c-8 -27.333 -12 -48.666 -12 -63.999z" />
    <glyph glyph-name="afii57449" unicode="&#x649;" horiz-adv-x="1306" 
d="M764 424c42 -9.33301 93.666 -23.666 154.999 -42.999c52 -16.667 106.667 -40 164 -70c49.333 -27.333 92.333 -59.333 129 -96c34 -35.333 51 -76.333 51 -123c0 -27.333 -6.66699 -59.333 -20 -96c-15.333 -41.333 -35.333 -81.666 -60 -120.999
c-24.667 -38 -57.334 -80.333 -98.001 -127c-36.667 -38 -79.667 -75.667 -129 -113c-46.667 -32.667 -99.334 -59 -158.001 -79c-57.333 -20.667 -118.666 -31 -183.999 -31c-104 0 -190 17 -258 51s-124 77 -168 129c-45.333 56 -76.666 113.333 -93.999 172
c-19.333 58.667 -30.333 116.667 -33 174c-1.33301 52 4 106 16 162c10 50.667 26 102 48 154c18.667 43.333 42.334 88.333 71.001 135c27.333 43.333 54.666 80.666 81.999 111.999l90 -86c-69.333 -96.667 -109 -188.667 -119 -276c-9.33301 -90 1 -170 31 -240
c30 -68 77 -124 141 -168c63.333 -42 136.666 -63 219.999 -63c44.667 0 87.667 6.66699 129 20c42 15.333 83 34 123 56c35.333 20 71.333 46.667 108 80c31.333 28.667 60 60.667 86 96c-5.33301 24.667 -24.333 47.667 -57 69c-34 20.667 -71.5 39.167 -112.5 55.5
s-85.5 30.833 -133.5 43.5c-9.33301 2.66699 -49 12 -119 28c-24.667 8.66699 -41.667 18.334 -51 29.001s-15.333 27.667 -18 51c-1.33301 4 -2 14.333 -2 31c2.66699 57.333 16 112 40 164c24.667 54.667 57.5 104.5 98.5 149.5s86.833 82.5 137.5 112.5
c52 28.667 103.333 43 154 43c12 0 28.333 -2 49 -6c18.667 -6.66699 36.334 -19 53.001 -37c15.333 -18 28.333 -46.667 39 -86c8 -36.667 8.66699 -91.334 2 -164.001c-27.333 53.333 -71.666 80 -132.999 80c-27.333 0 -55.333 -4 -84 -12
c-26 -8.66699 -52.667 -20.334 -80 -35.001c-24.667 -15.333 -46.667 -33 -66 -53c-20 -24.667 -33.333 -48.667 -40 -72z" />
    <glyph glyph-name="afii57450" unicode="&#x64a;" horiz-adv-x="1306" 
d="M585 -582l146 -145l-146 -145l-145 145zM1052 -727l-145 -145l-146 145l146 145zM764 424c42 -9.33301 93.666 -23.666 154.999 -42.999c52 -16.667 106.667 -40 164 -70c49.333 -27.333 92.333 -59.333 129 -96c34 -35.333 51 -76.333 51 -123
c0 -27.333 -6.66699 -59.333 -20 -96c-15.333 -41.333 -35.333 -81.666 -60 -120.999c-24.667 -38 -57.334 -80.333 -98.001 -127c-36.667 -38 -79.667 -75.667 -129 -113c-46.667 -32.667 -99.334 -59 -158.001 -79c-57.333 -20.667 -118.666 -31 -183.999 -31
c-104 0 -190 17 -258 51s-124 77 -168 129c-45.333 56 -76.666 113.333 -93.999 172c-19.333 58.667 -30.333 116.667 -33 174c-1.33301 52 4 106 16 162c10 50.667 26 102 48 154c18.667 43.333 42.334 88.333 71.001 135c27.333 43.333 54.666 80.666 81.999 111.999
l90 -86c-69.333 -96.667 -109 -188.667 -119 -276c-9.33301 -90 1 -170 31 -240c30 -68 77 -124 141 -168c63.333 -42 136.666 -63 219.999 -63c44.667 0 87.667 6.66699 129 20c42 15.333 83 34 123 56c35.333 20 71.333 46.667 108 80c31.333 28.667 60 60.667 86 96
c-5.33301 24.667 -24.333 47.667 -57 69c-34 20.667 -71.5 39.167 -112.5 55.5s-85.5 30.833 -133.5 43.5c-9.33301 2.66699 -49 12 -119 28c-24.667 8.66699 -41.667 18.334 -51 29.001s-15.333 27.667 -18 51c-1.33301 4 -2 14.333 -2 31c2.66699 57.333 16 112 40 164
c24.667 54.667 57.5 104.5 98.5 149.5s86.833 82.5 137.5 112.5c52 28.667 103.333 43 154 43c12 0 28.333 -2 49 -6c18.667 -6.66699 36.334 -19 53.001 -37c15.333 -18 28.333 -46.667 39 -86c8 -36.667 8.66699 -91.334 2 -164.001
c-27.333 53.333 -71.666 80 -132.999 80c-27.333 0 -55.333 -4 -84 -12c-26 -8.66699 -52.667 -20.334 -80 -35.001c-24.667 -15.333 -46.667 -33 -66 -53c-20 -24.667 -33.333 -48.667 -40 -72z" />
    <glyph glyph-name="afii57392" unicode="&#x660;" horiz-adv-x="615" 
d="M148 377l142 178l176 -131l-129 -175z" />
    <glyph glyph-name="afii57393" unicode="&#x661;" 
d="M315 718l99 194c108 -123.333 162 -299.666 162 -528.999c0 -176.667 -30.333 -302.334 -91 -377.001c-12 4 -18 27.667 -18 71c0 24 0.666992 41 2 51v67c0 208 -51.333 382.333 -154 523z" />
    <glyph glyph-name="afii57394" unicode="&#x662;" 
d="M675 935c13.333 0 20.0029 -22.999 20.0029 -68.999c0 -76.667 -19 -140 -57 -190c-42 -54.667 -100 -82 -174 -82c32.667 -79.333 49 -172 49 -278c0 -48.667 -6 -109 -18 -181c-16.667 -99.333 -38.334 -149 -65.001 -149c-8 0 -14 14.667 -18 44
c0 216.667 -36.667 394.667 -110 534c-28 53.333 -63.667 101.666 -107 144.999l99 214c33.333 -88 95.666 -132 186.999 -132c56.667 0 101.667 21.333 135 64l28 45c15.333 23.333 25.666 35 30.999 35z" />
    <glyph glyph-name="afii57395" unicode="&#x663;" 
d="M758 967c13.333 0 19.9971 -16.999 19.9971 -50.999c0 -66.667 -16 -130 -48 -190c-38.667 -72 -89 -108 -151 -108c-46.667 0 -79 23 -97 69c-6 -24.667 -20 -46.167 -42 -64.5s-46 -28.5 -72 -30.5c34 -68.667 51 -158 51 -268
c0 -53.333 -6.66699 -119.666 -20 -198.999c-18 -108 -41 -162 -69 -162c-6.66699 0 -12 9.66699 -16 29v45c0 261.333 -67 510.666 -201 747.999l75 186c16.667 -34.667 47 -83.334 91 -146.001c18.667 -18.667 42.334 -28 71.001 -28c80 0 130.667 37.667 152 113
c9.33301 31.333 18.333 47 27 47c4.66699 0 13.834 -23.333 27.501 -70s38.834 -70.667 75.501 -72c33.333 -0.666992 57.333 9 72 29c8.66699 12.667 17 38 25 76c6 31.333 15.667 47 29 47z" />
    <glyph glyph-name="afii57396" unicode="&#x664;" 
d="M532 986l-55.002 -196.999c-1.33301 -1.33301 -6.33301 -5 -15 -11c-14 -10 -32.667 -22.667 -56 -38c-62.667 -40.667 -94 -69 -94 -85c0 -8 20.333 -22 61 -42l77 -39c19.333 -15.333 29 -36.333 29 -63c0 -30.667 -17.667 -77.667 -53 -141
c-44.667 -80.667 -69.667 -128.334 -75 -143.001c0 -26.667 52 -40 156 -40c86.667 0 143.334 7.33301 170.001 22l-56 -132c-23.333 -54 -87.666 -81 -192.999 -81c-41.333 0 -80 6.66699 -116 20c-49.333 17.333 -74 43 -74 77s20.167 93 60.5 177s60.5 129 60.5 135
c0 10 -24.333 24.167 -73 42.5s-73 39.5 -73 63.5c0 84.667 33.5 176.5 100.5 275.5s139.833 165.5 218.5 199.5z" />
    <glyph glyph-name="afii57397" unicode="&#x665;" 
d="M470 890c45.333 1.33301 86.001 -24.335 122.001 -77.002c71.333 -105.333 107 -250.666 107 -435.999c0 -106.667 -20.667 -192.667 -62 -258c-50 -78 -125.333 -117 -226 -117c-66 0 -119 23.833 -159 71.5s-60 112.5 -60 194.5c0 80 14.833 169.667 44.5 269
s65.667 182.833 108 250.5s84.166 101.834 125.499 102.501zM453.001 634.999c-48 0 -89.667 -39.332 -125 -117.999c-30 -66 -45 -126.667 -45 -182c0 -30.667 18.333 -55.334 55 -74.001c30 -16 61.667 -24 95 -24c31.333 0 66.666 7.33301 105.999 22
c48.667 18 73 39.667 73 65c0 66.667 -13.667 135.167 -41 205.5s-66.666 105.5 -117.999 105.5z" />
    <glyph glyph-name="afii57398" unicode="&#x666;" 
d="M622 957l0.000976562 -130.001c0 -4 -0.333008 -20.167 -1 -48.5s-1 -54.833 -1 -79.5c0 -202 33.333 -367.333 100 -496l-100 -191c-82.667 128.667 -124 280.667 -124 456c0 82.667 7 167.334 21 254.001c-42 -12.667 -88 -19 -138 -19
c-104.667 0 -174.334 24.667 -209.001 74c0 84.667 4.33301 144.667 13 180c2.66699 6.66699 6 10 10 10c30 -16.667 67 -35.667 111 -57c32 -10.667 70.667 -16 116 -16c43.333 0 79 6 107 18c26 11.333 45.5 24 58.5 38s21.167 21 24.5 21
c4.66699 0 8.66699 -4.66699 12 -14z" />
    <glyph glyph-name="afii57399" unicode="&#x667;" horiz-adv-x="1095" 
d="M914 986l-24 -238.002c-139.333 -139.333 -230 -297.333 -272 -474l-42 -189c-14.667 -64.667 -29.667 -97 -45 -97c-8 2 -19.667 35 -35 99c-21.333 94.667 -34.666 150.667 -39.999 168c-16.667 56.667 -45 126.334 -85 209.001
c-42.667 88 -106.334 181.333 -191.001 280l30 229c38.667 -32 93.667 -107 165 -225c74.667 -123.333 130 -234.666 166 -333.999c35.333 98.667 89 207.5 161 326.5s142.667 200.833 212 245.5z" />
    <glyph glyph-name="afii57400" unicode="&#x668;" horiz-adv-x="1095" 
d="M558 981c15.333 0 33.6689 -45.3359 55.002 -136.003c57.333 -243.333 157.333 -450.666 300 -621.999l-35 -225c-54.667 57.333 -115.667 145.333 -183 264c-60 104.667 -107.667 201.667 -143 291c-30 -95.333 -79.333 -199.666 -148 -312.999
c-78.667 -130.667 -152.334 -216 -221.001 -256l10 227c153.333 158.667 252 337.667 296 537c19.333 86.667 31.666 146.334 36.999 179.001c5.33301 36 16 54 32 54z" />
    <glyph glyph-name="afii57401" unicode="&#x669;" 
d="M399 955c66.667 0 111.332 -24.6699 133.999 -74.0029c14.667 -32.667 22 -86.667 22 -162s15.333 -171 46 -287c32 -122.667 66.667 -212 104 -268l-77 -184c-40 40.667 -78 115.334 -114 224.001c-34 100.667 -52 184 -54 250
c-13.333 -23.333 -34.333 -43.666 -63 -60.999s-55.667 -26 -81 -26c-26.667 0 -55 16.333 -85 49s-45 66.334 -45 101.001c0 173.333 41.333 302.333 124 387c32.667 34 62.334 51 89.001 51zM370.998 747.997c-40.667 -7.33301 -71.667 -42 -93 -104
c0 -21.333 9.33301 -39.333 28 -54s39 -22 61 -22c56.667 0 85 23.667 85 71c0 72.667 -27 109 -81 109z" />
    <glyph glyph-name="afii57381" unicode="&#x66a;" horiz-adv-x="1173" 
d="M185 1285l18.001 19c7.33301 7.33301 16.666 17.333 27.999 30l97 111c10 -9.33301 22.667 -22 38 -38l133 -147l-138 -162zM56.001 -78l804 1519h196l-801 -1519h-199zM685.001 193l18.001 19c7.33301 7.33301 16.666 17.333 27.999 30l97 111
c10 -9.33301 22.667 -22 38 -38l133 -147l-138 -162z" />
    <glyph glyph-name="afii63167" unicode="&#x66d;" horiz-adv-x="909" 
d="M807 1243l39 -119l-289 -98l182 -244l-100 -77l-184 251l-179 -251l-102 77l178 244l-289 98l39 119l291 -98v305h123v-305z" />
    <glyph glyph-name="afii57506" unicode="&#x67e;" horiz-adv-x="1667" 
d="M1456 772c100.667 -203.333 151 -388.999 151 -556.999c0 -76.667 -6 -148.334 -18 -215.001h-1219c-102 0 -180.667 23.5 -236 70.5s-83 114.833 -83 203.5c0 82 20.5 162.333 61.5 241s94.833 148.667 161.5 210l76 -78c-30 -34 -58.667 -76.333 -86 -127
c-26 -49.333 -40.333 -95.666 -43 -138.999c-2.66699 -45.333 10.333 -83 39 -113c27.333 -31.333 78.333 -47 153 -47h1043c-10.667 38.667 -21.667 70 -33 94c-20.667 45.333 -33.667 72.666 -39 81.999l-47 84c-22 34 -39.667 64.667 -53 92zM547 -324.999l143 144
l146 -144l-146 -145zM719 -572.999l145 146l146 -146l-146 -145zM1040 -469.999l-145 145l145 144l144 -144z" />
    <glyph glyph-name="afii57507" unicode="&#x686;" horiz-adv-x="1124" 
d="M339 745c23.333 0 58.9971 -3.33203 106.997 -9.99902l143 -28c79.333 -15.333 132 -26.333 158 -33c61.333 -14 111 -23.667 149 -29c42.667 -6.66699 83 -11.334 121 -14.001c32.667 -2.66699 54.667 1.33301 66 12l-64 -166
c-6.66699 -18.667 -20.334 -32.334 -41.001 -41.001c-20 -9.33301 -46 -14 -78 -14c-31.333 -1.33301 -64.666 0.666992 -99.999 6c-38 4 -76.333 10 -115 18l2 -2c-40.667 -21.333 -79.334 -48.666 -116.001 -81.999c-48 -42 -85.667 -80 -113 -114
c-39.333 -49.333 -70.666 -94.333 -93.999 -135c-27.333 -44 -48.666 -92.667 -63.999 -146c-13.333 -47.333 -18 -96.333 -14 -147c4 -48 20.333 -92.333 49 -133c27.333 -40 62.333 -71.667 105 -95c38 -21.333 80.333 -35.666 127 -42.999c27.333 -4 73 -6 137 -6
c46 4 88.333 10.333 127 19c50.667 13.333 83.334 22.666 98.001 27.999c31.333 12.667 49 20.334 53 23.001l-86 -277c-95.333 -32.667 -188 -50.334 -278 -53.001c-104 -2.66699 -190 10.333 -258 39c-70 28.667 -126 66.334 -168 113.001
c-41.333 43.333 -71.333 97.333 -90 162c-19.333 58.667 -29.666 120 -30.999 184c0 48 7.33301 102 22 162c14 53.333 39.333 112.666 76 177.999c34 60 80.667 121.333 140 184c54 57.333 125 117.333 213 180c-104 23.333 -169 37 -195 41c-102.667 10 -175 -5 -217 -45
l-47 -45l-33 27l86 143c32.667 53.333 65 89.833 97 109.5s74 29.5 126 29.5zM469.997 -20.999l101 102l104 -102l-104 -103zM591.997 -196.999l103 103l103 -103l-103 -103zM819.997 -123.999l-103 103l103 102l102 -102z" />
    <glyph glyph-name="uni0695" unicode="&#x695;" horiz-adv-x="591" 
d="M511 119c0 -54.667 -4.33105 -111.333 -12.998 -170c-8 -62.667 -23 -124.334 -45 -185.001c-18.667 -54 -50 -120 -94 -198c-40.667 -67.333 -93.334 -138.333 -158.001 -213l-227 192c62.667 42.667 116 86.334 160 131.001c44.667 49.333 81.334 98 110.001 146
c26 46 49.333 98.667 70 158c14.667 46 28.334 101 41.001 165c-6.66699 36 -16.334 74.333 -29.001 115c-10.667 30 -24.334 64 -41.001 102c-5.33301 14 -22.333 47.667 -51 101c-14.667 26 -36.334 60.667 -65.001 104l163 217c118 -229.333 177.667 -451 179 -665z
M440.002 -817.999c-10.667 -4 -21.668 -11.3359 -33.001 -22.0029l-9 -9l-12 -11l-13 -14l-56 -95l-27 -65l-20 -48l-17 -48l-11 -37c-2.66699 -10 -7.66699 -15 -15 -15l-4 3l-10 10c-6 20.667 -19 52.334 -39 95.001c-23.333 57.333 -46.333 100 -69 128
c-30 52 -56.333 85 -79 99c-5.33301 4.66699 -11.666 9.33398 -18.999 14.001c-6.66699 4.66699 -12.667 8.33398 -18 11.001c0 11.333 4.5 36.666 13.5 75.999s16.833 62.333 23.5 69c12.667 -4 33.667 -14.667 63 -32c10.667 -10.667 21 -21.667 31 -33l26 -34l39 -74
l32 -81l21 66l16 41l5 13l6 12l8 12c14 20.667 34 46.667 60 78c8.66699 8.66699 19 15.334 31 20.001l34 14l17 -43z" />
    </font>
</defs>
</svg>
